{
DisplayStrings = (
T,
"\U00FE",
"don't",
/emdash,
/bullet
);
copyright = "Copyright (c) 2011-12 by vernon adams. All rights reserved.";
customParameters = (
{
name = description;
value = "Copyright (c) 2011 by vernon adams. All rights reserved.";
},
{
name = licenseURL;
value = "http://scripts.sil.org/OFL";
},
{
name = vendorID;
value = newt;
},
{
name = glyphOrder;
value = (
    ".notdef",
    space,
    exclam,
    quotedbl,
    numbersign,
    dollar,
    percent,
    ampersand,
    parenleft,
    parenright,
    asterisk,
    plus,
    comma,
    hyphen,
    period,
    slash,
    zero,
    one,
    two,
    three,
    four,
    five,
    six,
    seven,
    eight,
    nine,
    colon,
    semicolon,
    less,
    equal,
    greater,
    question,
    at,
    A,
    B,
    C,
    D,
    E,
    F,
    G,
    H,
    I,
    J,
    K,
    L,
    M,
    N,
    O,
    P,
    Q,
    R,
    S,
    T,
    U,
    V,
    W,
    X,
    Y,
    Z,
    bracketleft,
    backslash,
    bracketright,
    asciicircum,
    underscore,
    grave,
    a,
    b,
    c,
    d,
    e,
    f,
    g,
    h,
    i,
    j,
    k,
    l,
    m,
    n,
    o,
    p,
    q,
    r,
    s,
    t,
    u,
    v,
    w,
    x,
    y,
    z,
    braceleft,
    bar,
    braceright,
    asciitilde,
    exclamdown,
    cent,
    sterling,
    currency,
    yen,
    brokenbar,
    section,
    dieresis,
    copyright,
    ordfeminine,
    guillemotleft,
    logicalnot,
    registered,
    degree,
    plusminus,
    acute,
    paragraph,
    periodcentered,
    cedilla,
    ordmasculine,
    guillemotright,
    onequarter,
    onehalf,
    threequarters,
    questiondown,
    Agrave,
    Aacute,
    Acircumflex,
    Atilde,
    Adieresis,
    Aring,
    AE,
    Ccedilla,
    Egrave,
    Eacute,
    Ecircumflex,
    Edieresis,
    Igrave,
    Iacute,
    Icircumflex,
    Idieresis,
    Eth,
    Ntilde,
    Ograve,
    Oacute,
    Ocircumflex,
    Otilde,
    Odieresis,
    multiply,
    Oslash,

glyphs = (
{
glyphname = exclam;
lastChange = "2013-12-24 01:32:54 -0800";
layers = (
{
layerId = "DE4BB00D-BABA-4D36-9D9A-44FD0E91C3DF";
name = Regular;
paths = (
{
closed = 1;
nodes = (
"684.575 323 OFFCURVE",
"729 278.575 OFFCURVE",
"729 191 CURVE",
"729 95.3475 OFFCURVE",
"675.391 28 OFFCURVE",
"578 28 CURVE",
"488.272 28 OFFCURVE",
"444 71.5777 OFFCURVE",
"444 162 CURVE",
"444 261.793 OFFCURVE",
"497.679 323 OFFCURVE",
"597 323 CURVE"
);
},
{
closed = 1;
nodes = (
"896 1844 OFFCURVE",
"957 1906 OFFCURVE",
"1049 1896 CURVE SMOOTH",
"1239 1875 OFFCURVE",
"1160 1709 OFFCURVE",
"1095 1540 CURVE SMOOTH",
"716 562 LINE SMOOTH",
"694 504 OFFCURVE",
"675 492 OFFCURVE",
"642 492 CURVE SMOOTH",
"617 492 OFFCURVE",
"596 505 OFFCURVE",
"596 537 CURVE SMOOTH",
"596 551 OFFCURVE",
"599 561 OFFCURVE",
"876 1758 CURVE SMOOTH"
);
}
);
width = 1132;
}
);
unicode = 0021;
},
{
glyphname = quotedbl;
lastChange = "2013-12-24 01:32:04 -0800";
layers = (
{
layerId = "DE4BB00D-BABA-4D36-9D9A-44FD0E91C3DF";
name = Regular;
paths = (
{
closed = 1;
nodes = (
"723.052 1192.73 OFFCURVE",
"696.664 1160 OFFCURVE",
"664 1160 CURVE",
"630.108 1160 OFFCURVE",
"609 1188.79 OFFCURVE",
"609 1233 CURVE",
"609 1405.65 OFFCURVE",
"601 1559.65 OFFCURVE",
"601 1728 CURVE",
"601 1792.01 OFFCURVE",
"662.052 1831 OFFCURVE",
"724 1831 CURVE",
"764.506 1831 OFFCURVE",
"798 1807.55 OFFCURVE",
"798 1762 CURVE",
"798 1756.36 OFFCURVE",
"798 1753.87 OFFCURVE",
"797.263 1750.91 CURVE",
"777.227 1546.42 OFFCURVE",
"758.324 1377.05 OFFCURVE",
"731.434 1234.64 CURVE"
);
},
{
closed = 1;
nodes = (
"361.668 1193.66 OFFCURVE",
"335.35 1160 OFFCURVE",
"310 1160 CURVE",
"276.232 1160 OFFCURVE",
"260.988 1186.65 OFFCURVE",
"254.807 1236.1 CURVE",
"238.835 1385.88 OFFCURVE",
"217 1560.56 OFFCURVE",
"217 1728 CURVE",
"217 1793.07 OFFCURVE",
"268.946 1831 OFFCURVE",
"320 1831 CURVE",
"369.386 1831 OFFCURVE",
"403 1803.82 OFFCURVE",
"403 1747 CURVE",
"403 1578.1 OFFCURVE",
"385.138 1375.66 OFFCURVE",
"367.196 1233.12 CURVE"
);
}
);
width = 1184;
}
);
unicode = 0022;
},
{
glyphname = numbersign;
lastChange = "2013-12-24 01:31:49 -0800";
layers = (
{
background = {
paths = (
{
closed = 1;
nodes = (
"800 960 LINE",
"759 863 OFFCURVE",
"719 768 OFFCURVE",
"676 669 CURVE",
"878 669 OFFCURVE",
"929 669 OFFCURVE",
"979.999 670 CURVE",
"996.999 717 OFFCURVE",
"1014 765 OFFCURVE",
"1083 960 CURVE"
);
},
{
closed = 1;
nodes = (
"259 450 OFFCURVE",
"166 482 OFFCURVE",
"166 556 CURVE SMOOTH",
"166 662 OFFCURVE",
"268 672 OFFCURVE",
"416 672 CURVE",
"545 960 LINE",
"404 960 OFFCURVE",
"349 982 OFFCURVE",
"349 1068 CURVE SMOOTH",
"349 1182 OFFCURVE",
"475 1184 OFFCURVE",
"644 1184 CURVE",
"782 1490 LINE SMOOTH",
"812 1562 OFFCURVE",
"885 1631 OFFCURVE",
"986.999 1631 CURVE SMOOTH",
"1036 1631 OFFCURVE",
"1044 1594 OFFCURVE",
"1044 1546 CURVE SMOOTH",
"1044 1513 OFFCURVE",
"939 1291 OFFCURVE",
"894 1184 CURVE",
"981.999 1184 OFFCURVE",
"1074 1185 OFFCURVE",
"1163 1185 CURVE",
"1222 1352 OFFCURVE",
"1250 1635 OFFCURVE",
"1468 1635 CURVE SMOOTH",
"1521 1635 OFFCURVE",
"1533 1596 OFFCURVE",
"1533 1550 CURVE SMOOTH",
"1533 1467 OFFCURVE",
"1444 1325 OFFCURVE",
"1413 1185 CURVE",
"1539 1185 LINE SMOOTH",
"1588 1185 OFFCURVE",
"1621 1170 OFFCURVE",
"1621 1123 CURVE SMOOTH",
"1621 989 OFFCURVE",
"1515 960 OFFCURVE",
"1339 960 CURVE",
"1308 864 OFFCURVE",
"1275 769 OFFCURVE",
"1241 673 CURVE",
"1328 673 LINE",
"1373 669 OFFCURVE",
"1410 655 OFFCURVE",
"1410 609 CURVE SMOOTH",
"1410 481 OFFCURVE",
"1298 448 OFFCURVE",
"1164 448 CURVE SMOOTH",
"1161 448 LINE",
"1112 316 OFFCURVE",
"1061 186 OFFCURVE",
"1007 55 CURVE SMOOTH",
"985.999 3 OFFCURVE",
"954 -31 OFFCURVE",
"885 -31 CURVE SMOOTH",
"819 -31 OFFCURVE",
"779 -8 OFFCURVE",
"779 60 CURVE SMOOTH",
"779 109 OFFCURVE",
"782 111 OFFCURVE",
"900 447 CURVE",
"795 446 OFFCURVE",
"685 445 OFFCURVE",
"576 445 CURVE",
"515 313 OFFCURVE",
"453 182 OFFCURVE",
"387 51 CURVE SMOOTH",
"361 1 OFFCURVE",
"329 -35 OFFCURVE",
"257 -35 CURVE SMOOTH",
"198 -35 OFFCURVE",
"143 -16 OFFCURVE",
"173 93 CURVE SMOOTH",
"211 234 OFFCURVE",
"332 450 OFFCURVE",
"332 450 CURVE SMOOTH"
);
}
);
};
layerId = "DE4BB00D-BABA-4D36-9D9A-44FD0E91C3DF";
name = Regular;
paths = (
{
closed = 1;
nodes = (
"775 989 LINE",
"726 872 OFFCURVE",
"678 759 OFFCURVE",
"626 639 CURVE",
"891 639 OFFCURVE",
"931 639 OFFCURVE",
"996 641 CURVE",
"1016 698 OFFCURVE",
"1029 736 OFFCURVE",
"1119 989 CURVE"
);
},
{
closed = 1;
nodes = (
"355 467 CURVE",
"282 459 OFFCURVE",
"167 487 OFFCURVE",
"167 549 CURVE",
"167 635 OFFCURVE",
"256 643 OFFCURVE",
"415 642 CURVE",
"570 989 LINE",
"402 986 OFFCURVE",
"355 1001 OFFCURVE",
"355 1074 CURVE",
"355 1169 OFFCURVE",
"465 1168 OFFCURVE",
"649 1168 CURVE",
"798 1497 LINE",
"825 1565 OFFCURVE",
"892 1627 OFFCURVE",
"956 1627 CURVE",
"1012 1627 OFFCURVE",
"1017 1610 OFFCURVE",
"1017 1566 CURVE",
"1017 1536 OFFCURVE",
"882 1249 OFFCURVE",
"851 1168 CURVE",
"958 1167 OFFCURVE",
"1074 1169 OFFCURVE",
"1183 1169 CURVE",
"1250 1342 OFFCURVE",
"1271 1631 OFFCURVE",
"1478 1631 CURVE",
"1511 1631 OFFCURVE",
"1520 1611 OFFCURVE",
"1520 1570 CURVE",
"1520 1486 OFFCURVE",
"1416 1328 OFFCURVE",
"1391 1169 CURVE",
"1552 1169 LINE",
"1594 1169 OFFCURVE",
"1609 1160 OFFCURVE",
"1609 1131 CURVE",
"1609 1011 OFFCURVE",
"1514 987 OFFCURVE",
"1327 989 CURVE",
"1290 873 OFFCURVE",
"1251 759 OFFCURVE",
"1209 643 CURVE",
"1334 643 LINE",
"1373 640 OFFCURVE",
"1393 629 OFFCURVE",
"1393 603 CURVE",
"1393 493 OFFCURVE",
"1298 463 OFFCURVE",
"1167 463 CURVE",
"1145 463 LINE",
"1093 322 OFFCURVE",
"1039 184 OFFCURVE",
"982 43 CURVE",
"963 -3 OFFCURVE",
"937 -29 OFFCURVE",
"880 -29 CURVE",
"823 -29 OFFCURVE",
"797 -11 OFFCURVE",
"797 39 CURVE",
"797 81 OFFCURVE",
"794 70 OFFCURVE",
"931 463 CURVE",
"808 462 OFFCURVE",
"675 460 OFFCURVE",
"546 460 CURVE",
"481 319 OFFCURVE",
"416 181 OFFCURVE",
"345 41 CURVE",
"322 -5 OFFCURVE",
"295 -33 OFFCURVE",
"235 -33 CURVE",
"180 -33 OFFCURVE",
"149 -21 OFFCURVE",
"173 66 CURVE",
"213 214 OFFCURVE",
"324 401 OFFCURVE"
);
}
);
width = 1248;
}
);
unicode = 0023;
},
{
glyphname = dollar;
lastChange = "2013-12-24 01:28:13 -0800";
layers = (
{
background = {
paths = (
{
closed = 1;
nodes = (
"991.999 1231 OFFCURVE",
"1021 1386 OFFCURVE",
"1046 1531 CURVE",
"911 1517 OFFCURVE",
"767 1464 OFFCURVE",
"767 1324 CURVE SMOOTH",
"767 1198 OFFCURVE",
"884 1132 OFFCURVE",
"965 1081 CURVE"
);
},
{
closed = 1;
nodes = (
"1033 224 LINE",
"1169 258 OFFCURVE",
"1297 341 OFFCURVE",
"1297 507 CURVE SMOOTH",
"1297 627 OFFCURVE",
"1199 691 OFFCURVE",
"1124 741 CURVE"
);
},
{
closed = 1;
nodes = (
"923 853 LINE",
"756 941 OFFCURVE",
"496 1049 OFFCURVE",
"496 1294 CURVE SMOOTH",
"496 1587 OFFCURVE",
"792 1731 OFFCURVE",
"1084 1743 CURVE",
"1106 1872 LINE SMOOTH",
"1116 1938 OFFCURVE",
"1172 1984 OFFCURVE",
"1250 1984 CURVE SMOOTH",
"1330 1984 OFFCURVE",
"1319 1893 OFFCURVE",
"1308 1820 CURVE SMOOTH",
"1293 1728 LINE",
"1479 1691 OFFCURVE",
"1697 1590 OFFCURVE",
"1697 1374 CURVE SMOOTH",
"1697 1294 OFFCURVE",
"1661 1227 OFFCURVE",
"1584 1227 CURVE SMOOTH",
"1505 1227 OFFCURVE",
"1457 1293 OFFCURVE",
"1457 1374 CURVE SMOOTH",
"1457 1463 OFFCURVE",
"1349 1506 OFFCURVE",
"1259 1523 CURVE",
"1163 966 LINE",
"1324 873 OFFCURVE",
"1537 754 OFFCURVE",
"1537 507 CURVE SMOOTH",
"1537 182 OFFCURVE",
"1292 31 OFFCURVE",
"991.999 4 CURVE",
"962 -158 LINE",
"946 -212 OFFCURVE",
"901 -225 OFFCURVE",
"827 -224 CURVE",
"733 -224 OFFCURVE",
"753 -83 OFFCURVE",
"770 4 CURVE",
"505 26 OFFCURVE",
"257 133 OFFCURVE",
"257 417 CURVE SMOOTH",
"257 635 OFFCURVE",
"394 778 OFFCURVE",
"617 778 CURVE SMOOTH",
"682 778 OFFCURVE",
"733 743 OFFCURVE",
"733 680 CURVE SMOOTH",
"733 632 OFFCURVE",
"699 598 OFFCURVE",
"647 598 CURVE SMOOTH",
"543 598 OFFCURVE",
"496 529 OFFCURVE",
"496 420 CURVE SMOOTH",
"496 270 OFFCURVE",
"651 222 OFFCURVE",
"807 210 CURVE"
);
}
);
};
layerId = "DE4BB00D-BABA-4D36-9D9A-44FD0E91C3DF";
name = Regular;
paths = (
{
closed = 1;
nodes = (
"1014 1235 OFFCURVE",
"1048 1416 OFFCURVE",
"1076 1582 CURVE",
"933 1574 OFFCURVE",
"742 1517 OFFCURVE",
"742 1347 CURVE",
"742 1187 OFFCURVE",
"910.562 1091.16 OFFCURVE",
"982.812 1039.76 CURVE"
);
},
{
closed = 1;
nodes = (
"995 168 LINE",
"1146 196 OFFCURVE",
"1315 288 OFFCURVE",
"1315 484 CURVE",
"1315 638 OFFCURVE",
"1169 709 OFFCURVE",
"1106.11 783.584 CURVE"
);
},
{
closed = 1;
nodes = (
"950.838 866.492 LINE",
"782.932 957.127 OFFCURVE",
"521 1082 OFFCURVE",
"521 1317 CURVE",
"521 1599 OFFCURVE",
"814 1736 OFFCURVE",
"1105 1742 CURVE",
"1131 1891 LINE",
"1139 1944 OFFCURVE",
"1185 1982 OFFCURVE",
"1250 1982 CURVE",
"1302 1982 OFFCURVE",
"1294 1920 OFFCURVE",
"1283 1847 CURVE",
"1264 1731 LINE",
"1451 1699 OFFCURVE",
"1672 1604 OFFCURVE",
"1672 1397 CURVE",
"1672 1328 OFFCURVE",
"1642 1275 OFFCURVE",
"1584 1275 CURVE",
"1522 1275 OFFCURVE",
"1482 1328 OFFCURVE",
"1482 1397 CURVE",
"1482 1513 OFFCURVE",
"1331 1562 OFFCURVE",
"1239 1575 CURVE",
"1135.41 953.087 LINE",
"1298.84 858.188 OFFCURVE",
"1505 723 OFFCURVE",
"1505 484 CURVE",
"1505 168 OFFCURVE",
"1265 26 OFFCURVE",
"964 4 CURVE",
"931 -175 LINE",
"919 -213 OFFCURVE",
"888 -223 OFFCURVE",
"820 -222 CURVE",
"750 -222 OFFCURVE",
"775 -81 OFFCURVE",
"793 4 CURVE",
"523 20 OFFCURVE",
"275 119 OFFCURVE",
"275 394 CURVE",
"275 598 OFFCURVE",
"402 730 OFFCURVE",
"610 730 CURVE",
"663 730 OFFCURVE",
"701 703 OFFCURVE",
"701 657 CURVE",
"701 623 OFFCURVE",
"678 600 OFFCURVE",
"640 600 CURVE",
"519 600 OFFCURVE",
"464 517 OFFCURVE",
"464 397 CURVE",
"464 220 OFFCURVE",
"656 169 OFFCURVE",
"821 160 CURVE"
);
}
);
width = 1735;
}
);
unicode = 0024;
},
{
glyphname = percent;
lastChange = "2013-12-24 01:26:38 -0800";
layers = (
{
layerId = "DE4BB00D-BABA-4D36-9D9A-44FD0E91C3DF";
name = Regular;
paths = (
{
closed = 1;
nodes = (
"1592 851 OFFCURVE",
"1543 571 OFFCURVE",
"1543 392 CURVE",
"1543 289 OFFCURVE",
"1569 129 OFFCURVE",
"1687 129 CURVE",
"1853 129 OFFCURVE",
"1925 400 OFFCURVE",
"1925 554 CURVE",
"1925 664 OFFCURVE",
"1909 851 OFFCURVE",
"1782 851 CURVE"
);
},
{
closed = 1;
nodes = (
"1337 703 OFFCURVE",
"1494 993 OFFCURVE",
"1808 993 CURVE",
"2031 993 OFFCURVE",
"2121 807 OFFCURVE",
"2121 572 CURVE",
"2121 220 OFFCURVE",
"1891 -13 OFFCURVE",
"1669 -13 CURVE",
"1450 -13 OFFCURVE",
"1337 156 OFFCURVE",
"1337 380 CURVE"
);
},
{
closed = 1;
nodes = (
"716 -34 OFFCURVE",
"614 -29 OFFCURVE",
"588 55 CURVE",
"566 122 OFFCURVE",
"613 197 OFFCURVE",
"659 274 CURVE",
"1503 1678 LINE",
"1575 1798 OFFCURVE",
"1638 1750 OFFCURVE",
"1638 1689 CURVE",
"1638 1612 OFFCURVE",
"1285 878 OFFCURVE",
"761 45 CURVE"
);
},
{
closed = 1;
nodes = (
"385 1596 OFFCURVE",
"325 1348 OFFCURVE",
"325 1176 CURVE",
"325 1065 OFFCURVE",
"348 874 OFFCURVE",
"473 874 CURVE",
"652 874 OFFCURVE",
"731 1181 OFFCURVE",
"731 1349 CURVE",
"731 1463 OFFCURVE",
"696 1596 OFFCURVE",
"568 1596 CURVE"
);
},
{
closed = 1;
nodes = (
"119 1470 OFFCURVE",
"286 1738 OFFCURVE",
"594 1738 CURVE",
"819 1738 OFFCURVE",
"925 1578 OFFCURVE",
"925 1347 CURVE",
"925 1067 OFFCURVE",
"783 838 OFFCURVE",
"586 757 CURVE",
"545 740 OFFCURVE",
"503 732 OFFCURVE",
"455 732 CURVE",
"231 732 OFFCURVE",
"119 923 OFFCURVE",
"119 1155 CURVE"
);
}
);
width = 2208;
}
);
unicode = 0025;
},
{
glyphname = ampersand;
lastChange = "2013-12-24 01:25:23 -0800";
layers = (
{
layerId = "DE4BB00D-BABA-4D36-9D9A-44FD0E91C3DF";
name = Regular;
paths = (
{
closed = 1;
nodes = (
"771 1049 OFFCURVE",
"941 1175 OFFCURVE",
"941 1362 CURVE",
"941 1463 OFFCURVE",
"888 1495 OFFCURVE",
"794 1495 CURVE",
"662 1495 OFFCURVE",
"605 1403 OFFCURVE",
"605 1286 CURVE",
"605 1194 OFFCURVE",
"620 1097 OFFCURVE",
"684 1001 CURVE"
);
},
{
closed = 1;
nodes = (
"446.229 699.893 OFFCURVE",
"297 591 OFFCURVE",
"297 403 CURVE",
"297 256 OFFCURVE",
"426 152 OFFCURVE",
"566 152 CURVE",
"696 152 OFFCURVE",
"806 186 OFFCURVE",
"880 216 CURVE",
"743 386 OFFCURVE",
"650 536 OFFCURVE",
"543.7 771.97 CURVE"
);
},
{
closed = 1;
nodes = (
"1419 -76 OFFCURVE",
"1575 -121 OFFCURVE",
"1575 -157 CURVE",
"1575 -176 OFFCURVE",
"1496 -238 OFFCURVE",
"1370 -238 CURVE",
"1309 -238 OFFCURVE",
"1244 -233 OFFCURVE",
"1198 -186 CURVE",
"1094 -83 OFFCURVE",
"1001 21 OFFCURVE",
"964 74 CURVE",
"896 44 OFFCURVE",
"750 0 OFFCURVE",
"558 0 CURVE",
"308 0 OFFCURVE",
"89 138 OFFCURVE",
"89 367 CURVE",
"89 619 OFFCURVE",
"300 820 OFFCURVE",
"476 912 CURVE",
"420 1013 OFFCURVE",
"378 1120 OFFCURVE",
"378 1272 CURVE",
"378 1488 OFFCURVE",
"564 1657 OFFCURVE",
"782 1657 CURVE",
"958 1657 OFFCURVE",
"1090 1555 OFFCURVE",
"1090 1385 CURVE",
"1090 1147 OFFCURVE",
"889.844 971.102 OFFCURVE",
"725.697 873.774 CURVE",
"808.615 695.914 OFFCURVE",
"953 443 OFFCURVE",
"1049 309 CURVE",
"1203 373 OFFCURVE",
"1294 453 OFFCURVE",
"1294 611 CURVE",
"1321 664 OFFCURVE",
"1456 588 OFFCURVE",
"1456 538 CURVE",
"1456 377 OFFCURVE",
"1327 251 OFFCURVE",
"1152 159 CURVE",
"1255 60 OFFCURVE",
"1301 17 OFFCURVE",
"1348 -21 CURVE"
);
}
);
width = 1523;
}
);
unicode = 0026;
},
{
glyphname = parenleft;
lastChange = "2013-12-24 01:23:24 -0800";
layers = (
{
layerId = "DE4BB00D-BABA-4D36-9D9A-44FD0E91C3DF";
name = Regular;
paths = (
{
closed = 1;
nodes = (
"1149.15 -236 OFFCURVE",
"1237 -217 OFFCURVE",
"1237 -282 CURVE",
"1237 -345 OFFCURVE",
"1109.36 -353 OFFCURVE",
"1040 -353 CURVE",
"626.765 -353 OFFCURVE",
"399 -40 OFFCURVE",
"399 410 CURVE",
"399 993.059 OFFCURVE",
"717.197 1624.72 OFFCURVE",
"1268.35 1875.24 CURVE",
"1295.95 1887.2 OFFCURVE",
"1315.96 1892 OFFCURVE",
"1335 1892 CURVE",
"1365.94 1892 OFFCURVE",
"1381 1877.38 OFFCURVE",
"1381 1854 CURVE",
"1381 1815.42 OFFCURVE",
"1335.33 1761.33 OFFCURVE",
"1243.27 1694.2 CURVE",
"825.698 1391.16 OFFCURVE",
"605 871.085 OFFCURVE",
"605 430 CURVE",
"605 97.5807 OFFCURVE",
"723.731 -163 OFFCURVE",
"1029.79 -216 CURVE"
);
}
);
width = 1377;
}
);
unicode = 0028;
},
{
glyphname = parenright;
lastChange = "2013-12-24 01:23:10 -0800";
layers = (
{
layerId = "DE4BB00D-BABA-4D36-9D9A-44FD0E91C3DF";
name = Regular;
paths = (
{
closed = 1;
nodes = (
"576.565 1887.31 OFFCURVE",
"557.042 1892 OFFCURVE",
"538 1892 CURVE",
"502.271 1892 OFFCURVE",
"478 1870.55 OFFCURVE",
"478 1837 CURVE",
"478 1801.06 OFFCURVE",
"512.175 1751.62 OFFCURVE",
"580.313 1692.94 CURVE",
"855.354 1456.61 OFFCURVE",
"985 1089.28 OFFCURVE",
"985 733 CURVE",
"985 254.275 OFFCURVE",
"789.829 -151 OFFCURVE",
"396.036 -216 CURVE",
"275.997 -236 OFFCURVE",
"167 -215 OFFCURVE",
"167 -297 CURVE",
"167 -346 OFFCURVE",
"279.613 -353 OFFCURVE",
"345 -353 CURVE",
"866.518 -353 OFFCURVE",
"1193 141.482 OFFCURVE",
"1193 769 CURVE",
"1193 1236.66 OFFCURVE",
"996.01 1676.58 OFFCURVE",
"600.754 1875.67 CURVE"
);
}
);
width = 1377;
}
);
unicode = 0029;
},
{
glyphname = asterisk;
lastChange = "2013-12-24 01:34:39 -0800";
layers = (
{
layerId = "DE4BB00D-BABA-4D36-9D9A-44FD0E91C3DF";
name = Regular;
paths = (
{
closed = 1;
nodes = (
"498 1778.65 OFFCURVE",
"545.858 1804 OFFCURVE",
"601 1804 CURVE",
"662.215 1804 OFFCURVE",
"685.987 1762.21 OFFCURVE",
"670.026 1714.32 CURVE",
"632.77 1603.76 OFFCURVE",
"606 1501 OFFCURVE",
"563 1404 CURVE",
"657 1452 OFFCURVE",
"747.989 1494.11 OFFCURVE",
"844.805 1548.57 CURVE",
"891.49 1574.24 OFFCURVE",
"973 1529.19 OFFCURVE",
"972.999 1452 CURVE",
"972.999 1374.5 OFFCURVE",
"714 1349 OFFCURVE",
"610 1336 CURVE",
"775 1250 OFFCURVE",
"931 1198 OFFCURVE",
"931 1133 CURVE",
"931 1055.34 OFFCURVE",
"820.532 1017.75 OFFCURVE",
"779.142 1059.14 CURVE",
"542 1278 LINE",
"528.003 957.344 LINE",
"528 911.181 OFFCURVE",
"478.01 884 OFFCURVE",
"424 884 CURVE",
"379.89 884 OFFCURVE",
"351 903.09 OFFCURVE",
"351 943 CURVE",
"351 1065.67 OFFCURVE",
"440 1195 OFFCURVE",
"463 1287 CURVE",
"373 1234 OFFCURVE",
"278.081 1188.86 OFFCURVE",
"180.821 1137.24 CURVE",
"141.139 1110.72 OFFCURVE",
"52 1155.85 OFFCURVE",
"52 1235 CURVE",
"52 1326 OFFCURVE",
"405 1346 OFFCURVE",
"423 1353 CURVE",
"313 1411 OFFCURVE",
"94 1480.18 OFFCURVE",
"94 1551 CURVE",
"94 1600.9 OFFCURVE",
"149.71 1643 OFFCURVE",
"203 1643 CURVE",
"258.074 1643 OFFCURVE",
"391 1490 OFFCURVE",
"485 1408 CURVE",
"483 1514 OFFCURVE",
"498 1618.63 OFFCURVE",
"498 1731 CURVE"
);
}
);
width = 1024;
}
);
unicode = 002A;
},
{
glyphname = plus;
lastChange = "2013-12-24 01:21:25 -0800";
layers = (
{
layerId = "DE4BB00D-BABA-4D36-9D9A-44FD0E91C3DF";
name = Regular;
paths = (
{
closed = 1;
nodes = (
"845 130.649 OFFCURVE",
"819.393 80 OFFCURVE",
"768 80 CURVE",
"717.525 80 OFFCURVE",
"693 127.713 OFFCURVE",
"693 189 CURVE",
"693 436 LINE",
"449 436 LINE",
"387.713 436 OFFCURVE",
"340 460.525 OFFCURVE",
"340 511 CURVE",
"340 562.393 OFFCURVE",
"390.649 588 OFFCURVE",
"453 588 CURVE",
"693 588 LINE",
"693 836 LINE",
"693 892.714 OFFCURVE",
"728.46 935 OFFCURVE",
"782 935 CURVE",
"821.958 935 OFFCURVE",
"845 905.217 OFFCURVE",
"845 855 CURVE",
"845 588 LINE",
"1115 588 LINE",
"1165.22 588 OFFCURVE",
"1195 564.958 OFFCURVE",
"1195 525 CURVE",
"1195 471.46 OFFCURVE",
"1152.71 436 OFFCURVE",
"1096 436 CURVE",
"845 436 LINE",
"845 193 LINE"
);
}
);
width = 1503;
}
);
unicode = 002B;
},
{
glyphname = comma;
lastChange = "2013-12-24 01:21:09 -0800";
layers = (
{
layerId = "DE4BB00D-BABA-4D36-9D9A-44FD0E91C3DF";
name = Regular;
paths = (
{
closed = 1;
nodes = (
"587 -19 OFFCURVE",
"386.306 -170 OFFCURVE",
"249.906 -209 CURVE",
"213.726 -219 OFFCURVE",
"187.102 -200 OFFCURVE",
"206.887 -167 CURVE",
"287.252 -31 OFFCURVE",
"353.347 46.7043 OFFCURVE",
"373.891 216.195 CURVE",
"380.109 265.048 OFFCURVE",
"405.151 297.165 OFFCURVE",
"475.884 306.119 CURVE",
"557.863 316.474 OFFCURVE",
"587 254.714 OFFCURVE",
"587 183 CURVE"
);
}
);
width = 849;
}
);
unicode = 002C;
},
{
glyphname = hyphen;
lastChange = "2013-12-24 01:20:54 -0800";
layers = (
{
layerId = "DE4BB00D-BABA-4D36-9D9A-44FD0E91C3DF";
name = Regular;
paths = (
{
closed = 1;
nodes = (
"798.77 689.02 LINE",
"872 689 OFFCURVE",
"896 661 OFFCURVE",
"896 628 CURVE",
"896 591.511 OFFCURVE",
"862.469 551.33 OFFCURVE",
"803.884 546.958 CURVE",
"361.228 504.223 LINE",
"360.573 504.093 OFFCURVE",
"360.173 504 OFFCURVE",
"360 504 CURVE",
"314.249 504 OFFCURVE",
"288 543.51 OFFCURVE",
"288 585 CURVE",
"288 625.531 OFFCURVE",
"313.516 664.456 OFFCURVE",
"370.671 667.015 CURVE"
);
}
);
width = 974;
}
);
unicode = 002D;
},
{
glyphname = period;
lastChange = "2013-12-24 01:20:25 -0800";
layers = (
{
layerId = "DE4BB00D-BABA-4D36-9D9A-44FD0E91C3DF";
name = Regular;
paths = (
{
closed = 1;
nodes = (
"363 237 OFFCURVE",
"418 299 OFFCURVE",
"520 299 CURVE",
"614 299 OFFCURVE",
"662 256 OFFCURVE",
"662 165 CURVE",
"662 63 OFFCURVE",
"605 0 OFFCURVE",
"501 0 CURVE",
"409 0 OFFCURVE",
"363 43 OFFCURVE",
"363 135 CURVE"
);
}
);
width = 882;
}
);
unicode = 002E;
},
{
glyphname = slash;
lastChange = "2013-12-24 01:33:20 -0800";
layers = (
{
layerId = "DE4BB00D-BABA-4D36-9D9A-44FD0E91C3DF";
name = Regular;
paths = (
{
closed = 1;
nodes = (
"455.809 27.5661 OFFCURVE",
"418.932 2 OFFCURVE",
"341 2 CURVE",
"276.644 2 OFFCURVE",
"257 9.44385 OFFCURVE",
"257 55 CURVE",
"257 140.226 OFFCURVE",
"296.313 192.047 OFFCURVE",
"335.952 280.715 CURVE",
"539.021 740.869 OFFCURVE",
"751.947 1224.7 OFFCURVE",
"959.856 1681.5 CURVE",
"995.469 1758.07 OFFCURVE",
"1073.46 1821 OFFCURVE",
"1184 1821 CURVE",
"1212.01 1821 OFFCURVE",
"1231 1812.72 OFFCURVE",
"1231 1783 CURVE",
"1231 1747.57 OFFCURVE",
"1181.1 1675.72 OFFCURVE",
"1163.88 1635.89 CURVE",
"932.366 1130.89 OFFCURVE",
"734.397 578.977 OFFCURVE",
"482.756 79.7743 CURVE"
);
}
);
width = 1248;
}
);
unicode = 002F;
},
{
glyphname = zero;
lastChange = "2013-12-24 00:42:39 -0800";
layers = (
{
background = {
paths = (
{
closed = 1;
nodes = (
"455 1292 OFFCURVE",
"352 730.258 OFFCURVE",
"352 505 CURVE",
"352 384.935 OFFCURVE",
"368 136 OFFCURVE",
"515 136 CURVE",
"784 136 OFFCURVE",
"882 719.294 OFFCURVE",
"882 939 CURVE",
"882 1059.82 OFFCURVE",
"884 1292 OFFCURVE",
"724 1292 CURVE"
);
},
{
closed = 1;
nodes = (
"74 975.249 OFFCURVE",
"313 1450 OFFCURVE",
"730 1450 CURVE",
"1034 1450 OFFCURVE",
"1140 1197.73 OFFCURVE",
"1140 902 CURVE",
"1140 475.898 OFFCURVE",
"912 -12 OFFCURVE",
"492 -12 CURVE",
"199 -12 OFFCURVE",
"74 240 OFFCURVE",
"74 552 CURVE"
);
}
);
};
layerId = "DE4BB00D-BABA-4D36-9D9A-44FD0E91C3DF";
name = Regular;
paths = (
{
closed = 1;
nodes = (
"438 1354 OFFCURVE",
"322 737.003 OFFCURVE",
"322 505 CURVE",
"322 383.972 OFFCURVE",
"340 76 OFFCURVE",
"515 76 CURVE",
"813 76 OFFCURVE",
"912 712.773 OFFCURVE",
"912 939 CURVE",
"912 1059.7 OFFCURVE",
"926 1354 OFFCURVE",
"736 1354 CURVE"
);
},
{
closed = 1;
nodes = (
"104 964.124 OFFCURVE",
"347 1452 OFFCURVE",
"742 1452 CURVE",
"1022 1452 OFFCURVE",
"1110 1187.68 OFFCURVE",
"1110 902 CURVE",
"1110 486.562 OFFCURVE",
"889 -12 OFFCURVE",
"492 -12 CURVE",
"222 -12 OFFCURVE",
"104 251.032 OFFCURVE",
"104 552 CURVE"
);
}
);
width = 1203;
}
);
unicode = 0030;
},
{
glyphname = one;
lastChange = "2013-12-24 01:19:22 -0800";
layers = (
{
layerId = "DE4BB00D-BABA-4D36-9D9A-44FD0E91C3DF";
name = Regular;
paths = (
{
closed = 1;
nodes = (
"287 1322 OFFCURVE",
"377 1438 OFFCURVE",
"488 1438 CURVE",
"549 1438 OFFCURVE",
"592 1428 OFFCURVE",
"592 1372 CURVE",
"592 1281 OFFCURVE",
"429 499 OFFCURVE",
"339 32 CURVE",
"336 17 OFFCURVE",
"316 0 OFFCURVE",
"264 0 CURVE",
"215 0 OFFCURVE",
"140 8 OFFCURVE",
"152 66 CURVE",
"294 707 OFFCURVE",
"310 810 OFFCURVE",
"398 1281 CURVE",
"382 1264 OFFCURVE",
"241 1171 OFFCURVE",
"201 1171 CURVE",
"188 1171 OFFCURVE",
"176 1190 OFFCURVE",
"176 1208 CURVE",
"176 1227 OFFCURVE",
"200 1242 OFFCURVE",
"217 1261 CURVE"
);
}
);
width = 682;
}
);
unicode = 0031;
},
{
glyphname = two;
lastChange = "2013-12-24 01:33:49 -0800";
layers = (
{
background = {
paths = (
{
closed = 1;
nodes = (
"170 227 OFFCURVE",
"204 181 OFFCURVE",
"268 181 CURVE SMOOTH",
"317 181 OFFCURVE",
"378 221 OFFCURVE",
"425 290 CURVE",
"406 301 OFFCURVE",
"307 334 OFFCURVE",
"240 334 CURVE SMOOTH",
"193 334 OFFCURVE",
"170 303 OFFCURVE",
"170 269 CURVE SMOOTH"
);
},
{
closed = 1;
nodes = (
"1022 284 OFFCURVE",
"1030 257 OFFCURVE",
"1030 221 CURVE SMOOTH",
"1030 120 OFFCURVE",
"987.999 1 OFFCURVE",
"856 1 CURVE SMOOTH",
"744 1 OFFCURVE",
"659 76 OFFCURVE",
"590 131 CURVE",
"511 65 OFFCURVE",
"417 1 OFFCURVE",
"295 1 CURVE SMOOTH",
"136 1 OFFCURVE",
"-4 114 OFFCURVE",
"-4 276 CURVE SMOOTH",
"-4 420 OFFCURVE",
"90 520 OFFCURVE",
"236 520 CURVE SMOOTH",
"370 520 OFFCURVE",
"465 475 OFFCURVE",
"549 422 CURVE",
"631 511 OFFCURVE",
"710 720 OFFCURVE",
"710 891 CURVE SMOOTH",
"710 1025 OFFCURVE",
"658 1135 OFFCURVE",
"511 1135 CURVE SMOOTH",
"406 1135 OFFCURVE",
"320 1068 OFFCURVE",
"320 967.999 CURVE SMOOTH",
"320 892 OFFCURVE",
"368 896 OFFCURVE",
"368 840 CURVE SMOOTH",
"368 792 OFFCURVE",
"302 747 OFFCURVE",
"242 747 CURVE SMOOTH",
"126 747 OFFCURVE",
"82 832 OFFCURVE",
"82 960 CURVE SMOOTH",
"82 1187 OFFCURVE",
"316 1333 OFFCURVE",
"536 1333 CURVE SMOOTH",
"787 1333 OFFCURVE",
"968.999 1172 OFFCURVE",
"968.999 895 CURVE SMOOTH",
"968.999 649 OFFCURVE",
"835 422 OFFCURVE",
"725 276 CURVE",
"774 248 OFFCURVE",
"825 229 OFFCURVE",
"895 229 CURVE SMOOTH",
"942 229 OFFCURVE",
"959 284 OFFCURVE",
"994.999 284 CURVE SMOOTH"
);
}
);
};
layerId = "DE4BB00D-BABA-4D36-9D9A-44FD0E91C3DF";
name = Regular;
paths = (
{
closed = 1;
nodes = (
"142 182 OFFCURVE",
"172 134 OFFCURVE",
"255 134 CURVE",
"313 134 OFFCURVE",
"409 195 OFFCURVE",
"459 268 CURVE",
"393 308 OFFCURVE",
"350 334 OFFCURVE",
"240 334 CURVE",
"174 334 OFFCURVE",
"142 286 OFFCURVE",
"142 238 CURVE"
);
},
{
closed = 1;
nodes = (
"983 223 OFFCURVE",
"987 218 OFFCURVE",
"987 190 CURVE",
"987 96 OFFCURVE",
"951 0 OFFCURVE",
"843 0 CURVE",
"733 0 OFFCURVE",
"651 81 OFFCURVE",
"576 139 CURVE",
"493 68 OFFCURVE",
"404 0 OFFCURVE",
"282 0 CURVE",
"137 0 OFFCURVE",
"13 101 OFFCURVE",
"13 245 CURVE",
"13 373 OFFCURVE",
"94 472 OFFCURVE",
"223 472 CURVE",
"360 472 OFFCURVE",
"451 411 OFFCURVE",
"540 353 CURVE",
"632 433 OFFCURVE",
"751 733 OFFCURVE",
"751 921 CURVE",
"751 1066 OFFCURVE",
"692 1195 OFFCURVE",
"522 1195 CURVE",
"403 1195 OFFCURVE",
"301 1117 OFFCURVE",
"301 998 CURVE",
"301 861 OFFCURVE",
"349 938 OFFCURVE",
"349 870 CURVE",
"349 842 OFFCURVE",
"300 807 OFFCURVE",
"253 807 CURVE",
"159 807 OFFCURVE",
"123 874 OFFCURVE",
"123 990 CURVE",
"123 1197 OFFCURVE",
"340 1333 OFFCURVE",
"547 1333 CURVE",
"783 1333 OFFCURVE",
"964 1185 OFFCURVE",
"964 925 CURVE",
"964 673 OFFCURVE",
"780 380 OFFCURVE",
"668 237 CURVE",
"726 199 OFFCURVE",
"792 168 OFFCURVE",
"882 168 CURVE",
"951 168 OFFCURVE",
"968 223 OFFCURVE",
"982 223 CURVE"
);
}
);
width = 1101;
}
);
unicode = 0032;
},
{
glyphname = three;
lastChange = "2013-12-24 01:34:01 -0800";
layers = (
{
background = {
paths = (
{
closed = 1;
nodes = (
"253 531 OFFCURVE",
"306 464 OFFCURVE",
"306 392 CURVE SMOOTH",
"306 353 OFFCURVE",
"272 310 OFFCURVE",
"272 269 CURVE SMOOTH",
"272 212 OFFCURVE",
"387 167 OFFCURVE",
"479 167 CURVE SMOOTH",
"647 167 OFFCURVE",
"757 295 OFFCURVE",
"757 456 CURVE SMOOTH",
"757 607 OFFCURVE",
"686 751 OFFCURVE",
"510 751 CURVE SMOOTH",
"479 751 OFFCURVE",
"440 755 OFFCURVE",
"402 755 CURVE SMOOTH",
"359 755 OFFCURVE",
"325 778 OFFCURVE",
"325 812 CURVE SMOOTH",
"325 862 OFFCURVE",
"360 914 OFFCURVE",
"444 914 CURVE SMOOTH",
"601 914 OFFCURVE",
"732 1003 OFFCURVE",
"732 1119 CURVE SMOOTH",
"732 1185 OFFCURVE",
"701 1259 OFFCURVE",
"572 1259 CURVE SMOOTH",
"441 1259 OFFCURVE",
"345 1148 OFFCURVE",
"293 1148 CURVE SMOOTH",
"245 1148 OFFCURVE",
"210 1206 OFFCURVE",
"210 1247 CURVE SMOOTH",
"210 1372 OFFCURVE",
"440 1464 OFFCURVE",
"669 1464 CURVE SMOOTH",
"846 1464 OFFCURVE",
"1064 1382 OFFCURVE",
"1064 1165 CURVE SMOOTH",
"1064 987.999 OFFCURVE",
"966 892 OFFCURVE",
"818 845 CURVE",
"988.999 753 OFFCURVE",
"1088 637 OFFCURVE",
"1088 452 CURVE SMOOTH",
"1088 146 OFFCURVE",
"851 -18 OFFCURVE",
"500 -18 CURVE SMOOTH",
"209 -18 OFFCURVE",
"-1 138 OFFCURVE",
"-1 321 CURVE SMOOTH",
"-1 438 OFFCURVE",
"58 531 OFFCURVE",
"147 531 CURVE SMOOTH"
);
}
);
};
layerId = "DE4BB00D-BABA-4D36-9D9A-44FD0E91C3DF";
name = Regular;
paths = (
{
closed = 1;
nodes = (
"214 485 OFFCURVE",
"256 434 OFFCURVE",
"256 376 CURVE",
"256 347 OFFCURVE",
"222 304 OFFCURVE",
"222 253 CURVE",
"222 171 OFFCURVE",
"357 121 OFFCURVE",
"459 121 CURVE",
"645 121 OFFCURVE",
"815 264 OFFCURVE",
"815 440 CURVE",
"815 602 OFFCURVE",
"708.677 781 OFFCURVE",
"510 781 CURVE",
"480.534 781 OFFCURVE",
"441.534 785 OFFCURVE",
"402 785 CURVE",
"372.18 785 OFFCURVE",
"355 797.879 OFFCURVE",
"355 812 CURVE",
"355 848.854 OFFCURVE",
"379.967 884 OFFCURVE",
"444 884 CURVE",
"614.251 884 OFFCURVE",
"804 1037 OFFCURVE",
"804 1173 CURVE",
"804 1249 OFFCURVE",
"738 1321 OFFCURVE",
"585 1321 CURVE",
"444 1321 OFFCURVE",
"340 1210 OFFCURVE",
"306 1210 CURVE",
"279 1210 OFFCURVE",
"253 1250 OFFCURVE",
"253 1279 CURVE",
"253 1378 OFFCURVE",
"465 1466 OFFCURVE",
"682 1466 CURVE",
"849 1466 OFFCURVE",
"1047 1389 OFFCURVE",
"1047 1197 CURVE",
"1047 1008 OFFCURVE",
"912.463 888.542 OFFCURVE",
"731.42 854.351 CURVE",
"960 773 OFFCURVE",
"1038 632 OFFCURVE",
"1038 436 CURVE",
"1038 150 OFFCURVE",
"818 -4 OFFCURVE",
"480 -4 CURVE",
"203 -4 OFFCURVE",
"9 141 OFFCURVE",
"9 305 CURVE",
"9 409 OFFCURVE",
"58 485 OFFCURVE",
"127 485 CURVE"
);
}
);
width = 1129;
}
);
unicode = 0033;
},
{
glyphname = four;
lastChange = "2013-12-24 00:46:59 -0800";
layers = (
{
background = {
paths = (
{
closed = 1;
nodes = (
"693 65 OFFCURVE",
"785 28 OFFCURVE",
"785 -28 CURVE SMOOTH",
"785 -37 OFFCURVE",
"781 -38 OFFCURVE",
"770 -38 CURVE SMOOTH",
"714 -38 OFFCURVE",
"652 -45 OFFCURVE",
"597 -45 CURVE SMOOTH",
"508 -45 OFFCURVE",
"466 -18 OFFCURVE",
"466 71 CURVE SMOOTH",
"466 140 OFFCURVE",
"485 210 OFFCURVE",
"501 273 CURVE",
"347 273 OFFCURVE",
"259 192 OFFCURVE",
"120 192 CURVE SMOOTH",
"96 192 OFFCURVE",
"86 212 OFFCURVE",
"86 237 CURVE SMOOTH",
"86 287 OFFCURVE",
"119 335 OFFCURVE",
"144 372 CURVE",
"218 565 OFFCURVE",
"262 764 OFFCURVE",
"313 991.999 CURVE SMOOTH",
"325 1044 OFFCURVE",
"430 1052 OFFCURVE",
"499 1052 CURVE SMOOTH",
"535 1052 OFFCURVE",
"622 1050 OFFCURVE",
"622 1019 CURVE SMOOTH",
"622 779 OFFCURVE",
"497 587 OFFCURVE",
"411 394 CURVE",
"454 392 OFFCURVE",
"483 391 OFFCURVE",
"522 391 CURVE SMOOTH",
"535 391 LINE",
"560 472 OFFCURVE",
"590 555 OFFCURVE",
"612 633 CURVE SMOOTH",
"628 691 OFFCURVE",
"686 730 OFFCURVE",
"756 730 CURVE SMOOTH",
"807 730 OFFCURVE",
"836 718 OFFCURVE",
"836 674 CURVE SMOOTH",
"836 583 OFFCURVE",
"785 493 OFFCURVE",
"759 414 CURVE",
"812 423 OFFCURVE",
"865 437 OFFCURVE",
"917 437 CURVE SMOOTH",
"936 437 OFFCURVE",
"941 418 OFFCURVE",
"941 397 CURVE SMOOTH",
"941 341 OFFCURVE",
"928 264 OFFCURVE",
"881 264 CURVE SMOOTH",
"826 264 OFFCURVE",
"771 267 OFFCURVE",
"715 269 CURVE",
"706 231 OFFCURVE",
"696 190 OFFCURVE",
"693 149 CURVE",
"693 130 LINE SMOOTH"
);
}
);
};
layerId = "DE4BB00D-BABA-4D36-9D9A-44FD0E91C3DF";
name = Regular;
paths = (
{
closed = 1;
nodes = (
"663 54 OFFCURVE",
"703 18 OFFCURVE",
"686 3 CURVE",
"676 -4 OFFCURVE",
"650 -4 OFFCURVE",
"597 -4 CURVE",
"521 -4 OFFCURVE",
"496 13 OFFCURVE",
"496 82 CURVE",
"496 159 OFFCURVE",
"511 188 OFFCURVE",
"528 261 CURVE",
"296 261 OFFCURVE",
"120 192 OFFCURVE",
"116 237 CURVE",
"116 278.723 OFFCURVE",
"257 486 OFFCURVE",
"342.277 985.45 CURVE",
"348.376 1011.88 OFFCURVE",
"435.138 1022 OFFCURVE",
"499 1022 CURVE",
"551 1022 OFFCURVE",
"558 993 OFFCURVE",
"558 953 CURVE",
"539 763 OFFCURVE",
"464 559 OFFCURVE",
"366.322 366.112 CURVE",
"445 381 OFFCURVE",
"505 384 OFFCURVE",
"557 384 CURVE",
"583 471 OFFCURVE",
"616.617 538.854 OFFCURVE",
"640.873 624.856 CURVE",
"652.902 668.457 OFFCURVE",
"699.144 700 OFFCURVE",
"756 700 CURVE",
"797.046 700 OFFCURVE",
"806 693.974 OFFCURVE",
"806 674 CURVE",
"806 575.43 OFFCURVE",
"738 482 OFFCURVE",
"718 387 CURVE",
"813 396 OFFCURVE",
"911 382 OFFCURVE",
"911 359 CURVE",
"911 310 OFFCURVE",
"902 248 OFFCURVE",
"861 257 CURVE",
"806 267 OFFCURVE",
"743 269 OFFCURVE",
"678 266 CURVE",
"673 243 OFFCURVE",
"668 231 OFFCURVE",
"663 141 CURVE"
);
}
);
width = 927;
}
);
unicode = 0034;
},
{
glyphname = five;
lastChange = "2013-12-24 01:38:53 -0800";
layers = (
{
background = {
paths = (
{
closed = 1;
nodes = (
"1029 155 OFFCURVE",
"769 0 OFFCURVE",
"489 0 CURVE SMOOTH",
"291 0 OFFCURVE",
"70 119 OFFCURVE",
"70 361 CURVE SMOOTH",
"70 484 OFFCURVE",
"121 539 OFFCURVE",
"239 539 CURVE SMOOTH",
"276 539 OFFCURVE",
"369 522 OFFCURVE",
"369 459 CURVE SMOOTH",
"369 414 OFFCURVE",
"300 413 OFFCURVE",
"300 298 CURVE SMOOTH",
"300 199 OFFCURVE",
"374 164 OFFCURVE",
"482 164 CURVE SMOOTH",
"576 164 OFFCURVE",
"713 243 OFFCURVE",
"713 399 CURVE SMOOTH",
"713 622 OFFCURVE",
"561 663 OFFCURVE",
"343 690 CURVE SMOOTH",
"258 700 OFFCURVE",
"238 720 OFFCURVE",
"238 840 CURVE",
"237 1153 OFFCURVE",
"240 1393 OFFCURVE",
"354 1393 CURVE SMOOTH",
"558 1393 OFFCURVE",
"622 1345 OFFCURVE",
"795 1345 CURVE SMOOTH",
"866 1345 OFFCURVE",
"962 1361 OFFCURVE",
"1003 1401 CURVE",
"1018 1419 OFFCURVE",
"1087 1375 OFFCURVE",
"1087 1263 CURVE SMOOTH",
"1087 1127 OFFCURVE",
"930 1080 OFFCURVE",
"756 1087 CURVE",
"580 1101 OFFCURVE",
"594 1129 OFFCURVE",
"380 1125 CURVE",
"373 1042 OFFCURVE",
"380 968 OFFCURVE",
"403 869 CURVE",
"687 895 OFFCURVE",
"1029 881 OFFCURVE",
"1029 465 CURVE SMOOTH"
);
}
);
};
layerId = "DE4BB00D-BABA-4D36-9D9A-44FD0E91C3DF";
name = Regular;
paths = (
{
closed = 1;
nodes = (
"999 171 OFFCURVE",
"757 0 OFFCURVE",
"489 0 CURVE",
"303 0 OFFCURVE",
"100 111 OFFCURVE",
"100 331 CURVE",
"100 438 OFFCURVE",
"138 479 OFFCURVE",
"239 479 CURVE",
"271 479 OFFCURVE",
"339 465 OFFCURVE",
"339 429 CURVE",
"339 388 OFFCURVE",
"270 429 OFFCURVE",
"270 268 CURVE",
"270 146 OFFCURVE",
"363 104 OFFCURVE",
"482 104 CURVE",
"588 104 OFFCURVE",
"806 206 OFFCURVE",
"806 437 CURVE",
"806 715 OFFCURVE",
"566.779 692.514 OFFCURVE",
"346.687 719.773 CURVE",
"254 728 OFFCURVE",
"246 736 OFFCURVE",
"246 840 CURVE",
"251 1174 OFFCURVE",
"260 1390 OFFCURVE",
"338 1390 CURVE",
"532 1390 OFFCURVE",
"618 1342 OFFCURVE",
"801 1342 CURVE",
"876 1342 OFFCURVE",
"967 1356 OFFCURVE",
"1014 1403 CURVE",
"1025 1415 OFFCURVE",
"1063 1392 OFFCURVE",
"1063 1290 CURVE",
"1063 1181 OFFCURVE",
"929 1168 OFFCURVE",
"764 1174 CURVE",
"702 1179 OFFCURVE",
"561 1230 OFFCURVE",
"373 1222 CURVE",
"361 1119 OFFCURVE",
"363 961 OFFCURVE",
"394 837 CURVE",
"683 865 OFFCURVE",
"999 859 OFFCURVE",
"999 460 CURVE"
);
}
);
width = 1157;
}
);
unicode = 0035;
},
{
glyphname = six;
lastChange = "2013-12-24 01:39:07 -0800";
layers = (
{
background = {
paths = (
{
closed = 1;
nodes = (
"818 642 OFFCURVE",
"753 717 OFFCURVE",
"623 717 CURVE SMOOTH",
"431 717 OFFCURVE",
"366 602 OFFCURVE",
"366 425 CURVE SMOOTH",
"366 288 OFFCURVE",
"414 156 OFFCURVE",
"556 156 CURVE SMOOTH",
"722 156 OFFCURVE",
"818 352 OFFCURVE",
"818 516 CURVE SMOOTH"
);
},
{
closed = 1;
nodes = (
"533 842 OFFCURVE",
"627 895 OFFCURVE",
"769 895 CURVE SMOOTH",
"957 895 OFFCURVE",
"1113 738 OFFCURVE",
"1113 497 CURVE SMOOTH",
"1113 184 OFFCURVE",
"860 -31 OFFCURVE",
"551 -31 CURVE SMOOTH",
"263 -31 OFFCURVE",
"82 156 OFFCURVE",
"82 474 CURVE SMOOTH",
"82 992.999 OFFCURVE",
"481 1326 OFFCURVE",
"832 1496 CURVE SMOOTH",
"862 1510 OFFCURVE",
"887 1521 OFFCURVE",
"921 1521 CURVE SMOOTH",
"983.999 1521 OFFCURVE",
"1028 1487 OFFCURVE",
"1028 1436 CURVE SMOOTH",
"1028 1387 OFFCURVE",
"998.999 1353 OFFCURVE",
"958 1328 CURVE SMOOTH",
"735 1197 OFFCURVE",
"573 1019 OFFCURVE",
"456 786 CURVE"
);
}
);
};
layerId = "DE4BB00D-BABA-4D36-9D9A-44FD0E91C3DF";
name = Regular;
paths = (
{
closed = 1;
nodes = (
"848 638 OFFCURVE",
"770.727 747 OFFCURVE",
"623 747 CURVE",
"379 747 OFFCURVE",
"306 595 OFFCURVE",
"306 406 CURVE",
"306 262 OFFCURVE",
"391 97 OFFCURVE",
"556 97 CURVE",
"745 97 OFFCURVE",
"848 322 OFFCURVE",
"848 497 CURVE"
);
},
{
closed = 1;
nodes = (
"481 842 OFFCURVE",
"623 879 OFFCURVE",
"757 879 CURVE",
"944 879 OFFCURVE",
"1083 703 OFFCURVE",
"1083 478 CURVE",
"1083 183 OFFCURVE",
"845 -30 OFFCURVE",
"551 -30 CURVE",
"280 -30 OFFCURVE",
"112 153 OFFCURVE",
"112 455 CURVE",
"112 958 OFFCURVE",
"524 1325 OFFCURVE",
"870 1493 CURVE",
"900 1507 OFFCURVE",
"918 1515 OFFCURVE",
"946 1515 CURVE",
"995 1515 OFFCURVE",
"1023 1492 OFFCURVE",
"1023 1460 CURVE",
"1023 1424 OFFCURVE",
"1003 1399 OFFCURVE",
"968 1377 CURVE",
"706 1224 OFFCURVE",
"476 976 OFFCURVE",
"390 767 CURVE"
);
}
);
width = 1166;
}
);
unicode = 0036;
},
{
glyphname = seven;
lastChange = "2013-12-24 00:53:18 -0800";
layers = (
{
background = {
paths = (
{
closed = 1;
nodes = (
"335 1159 LINE SMOOTH",
"262 1159 OFFCURVE",
"291 1024 OFFCURVE",
"214 1024 CURVE SMOOTH",
"172 1024 OFFCURVE",
"146 1083 OFFCURVE",
"146 1155 CURVE SMOOTH",
"146 1273 OFFCURVE",
"191 1379 OFFCURVE",
"272 1379 CURVE SMOOTH",
"464 1379 OFFCURVE",
"573 1333 OFFCURVE",
"787 1333 CURVE SMOOTH",
"829 1333 OFFCURVE",
"921 1343 OFFCURVE",
"944 1343 CURVE SMOOTH",
"993.999 1343 OFFCURVE",
"1010 1304 OFFCURVE",
"1010 1252 CURVE SMOOTH",
"1010 1181 OFFCURVE",
"929 1159 OFFCURVE",
"913 1131 CURVE",
"705 800 OFFCURVE",
"548 470 OFFCURVE",
"410 50 CURVE SMOOTH",
"384 -29 OFFCURVE",
"311 -56 OFFCURVE",
"231 -56 CURVE SMOOTH",
"168 -56 OFFCURVE",
"107 -18 OFFCURVE",
"107 49 CURVE SMOOTH",
"107 271 OFFCURVE",
"477 866 OFFCURVE",
"667 1159 CURVE"
);
}
);
};
layerId = "DE4BB00D-BABA-4D36-9D9A-44FD0E91C3DF";
name = Regular;
paths = (
{
closed = 1;
nodes = (
"350 1219 LINE",
"236 1219 OFFCURVE",
"273 1084 OFFCURVE",
"229 1084 CURVE",
"212 1084 OFFCURVE",
"191 1126 OFFCURVE",
"191 1185 CURVE",
"191 1293 OFFCURVE",
"230 1379 OFFCURVE",
"287 1379 CURVE",
"473 1379 OFFCURVE",
"582 1333 OFFCURVE",
"802 1333 CURVE",
"846 1333 OFFCURVE",
"938 1343 OFFCURVE",
"959 1343 CURVE",
"985 1343 OFFCURVE",
"995 1324 OFFCURVE",
"995 1282 CURVE",
"995 1228 OFFCURVE",
"928 1221 OFFCURVE",
"903 1177 CURVE",
"694 845 OFFCURVE",
"509 455 OFFCURVE",
"371 34 CURVE",
"350 -29 OFFCURVE",
"293 -52 OFFCURVE",
"220 -52 CURVE",
"170 -52 OFFCURVE",
"126 -23 OFFCURVE",
"126 23 CURVE",
"126 247 OFFCURVE",
"561 950 OFFCURVE",
"738 1219 CURVE"
);
}
);
width = 926;
}
);
unicode = 0037;
},
{
glyphname = eight;
lastChange = "2013-12-24 00:53:56 -0800";
layers = (
{
background = {
paths = (
{
closed = 1;
nodes = (
"391 554 OFFCURVE",
"290 486 OFFCURVE",
"290 328 CURVE SMOOTH",
"290 256 OFFCURVE",
"332 191 OFFCURVE",
"400 191 CURVE SMOOTH",
"513 191 OFFCURVE",
"579 275 OFFCURVE",
"579 390 CURVE SMOOTH",
"579 489 OFFCURVE",
"533 552 OFFCURVE",
"489 606 CURVE"
);
},
{
closed = 1;
nodes = (
"420 994.999 OFFCURVE",
"462 919 OFFCURVE",
"511 872 CURVE",
"592 917 OFFCURVE",
"705 1021 OFFCURVE",
"705 1125 CURVE SMOOTH",
"705 1223 OFFCURVE",
"647 1272 OFFCURVE",
"577 1272 CURVE SMOOTH",
"486 1272 OFFCURVE",
"420 1198 OFFCURVE",
"420 1081 CURVE SMOOTH"
);
},
{
closed = 1;
nodes = (
"219 -16 OFFCURVE",
"51 75 OFFCURVE",
"51 305 CURVE SMOOTH",
"51 559 OFFCURVE",
"205 678 OFFCURVE",
"348 775 CURVE",
"251 839 OFFCURVE",
"179 942 OFFCURVE",
"179 1083 CURVE SMOOTH",
"179 1333 OFFCURVE",
"399 1450 OFFCURVE",
"624 1450 CURVE SMOOTH",
"785 1450 OFFCURVE",
"953 1382 OFFCURVE",
"953 1192 CURVE SMOOTH",
"953 934 OFFCURVE",
"796 821 OFFCURVE",
"625 735 CURVE",
"735 645 OFFCURVE",
"874 534 OFFCURVE",
"874 332 CURVE SMOOTH",
"874 106 OFFCURVE",
"682 -16 OFFCURVE",
"447 -16 CURVE SMOOTH"
);
}
);
};
layerId = "DE4BB00D-BABA-4D36-9D9A-44FD0E91C3DF";
name = Regular;
paths = (
{
closed = 1;
nodes = (
"393.323 590.773 OFFCURVE",
"260 501 OFFCURVE",
"260 314 CURVE",
"260 229 OFFCURVE",
"312 131 OFFCURVE",
"400 131 CURVE",
"532 131 OFFCURVE",
"609 247 OFFCURVE",
"609 376 CURVE",
"609 498 OFFCURVE",
"543.521 586.909 OFFCURVE",
"496.729 643.849 CURVE"
);
},
{
closed = 1;
nodes = (
"403 994 OFFCURVE",
"448.35 882.674 OFFCURVE",
"506.509 836.027 CURVE",
"589.135 874.321 OFFCURVE",
"748 1015 OFFCURVE",
"748 1141 CURVE",
"748 1257 OFFCURVE",
"675 1330 OFFCURVE",
"590 1330 CURVE",
"482 1330 OFFCURVE",
"403 1229 OFFCURVE",
"403 1097 CURVE"
);
},
{
closed = 1;
nodes = (
"231 -16 OFFCURVE",
"81 83 OFFCURVE",
"81 291 CURVE",
"81 552 OFFCURVE",
"250.077 672.864 OFFCURVE",
"404.296 776.761 CURVE",
"293.665 834.003 OFFCURVE",
"222 951 OFFCURVE",
"222 1099 CURVE",
"222 1327 OFFCURVE",
"424 1448 OFFCURVE",
"637 1448 CURVE",
"788 1448 OFFCURVE",
"936 1374 OFFCURVE",
"936 1208 CURVE",
"936 948 OFFCURVE",
"753.975 829.443 OFFCURVE",
"570.084 741.528 CURVE",
"686.092 643.34 OFFCURVE",
"844 526 OFFCURVE",
"844 318 CURVE",
"844 112 OFFCURVE",
"669 -16 OFFCURVE",
"447 -16 CURVE"
);
}
);
width = 967;
}
);
unicode = 0038;
},
{
glyphname = nine;
lastChange = "2013-12-24 01:39:33 -0800";
layers = (
{
background = {
paths = (
{
closed = 1;
nodes = (
"391 748 OFFCURVE",
"456 673 OFFCURVE",
"586 673 CURVE SMOOTH",
"778 673 OFFCURVE",
"843 788 OFFCURVE",
"843 965 CURVE SMOOTH",
"843 1102 OFFCURVE",
"795 1234 OFFCURVE",
"653 1234 CURVE SMOOTH",
"487 1234 OFFCURVE",
"391 1038 OFFCURVE",
"391 874 CURVE SMOOTH"
);
},
{
closed = 1;
nodes = (
"676 548 OFFCURVE",
"582 495 OFFCURVE",
"440 495 CURVE SMOOTH",
"252 495 OFFCURVE",
"96 652 OFFCURVE",
"96 893 CURVE SMOOTH",
"96 1206 OFFCURVE",
"349 1421 OFFCURVE",
"658 1421 CURVE SMOOTH",
"946 1421 OFFCURVE",
"1127 1234 OFFCURVE",
"1127 916 CURVE SMOOTH",
"1127 397 OFFCURVE",
"728 64 OFFCURVE",
"377 -106 CURVE SMOOTH",
"347 -120 OFFCURVE",
"322 -131 OFFCURVE",
"288 -131 CURVE SMOOTH",
"225 -131 OFFCURVE",
"181 -97 OFFCURVE",
"181 -46 CURVE SMOOTH",
"181 3 OFFCURVE",
"210 37 OFFCURVE",
"251 62 CURVE SMOOTH",
"474 193 OFFCURVE",
"636 371 OFFCURVE",
"753 604 CURVE"
);
}
);
};
layerId = "DE4BB00D-BABA-4D36-9D9A-44FD0E91C3DF";
name = Regular;
paths = (
{
closed = 1;
nodes = (
"361 748 OFFCURVE",
"411 625 OFFCURVE",
"559 625 CURVE",
"806 614 OFFCURVE",
"907 781 OFFCURVE",
"907 970 CURVE",
"907 1167 OFFCURVE",
"818 1294 OFFCURVE",
"653 1294 CURVE",
"464 1294 OFFCURVE",
"361 1065 OFFCURVE",
"361 890 CURVE"
);
},
{
closed = 1;
nodes = (
"734 511 OFFCURVE",
"564 504 OFFCURVE",
"464 504 CURVE",
"293 504 OFFCURVE",
"126 684 OFFCURVE",
"126 909 CURVE",
"126 1204 OFFCURVE",
"364 1421 OFFCURVE",
"658 1421 CURVE",
"929 1421 OFFCURVE",
"1097 1233 OFFCURVE",
"1097 932 CURVE",
"1097 429 OFFCURVE",
"695 64 OFFCURVE",
"349 -104 CURVE",
"320 -117 OFFCURVE",
"301 -126 OFFCURVE",
"273 -126 CURVE",
"225 -126 OFFCURVE",
"196 -103 OFFCURVE",
"196 -71 CURVE",
"196 -35 OFFCURVE",
"217 -10 OFFCURVE",
"252 12 CURVE",
"513 165 OFFCURVE",
"745 371 OFFCURVE",
"865 637 CURVE"
);
}
);
width = 1209;
}
);
unicode = 0039;
},
{
glyphname = colon;
lastChange = "2013-12-24 00:56:01 -0800";
layers = (
{
layerId = "DE4BB00D-BABA-4D36-9D9A-44FD0E91C3DF";
name = Regular;
paths = (
{
closed = 1;
nodes = (
"350 232 OFFCURVE",
"404 293 OFFCURVE",
"503 293 CURVE",
"595 293 OFFCURVE",
"642 250 OFFCURVE",
"642 161 CURVE",
"642 62 OFFCURVE",
"586 0 OFFCURVE",
"484 0 CURVE",
"394 0 OFFCURVE",
"350 42 OFFCURVE",
"350 132 CURVE"
);
},
{
closed = 1;
nodes = (
"410 900 OFFCURVE",
"464 961 OFFCURVE",
"563 961 CURVE",
"655 961 OFFCURVE",
"702 918 OFFCURVE",
"702 829 CURVE",
"702 730 OFFCURVE",
"646 668 OFFCURVE",
"544 668 CURVE",
"454 668 OFFCURVE",
"410 710 OFFCURVE",
"410 800 CURVE"
);
}
);
width = 704;
}
);
unicode = 003A;
},
{
glyphname = semicolon;
lastChange = "2013-12-24 00:56:28 -0800";
layers = (
{
layerId = "DE4BB00D-BABA-4D36-9D9A-44FD0E91C3DF";
name = Regular;
paths = (
{
closed = 1;
nodes = (
"410 933.793 OFFCURVE",
"463.679 995 OFFCURVE",
"563 995 CURVE",
"655.319 995 OFFCURVE",
"702 951.817 OFFCURVE",
"702 863 CURVE",
"702 763.585 OFFCURVE",
"645.719 702 OFFCURVE",
"544 702 CURVE",
"453.961 702 OFFCURVE",
"410 743.894 OFFCURVE",
"410 834 CURVE"
);
},
{
closed = 1;
nodes = (
"641 152.913 OFFCURVE",
"456.787 -161 OFFCURVE",
"368 -161 CURVE",
"337.152 -161 OFFCURVE",
"317 -141 OFFCURVE",
"317 -109 CURVE",
"317 4.39614 OFFCURVE",
"374.839 153.814 OFFCURVE",
"404.692 225.462 CURVE",
"421.737 267.297 OFFCURVE",
"457.914 291 OFFCURVE",
"514 291 CURVE",
"581 291 OFFCURVE",
"641 259.358 OFFCURVE",
"641 205 CURVE"
);
}
);
width = 768;
}
);
unicode = 003B;
},
{
glyphname = less;
lastChange = "2013-12-24 01:03:03 -0800";
layers = (
{
background = {
paths = (
{
closed = 1;
nodes = (
"969 351 OFFCURVE",
"1039 287 OFFCURVE",
"1039 205 CURVE SMOOTH",
"1039 153 OFFCURVE",
"991.999 126 OFFCURVE",
"936 126 CURVE SMOOTH",
"761 126 OFFCURVE",
"58 372 OFFCURVE",
"58 626 CURVE SMOOTH",
"58 798 OFFCURVE",
"274 827 OFFCURVE",
"394 880 CURVE SMOOTH",
"576 960 OFFCURVE",
"785 1055 OFFCURVE",
"979.999 1118 CURVE",
"1070 1145 OFFCURVE",
"1134 1062 OFFCURVE",
"1134 962 CURVE SMOOTH",
"1134 907 OFFCURVE",
"1100 885 OFFCURVE",
"1056 872 CURVE SMOOTH",
"254 613 LINE",
"909 373 LINE SMOOTH"
);
}
);
};
layerId = "DE4BB00D-BABA-4D36-9D9A-44FD0E91C3DF";
name = Regular;
paths = (
{
closed = 1;
nodes = (
"987.291 325.774 OFFCURVE",
"1009 277.142 OFFCURVE",
"1009 205 CURVE",
"1009 174.351 OFFCURVE",
"980.002 156 OFFCURVE",
"936 156 CURVE",
"771.929 156 OFFCURVE",
"69.3262 399.782 OFFCURVE",
"87.8972 623.518 CURVE",
"95.8798 720.906 OFFCURVE",
"421.171 854.227 OFFCURVE",
"989.979 1089.66 CURVE",
"1055.69 1108.34 OFFCURVE",
"1104 1047.19 OFFCURVE",
"1104 962 CURVE",
"1104 924.028 OFFCURVE",
"1099.52 918.129 OFFCURVE",
"1046.51 900.46 CURVE",
"976.208 877.025 OFFCURVE",
"198.35 681.665 OFFCURVE",
"228.39 622.884 CURVE",
"168.09 589.203 OFFCURVE",
"674.465 391.718 OFFCURVE",
"902.82 343.644 CURVE"
);
},
{
closed = 0;
nodes = (
"1422 970 LINE"
);
}
);
width = 1184;
}
);
unicode = 003C;
},
{
glyphname = equal;
lastChange = "2013-12-24 01:03:26 -0800";
layers = (
{
layerId = "DE4BB00D-BABA-4D36-9D9A-44FD0E91C3DF";
name = Regular;
paths = (
{
closed = 1;
nodes = (
"518 317 LINE",
"421.794 317 OFFCURVE",
"379 342.621 OFFCURVE",
"379 415 CURVE",
"379 475.369 OFFCURVE",
"481.632 485.853 OFFCURVE",
"589.662 481.03 CURVE",
"859.165 468.963 OFFCURVE",
"1092.84 482 OFFCURVE",
"1208 482 CURVE",
"1539 482 LINE",
"1577.51 482 OFFCURVE",
"1591 473.703 OFFCURVE",
"1591 450 CURVE",
"1591 346.32 OFFCURVE",
"1502.6 317 OFFCURVE",
"1312 317 CURVE"
);
},
{
closed = 1;
nodes = (
"535 744 LINE",
"477 743 OFFCURVE",
"432 780 OFFCURVE",
"432 836 CURVE",
"432 917 OFFCURVE",
"535 932 OFFCURVE",
"643 929 CURVE",
"904 922 LINE",
"1257 914 OFFCURVE",
"1436 975 OFFCURVE",
"1602 937 CURVE",
"1628 931 OFFCURVE",
"1644 918 OFFCURVE",
"1644 861 CURVE",
"1644 788 OFFCURVE",
"1555 760 OFFCURVE",
"1427 758 CURVE"
);
}
);
width = 1707;
}
);
unicode = 003D;
},
{
glyphname = greater;
lastChange = "2013-12-24 01:02:46 -0800";
layers = (
{
layerId = "DE4BB00D-BABA-4D36-9D9A-44FD0E91C3DF";
name = Regular;
paths = (
{
closed = 1;
nodes = (
"193.684 309.715 OFFCURVE",
"193 259.795 OFFCURVE",
"193 185 CURVE",
"193 153.676 OFFCURVE",
"221.738 136 OFFCURVE",
"266 136 CURVE",
"377.844 136 OFFCURVE",
"481.525 196.877 OFFCURVE",
"578.358 237.649 CURVE",
"788.255 326.184 OFFCURVE",
"1104 441.158 OFFCURVE",
"1104 626 CURVE",
"1104 759 OFFCURVE",
"884 811 OFFCURVE",
"598.613 929.245 CURVE",
"494.305 972.194 OFFCURVE",
"360.47 1055 OFFCURVE",
"248 1055 CURVE",
"193.221 1055 OFFCURVE",
"168 990.863 OFFCURVE",
"168 922 CURVE",
"168 884.772 OFFCURVE",
"176.68 877.323 OFFCURVE",
"225.796 860.356 CURVE",
"284.119 840.208 OFFCURVE",
"923.803 683.135 OFFCURVE",
"977.942 616.508 CURVE",
"980.535 493.057 OFFCURVE",
"359.769 352.882 OFFCURVE",
"248.549 323.965 CURVE"
);
}
);
width = 1184;
}
);
unicode = 003E;
},
{
glyphname = question;
lastChange = "2013-12-24 01:04:44 -0800";
layers = (
{
background = {
paths = (
{
closed = 1;
nodes = (
"394 277 OFFCURVE",
"460 353 OFFCURVE",
"577 353 CURVE SMOOTH",
"685 353 OFFCURVE",
"746 297 OFFCURVE",
"746 191 CURVE SMOOTH",
"746 76 OFFCURVE",
"677 0 OFFCURVE",
"558 0 CURVE SMOOTH",
"452 0 OFFCURVE",
"394 55 OFFCURVE",
"394 162 CURVE SMOOTH"
);
},
{
closed = 1;
nodes = (
"409 1512 OFFCURVE",
"642 1602 OFFCURVE",
"783 1602 CURVE SMOOTH",
"990.999 1602 OFFCURVE",
"1161 1476 OFFCURVE",
"1161 1264 CURVE SMOOTH",
"1161 933 OFFCURVE",
"951 848 OFFCURVE",
"785 686 CURVE SMOOTH",
"755 657 OFFCURVE",
"727 624 OFFCURVE",
"711 584 CURVE SMOOTH",
"692 536 OFFCURVE",
"664 486 OFFCURVE",
"608 486 CURVE SMOOTH",
"562 486 OFFCURVE",
"520 504 OFFCURVE",
"520 550 CURVE SMOOTH",
"520 854 OFFCURVE",
"782 917 OFFCURVE",
"888 1116 CURVE SMOOTH",
"908 1153 OFFCURVE",
"917 1196 OFFCURVE",
"917 1245 CURVE SMOOTH",
"917 1344 OFFCURVE",
"845 1399 OFFCURVE",
"747 1399 CURVE SMOOTH",
"626 1399 OFFCURVE",
"625 1240 OFFCURVE",
"511 1240 CURVE SMOOTH",
"448 1240 OFFCURVE",
"409 1306 OFFCURVE",
"409 1370 CURVE SMOOTH"
);
}
);
};
layerId = "DE4BB00D-BABA-4D36-9D9A-44FD0E91C3DF";
name = Regular;
paths = (
{
closed = 1;
nodes = (
"424 232 OFFCURVE",
"478 293 OFFCURVE",
"577 293 CURVE",
"669 293 OFFCURVE",
"716 250 OFFCURVE",
"716 161 CURVE",
"716 62 OFFCURVE",
"660 0 OFFCURVE",
"558 0 CURVE",
"468 0 OFFCURVE",
"424 42 OFFCURVE",
"424 132 CURVE"
);
},
{
closed = 1;
nodes = (
"449 1526 OFFCURVE",
"652 1602 OFFCURVE",
"783 1602 CURVE",
"977 1602 OFFCURVE",
"1131 1456.89 OFFCURVE",
"1131 1264 CURVE",
"1131 842 OFFCURVE",
"776 799 OFFCURVE",
"677 551 CURVE",
"659 507 OFFCURVE",
"638 472 OFFCURVE",
"602 472 CURVE",
"566 472 OFFCURVE",
"544 484 OFFCURVE",
"544 506 CURVE",
"544 899 OFFCURVE",
"972 983 OFFCURVE",
"972 1257 CURVE",
"972 1374 OFFCURVE",
"894 1457 OFFCURVE",
"782 1457 CURVE",
"627 1457 OFFCURVE",
"599.236 1270 OFFCURVE",
"511 1270 CURVE",
"469.111 1270 OFFCURVE",
"439 1318.2 OFFCURVE",
"439 1370 CURVE"
);
}
);
width = 1292;
}
);
unicode = 003F;
},
{
glyphname = at;
lastChange = "2013-12-24 01:07:51 -0800";
layers = (
{
background = {
paths = (
{
closed = 1;
nodes = (
"1398 -330 OFFCURVE",
"1159 -362 OFFCURVE",
"896 -362 CURVE SMOOTH",
"461 -362 OFFCURVE",
"112 -208 OFFCURVE",
"112 215 CURVE SMOOTH",
"112 961 OFFCURVE",
"743 1568 OFFCURVE",
"1344 1568 CURVE SMOOTH",
"1804 1568 OFFCURVE",
"2138 1333 OFFCURVE",
"2138 870 CURVE SMOOTH",
"2138 389 OFFCURVE",
"1767 54 OFFCURVE",
"1475 54 CURVE SMOOTH",
"1330 54 OFFCURVE",
"1342 235 OFFCURVE",
"1363 345 CURVE",
"1290 196 OFFCURVE",
"1161 32 OFFCURVE",
"950 32 CURVE SMOOTH",
"746 32 OFFCURVE",
"620 170 OFFCURVE",
"620 378 CURVE SMOOTH",
"620 776 OFFCURVE",
"907 1094 OFFCURVE",
"1202 1202 CURVE SMOOTH",
"1341 1253 OFFCURVE",
"1557 1256 OFFCURVE",
"1557 1194 CURVE SMOOTH",
"1557 1189 OFFCURVE",
"1557 1184 OFFCURVE",
"1556 1179 CURVE",
"1604 1179 OFFCURVE",
"1706 1209 OFFCURVE",
"1706 1018 CURVE SMOOTH",
"1706 754 OFFCURVE",
"1548 452 OFFCURVE",
"1548 340 CURVE SMOOTH",
"1548 313 OFFCURVE",
"1555 289 OFFCURVE",
"1580 289 CURVE SMOOTH",
"1784 289 OFFCURVE",
"1888 628 OFFCURVE",
"1888 832 CURVE SMOOTH",
"1888 1190 OFFCURVE",
"1696 1376 OFFCURVE",
"1344 1376 CURVE SMOOTH",
"737 1376 OFFCURVE",
"400 669 OFFCURVE",
"400 261 CURVE SMOOTH",
"400 -51 OFFCURVE",
"668 -128 OFFCURVE",
"991.999 -128 CURVE SMOOTH",
"1290 -128 OFFCURVE",
"1537 -83 OFFCURVE",
"1733 7 CURVE SMOOTH",
"1794 35 OFFCURVE",
"1839 4 OFFCURVE",
"1839 -75 CURVE SMOOTH",
"1839 -189 OFFCURVE",
"1683 -224 OFFCURVE",
"1598 -256 CURVE SMOOTH"
);
},
{
closed = 1;
nodes = (
"886 395 OFFCURVE",
"871 227 OFFCURVE",
"1027 227 CURVE SMOOTH",
"1206 227 OFFCURVE",
"1313 434 OFFCURVE",
"1355 578 CURVE SMOOTH",
"1486 1029 LINE",
"1229 1093 OFFCURVE",
"1010 875 OFFCURVE",
"916 512 CURVE SMOOTH"
);
}
);
};
layerId = "DE4BB00D-BABA-4D36-9D9A-44FD0E91C3DF";
name = Regular;
paths = (
{
closed = 1;
nodes = (
"1399 -327 OFFCURVE",
"1159 -360 OFFCURVE",
"890 -360 CURVE",
"452 -360 OFFCURVE",
"112 -207 OFFCURVE",
"112 205 CURVE",
"112 956 OFFCURVE",
"748 1567 OFFCURVE",
"1351 1567 CURVE",
"1811 1567 OFFCURVE",
"2138 1337 OFFCURVE",
"2138 880 CURVE",
"2138 401 OFFCURVE",
"1770 69 OFFCURVE",
"1486 69 CURVE",
"1371 69 OFFCURVE",
"1380 223 OFFCURVE",
"1401 333 CURVE",
"1343 352 LINE",
"1270 203 OFFCURVE",
"1145 47 OFFCURVE",
"945 47 CURVE",
"753 47 OFFCURVE",
"636 174 OFFCURVE",
"636 373 CURVE",
"636 766 OFFCURVE",
"922 1086 OFFCURVE",
"1216 1193 CURVE",
"1318 1231 OFFCURVE",
"1540 1222 OFFCURVE",
"1540 1213 CURVE",
"1540 1221 OFFCURVE",
"1540 1234 OFFCURVE",
"1541 1262 CURVE",
"1534 1173 LINE",
"1596 1148 OFFCURVE",
"1693 1227 OFFCURVE",
"1693 1031 CURVE",
"1693 768 OFFCURVE",
"1531 457 OFFCURVE",
"1531 334 CURVE",
"1531 299 OFFCURVE",
"1543 250 OFFCURVE",
"1594 250 CURVE",
"1832 250 OFFCURVE",
"1942 621 OFFCURVE",
"1942 840 CURVE",
"1942 1227 OFFCURVE",
"1730 1432 OFFCURVE",
"1351 1432 CURVE",
"701 1432 OFFCURVE",
"318 684 OFFCURVE",
"318 252 CURVE",
"318 -95 OFFCURVE",
"580 -180 OFFCURVE",
"921 -180 CURVE",
"1231 -180 OFFCURVE",
"1559 -133 OFFCURVE",
"1765 -38 CURVE",
"1806 -19 OFFCURVE",
"1831 -35 OFFCURVE",
"1831 -94 CURVE",
"1831 -187 OFFCURVE",
"1692 -217 OFFCURVE",
"1602 -252 CURVE"
);
},
{
closed = 1;
nodes = (
"849 395 OFFCURVE",
"829 186 OFFCURVE",
"1024 186 CURVE",
"1228 186 OFFCURVE",
"1348 419 OFFCURVE",
"1392 570 CURVE",
"1536 1064 LINE",
"1236 1161 OFFCURVE",
"984 919 OFFCURVE",
"880 518 CURVE"
);
}
);
width = 2241;
}
);
unicode = 0040;
},
{
glyphname = A;
lastChange = "2013-12-27 18:22:23 -0800";
layers = (
{
anchors = (
{
name = top;
position = "{1475, 1718}";
}
);
layerId = "DE4BB00D-BABA-4D36-9D9A-44FD0E91C3DF";
name = Regular;
paths = (
{
closed = 1;
nodes = (
"2234 1591 OFFCURVE",
"2154 1506 OFFCURVE",
"2072 1575 CURVE",
"2071 1570 OFFCURVE",
"1878 1746 OFFCURVE",
"1600 1774 CURVE",
"978 1836 OFFCURVE",
"244.578 1099.3 OFFCURVE",
"422.071 347.805 CURVE",
"473.444 132.477 OFFCURVE",
"642.93 9 OFFCURVE",
"849 9 CURVE",
"1174.97 9 OFFCURVE",
"1394.24 302.895 OFFCURVE",
"1467.02 625.19 CURVE",
"1654 1450 LINE",
"1670 1522 OFFCURVE",
"1825 1481 OFFCURVE",
"1809 1406 CURVE",
"1605.93 480.565 LINE",
"1535.52 156.895 OFFCURVE",
"1478 0 OFFCURVE",
"1646 6 CURVE",
"1712.59 6 OFFCURVE",
"1797.79 84.2956 OFFCURVE",
"1858.51 138.05 CURVE",
"1877.13 154.527 OFFCURVE",
"1935.42 76.4606 OFFCURVE",
"1903.51 38.8938 CURVE",
"1815.42 -64 OFFCURVE",
"1667 -138 OFFCURVE",
"1531.22 -120 CURVE",
"1419.27 -106 OFFCURVE",
"1375 -28 OFFCURVE",
"1375 90 CURVE",
"1375 113 OFFCURVE",
"1373 122 OFFCURVE",
"1381 149 CURVE",
"1286 0 OFFCURVE",
"1065 -135 OFFCURVE",
"812 -135 CURVE",
"459.136 -135 OFFCURVE",
"275.031 73.5093 OFFCURVE",
"213.081 357.524 CURVE",
"47.6389 1118.95 OFFCURVE",
"790 1967 OFFCURVE",
"1582 1918 CURVE",
"1832 1903 OFFCURVE",
"2041 1791 OFFCURVE",
"2161 1666 CURVE"
);
}
);
width = 1839.65;
},
{
associatedMasterId = "DE4BB00D-BABA-4D36-9D9A-44FD0E91C3DF";
background = {
paths = (
{
closed = 1;
nodes = (
"2233 1592 OFFCURVE",
"2152 1507 OFFCURVE",
"2082 1573 CURVE",
"2072 1574 LINE",
"2071 1570 OFFCURVE",
"1878 1746 OFFCURVE",
"1600 1774 CURVE",
"978 1836 OFFCURVE",
"245 1099 OFFCURVE",
"422 348 CURVE",
"473 132 OFFCURVE",
"643 9 OFFCURVE",
"849 9 CURVE",
"1175 9 OFFCURVE",
"1394 303 OFFCURVE",
"1467 625 CURVE",
"1654 1450 LINE",
"1670 1522 OFFCURVE",
"1825 1481 OFFCURVE",
"1809 1406 CURVE",
"1606 480 LINE",
"1536 157 OFFCURVE",
"1478 0 OFFCURVE",
"1646 6 CURVE",
"1713 6 OFFCURVE",
"1798 84 OFFCURVE",
"1859 138 CURVE",
"1877 154 OFFCURVE",
"1935 76 OFFCURVE",
"1904 39 CURVE",
"1815 -64 OFFCURVE",
"1667 -138 OFFCURVE",
"1531 -120 CURVE",
"1419 -106 OFFCURVE",
"1375 -28 OFFCURVE",
"1375 90 CURVE",
"1375 113 OFFCURVE",
"1389 174 OFFCURVE",
"1397 201 CURVE",
"1397 201 LINE",
"1329 14 OFFCURVE",
"1053 -135 OFFCURVE",
"812 -135 CURVE",
"459 -135 OFFCURVE",
"275 73 OFFCURVE",
"213 357 CURVE",
"48 1119 OFFCURVE",
"790 1966 OFFCURVE",
"1582 1918 CURVE",
"1832 1903 OFFCURVE",
"2041 1791 OFFCURVE",
"2161 1666 CURVE"
);
},
{
closed = 1;
nodes = (
"2293 1587 OFFCURVE",
"2172 1452 OFFCURVE",
"2065 1535 CURVE",
"2035 1540 OFFCURVE",
"1869 1707 OFFCURVE",
"1596 1734 CURVE SMOOTH",
"999 1794 OFFCURVE",
"290 1081 OFFCURVE",
"461 357 CURVE SMOOTH",
"508 160 OFFCURVE",
"660 49 OFFCURVE",
"849 49 CURVE SMOOTH",
"1151 49 OFFCURVE",
"1358 324 OFFCURVE",
"1428 634 CURVE SMOOTH",
"1615 1459 LINE SMOOTH",
"1643 1584 OFFCURVE",
"1875 1523 OFFCURVE",
"1848 1398 CURVE SMOOTH",
"1645 472 LINE SMOOTH",
"1578 164 OFFCURVE",
"1587 46 OFFCURVE",
"1646 46 CURVE SMOOTH",
"1697 46 OFFCURVE",
"1771 114 OFFCURVE",
"1832 168 CURVE SMOOTH",
"1893 222 OFFCURVE",
"1996 86 OFFCURVE",
"1934 13 CURVE SMOOTH",
"1838 -99 OFFCURVE",
"1678 -180 OFFCURVE",
"1526 -160 CURVE SMOOTH",
"1390 -142 OFFCURVE",
"1335 -42 OFFCURVE",
"1335 90 CURVE SMOOTH",
"1335 117 OFFCURVE",
"1340 144 OFFCURVE",
"1349 173 CURVE",
"1275 -29 OFFCURVE",
"1070 -175 OFFCURVE",
"812 -175 CURVE SMOOTH",
"437 -175 OFFCURVE",
"239 51 OFFCURVE",
"174 349 CURVE SMOOTH",
"3 1136 OFFCURVE",
"767 2008 OFFCURVE",
"1584 1958 CURVE SMOOTH",
"1845 1942 OFFCURVE",
"2064 1825 OFFCURVE",
"2190 1694 CURVE SMOOTH"
);
}
);
};
layerId = "1D49EE1D-D693-4FE0-A350-EC852F95B909";
name = Guide;
paths = (
{
closed = 1;
nodes = (
"2242 1632 OFFCURVE",
"2161 1547 OFFCURVE",
"2091 1613 CURVE",
"2081 1615 LINE",
"2080 1610 OFFCURVE",
"1887 1786 OFFCURVE",
"1609 1814 CURVE",
"987 1876 OFFCURVE",
"232 1059 OFFCURVE",
"409 308 CURVE",
"460 92 OFFCURVE",
"630 -31 OFFCURVE",
"836 -31 CURVE",
"1162 -31 OFFCURVE",
"1381 263 OFFCURVE",
"1454 585 CURVE",
"1663 1490 LINE",
"1679 1562 OFFCURVE",
"1834 1521 OFFCURVE",
"1818 1446 CURVE",
"1593 441 LINE",
"1523 117 OFFCURVE",
"1465 -40 OFFCURVE",
"1633 -34 CURVE",
"1700 -34 OFFCURVE",
"1785 44 OFFCURVE",
"1846 98 CURVE",
"1864 115 OFFCURVE",
"1922 36 OFFCURVE",
"1891 -1 CURVE",
"1802 -104 OFFCURVE",
"1654 -178 OFFCURVE",
"1518 -160 CURVE",
"1406 -146 OFFCURVE",
"1362 -68 OFFCURVE",
"1362 50 CURVE",
"1362 73 OFFCURVE",
"1376 134 OFFCURVE",
"1384 161 CURVE",
"1384 161 LINE",
"1316 -26 OFFCURVE",
"1040 -175 OFFCURVE",
"799 -175 CURVE",
"446 -175 OFFCURVE",
"262 34 OFFCURVE",
"200 318 CURVE",
"35 1079 OFFCURVE",
"799 2007 OFFCURVE",
"1591 1958 CURVE",
"1841 1943 OFFCURVE",
"2050 1831 OFFCURVE",
"2170 1706 CURVE"
);
}
);
width = 1920;
}
);
unicode = 0041;
},
{
glyphname = B;
lastChange = "2013-12-27 01:03:08 -0800";
layers = (
{
background = {
paths = (
{
closed = 1;
nodes = (
"929 24 OFFCURVE",
"1286 298 OFFCURVE",
"1286 535 CURVE SMOOTH",
"1286 901 OFFCURVE",
"698 767 OFFCURVE",
"699 938 CURVE SMOOTH",
"699 1005 OFFCURVE",
"754 1021 OFFCURVE",
"822 1020 CURVE SMOOTH",
"907 1019 LINE SMOOTH",
"1317 1014 OFFCURVE",
"1440 1255 OFFCURVE",
"1440 1398 CURVE SMOOTH",
"1440 1579 OFFCURVE",
"1279 1753 OFFCURVE",
"925 1753 CURVE SMOOTH",
"588 1753 OFFCURVE",
"404 1649 OFFCURVE",
"237 1501 CURVE SMOOTH",
"87 1368 OFFCURVE",
"-41 1555 OFFCURVE",
"47 1641 CURVE SMOOTH",
"222 1812 OFFCURVE",
"475 1977 OFFCURVE",
"915 1977 CURVE SMOOTH",
"1465 1977 OFFCURVE",
"1772 1672 OFFCURVE",
"1733 1372 CURVE SMOOTH",
"1709 1188 OFFCURVE",
"1535 946 OFFCURVE",
"1160 912 CURVE",
"1360 890 OFFCURVE",
"1554 758 OFFCURVE",
"1554 550 CURVE SMOOTH",
"1554 174 OFFCURVE",
"1018 -176 OFFCURVE",
"529 -176 CURVE SMOOTH",
"303 -176 OFFCURVE",
"159 -112 OFFCURVE",
"159 4 CURVE SMOOTH",
"159 398 OFFCURVE",
"220 1514 OFFCURVE",
"579 1514 CURVE SMOOTH",
"628 1514 OFFCURVE",
"668 1487 OFFCURVE",
"701 1432 CURVE",
"524 1194 OFFCURVE",
"447 510 OFFCURVE",
"447 102 CURVE SMOOTH",
"447 42 OFFCURVE",
"447 24 OFFCURVE",
"522 24 CURVE SMOOTH"
);
}
);
};
layerId = "DE4BB00D-BABA-4D36-9D9A-44FD0E91C3DF";
name = Regular;
paths = (
{
closed = 1;
nodes = (
"979 -56 OFFCURVE",
"1356 232 OFFCURVE",
"1356 495 CURVE",
"1356 890 OFFCURVE",
"768 777 OFFCURVE",
"769 938 CURVE",
"769 971 OFFCURVE",
"793 999 OFFCURVE",
"851 998 CURVE",
"937 997 LINE",
"1377 992 OFFCURVE",
"1537 1281 OFFCURVE",
"1537 1440 CURVE",
"1537 1643 OFFCURVE",
"1333 1835 OFFCURVE",
"955 1835 CURVE",
"607 1835 OFFCURVE",
"411 1724 OFFCURVE",
"240 1573 CURVE",
"133 1478 OFFCURVE",
"49 1600 OFFCURVE",
"105 1655 CURVE",
"276 1822 OFFCURVE",
"519 1979 OFFCURVE",
"945 1979 CURVE",
"1473 1979 OFFCURVE",
"1740 1705 OFFCURVE",
"1740 1420 CURVE",
"1740 1292 OFFCURVE",
"1647 971 OFFCURVE",
"1232 897 CURVE",
"1430 843 OFFCURVE",
"1544 693 OFFCURVE",
"1544 510 CURVE",
"1544 162 OFFCURVE",
"1030 -176 OFFCURVE",
"559 -176 CURVE",
"347 -176 OFFCURVE",
"229 -120 OFFCURVE",
"229 -36 CURVE",
"229 349 OFFCURVE",
"296 1516 OFFCURVE",
"609 1516 CURVE",
"636 1516 OFFCURVE",
"660 1504 OFFCURVE",
"683 1475 CURVE",
"511 1210 OFFCURVE",
"437 460 OFFCURVE",
"437 62 CURVE",
"437 2 OFFCURVE",
"437 -56 OFFCURVE",
"552 -56 CURVE"
);
}
);
width = 1552;
}
);
unicode = 0042;
},
{
glyphname = C;
lastChange = "2013-12-17 01:17:15 -0800";
layers = (
{
background = {
paths = (
{
closed = 1;
nodes = (
"1153 -275 OFFCURVE",
"1593 -14 OFFCURVE",
"1707 331 CURVE SMOOTH",
"1709 337 OFFCURVE",
"1710 342 OFFCURVE",
"1710 347 CURVE SMOOTH",
"1710 383 OFFCURVE",
"1668 405 OFFCURVE",
"1639 405 CURVE SMOOTH",
"1626 405 OFFCURVE",
"1614 402 OFFCURVE",
"1604 393 CURVE",
"1391 185 OFFCURVE",
"1191 -51 OFFCURVE",
"838 -51 CURVE SMOOTH",
"588 -51 OFFCURVE",
"429 142 OFFCURVE",
"432 502 CURVE SMOOTH",
"436 952 OFFCURVE",
"739 1618 OFFCURVE",
"1176 1618 CURVE SMOOTH",
"1320 1618 OFFCURVE",
"1400 1536 OFFCURVE",
"1400 1394 CURVE SMOOTH",
"1400 1184 OFFCURVE",
"1238 996.999 OFFCURVE",
"1033 996.999 CURVE SMOOTH",
"932 996.999 OFFCURVE",
"863 985.999 OFFCURVE",
"863 907 CURVE SMOOTH",
"863 795 OFFCURVE",
"923 786 OFFCURVE",
"1049 786 CURVE SMOOTH",
"1356 786 OFFCURVE",
"1624 1099 OFFCURVE",
"1624 1413 CURVE SMOOTH",
"1624 1667 OFFCURVE",
"1459 1842 OFFCURVE",
"1211 1842 CURVE SMOOTH",
"603 1842 OFFCURVE",
"155 1136 OFFCURVE",
"144 482 CURVE SMOOTH",
"135 -61 OFFCURVE",
"458 -275 OFFCURVE",
"775 -275 CURVE SMOOTH"
);
}
);
};
layerId = "DE4BB00D-BABA-4D36-9D9A-44FD0E91C3DF";
name = Regular;
paths = (
{
closed = 1;
nodes = (
"1138 -272 OFFCURVE",
"1533 -41 OFFCURVE",
"1669 306 CURVE",
"1671 313 OFFCURVE",
"1670 318 OFFCURVE",
"1668 323 CURVE",
"1666 328 OFFCURVE",
"1659 333 OFFCURVE",
"1649 333 CURVE",
"1641 333 OFFCURVE",
"1633 328 OFFCURVE",
"1630 325 CURVE",
"1419 119 OFFCURVE",
"1209 -128 OFFCURVE",
"838 -128 CURVE",
"563 -128 OFFCURVE",
"389 84 OFFCURVE",
"392 502.333 CURVE",
"396.131 966.867 OFFCURVE",
"718 1695 OFFCURVE",
"1187 1695 CURVE",
"1354 1695 OFFCURVE",
"1451 1595 OFFCURVE",
"1451 1431 CURVE",
"1451 1200 OFFCURVE",
"1262.32 956.999 OFFCURVE",
"1033 956.999 CURVE",
"937.208 956.999 OFFCURVE",
"903 950 OFFCURVE",
"903 888 CURVE",
"903 831 OFFCURVE",
"928.015 826 OFFCURVE",
"1049 826 CURVE",
"1331.62 826 OFFCURVE",
"1595 1156 OFFCURVE",
"1595 1450 CURVE",
"1595 1682 OFFCURVE",
"1447 1839 OFFCURVE",
"1222 1839 CURVE",
"642 1839 OFFCURVE",
"194.704 1118.09 OFFCURVE",
"183.994 481.327 CURVE",
"175 -71 OFFCURVE",
"476 -272 OFFCURVE",
"775 -272 CURVE"
);
}
);
width = 1648;
}
);
unicode = 0043;
},
{
glyphname = D;
lastChange = "2013-12-27 18:22:53 -0800";
layers = (
{
background = {
paths = (
{
closed = 1;
nodes = (
"163 1275 OFFCURVE",
"88 1134 OFFCURVE",
"24 1134 CURVE SMOOTH",
"-30 1134 OFFCURVE",
"-51 1187 OFFCURVE",
"-51 1229 CURVE SMOOTH",
"-51 1322 OFFCURVE",
"23 1451 OFFCURVE",
"39 1470 CURVE SMOOTH",
"186 1645 OFFCURVE",
"372 1736 OFFCURVE",
"644 1736 CURVE SMOOTH",
"1152 1736 OFFCURVE",
"1503 1528 OFFCURVE",
"1503 1028 CURVE SMOOTH",
"1503 521 OFFCURVE",
"1236 126 OFFCURVE",
"866 -14 CURVE SMOOTH",
"786 -44 OFFCURVE",
"700 -60 OFFCURVE",
"607 -60 CURVE SMOOTH",
"471 -60 OFFCURVE",
"350 -19 OFFCURVE",
"257 24 CURVE SMOOTH",
"227 38 OFFCURVE",
"219 51 OFFCURVE",
"219 93 CURVE SMOOTH",
"219 590 OFFCURVE",
"264 1061 OFFCURVE",
"467 1359 CURVE",
"514 1392 OFFCURVE",
"557 1408 OFFCURVE",
"596 1408 CURVE SMOOTH",
"645 1408 OFFCURVE",
"685 1381 OFFCURVE",
"718 1326 CURVE",
"550 1100 OFFCURVE",
"479 624 OFFCURVE",
"479 258 CURVE SMOOTH",
"479 169 OFFCURVE",
"486 128 OFFCURVE",
"575 128 CURVE SMOOTH",
"958 128 OFFCURVE",
"1165 502 OFFCURVE",
"1236 814 CURVE SMOOTH",
"1251 882 OFFCURVE",
"1259 946 OFFCURVE",
"1259 1009 CURVE SMOOTH",
"1259 1336 OFFCURVE",
"1012 1507 OFFCURVE",
"655 1507 CURVE SMOOTH",
"522 1507 OFFCURVE",
"347 1470 OFFCURVE",
"215 1330 CURVE SMOOTH"
);
}
);
};
layerId = "DE4BB00D-BABA-4D36-9D9A-44FD0E91C3DF";
name = Regular;
paths = (
{
closed = 1;
nodes = (
"94 1268 OFFCURVE",
"105 1198 OFFCURVE",
"44 1198 CURVE",
"21 1198 OFFCURVE",
"0 1228 OFFCURVE",
"0 1258 CURVE",
"0 1339 OFFCURVE",
"48 1423 OFFCURVE",
"95 1478 CURVE",
"236 1645 OFFCURVE",
"409 1730 OFFCURVE",
"670 1730 CURVE",
"1161 1730 OFFCURVE",
"1489 1533 OFFCURVE",
"1473 1028 CURVE",
"1473 537 OFFCURVE",
"1216 118 OFFCURVE",
"862 -17 CURVE",
"785 -45 OFFCURVE",
"706 -60 OFFCURVE",
"617 -60 CURVE",
"488 -60 OFFCURVE",
"375 -22 OFFCURVE",
"284 20 CURVE",
"268 27 OFFCURVE",
"269 26 OFFCURVE",
"269 53 CURVE",
"269 545 OFFCURVE",
"328 1075 OFFCURVE",
"522 1365 CURVE",
"560 1391 OFFCURVE",
"593 1402 OFFCURVE",
"622 1402 CURVE",
"649 1402 OFFCURVE",
"673 1390 OFFCURVE",
"695 1361 CURVE",
"533 1119 OFFCURVE",
"449 575 OFFCURVE",
"449 218 CURVE",
"449 126 OFFCURVE",
"462 48 OFFCURVE",
"585 48 CURVE",
"996 48 OFFCURVE",
"1212 484 OFFCURVE",
"1285 805 CURVE",
"1300 875 OFFCURVE",
"1309 944 OFFCURVE",
"1309 1009 CURVE",
"1325 1397 OFFCURVE",
"1056 1581 OFFCURVE",
"681 1581 CURVE",
"544 1581 OFFCURVE",
"352 1541 OFFCURVE",
"212 1392 CURVE"
);
}
);
width = 1354;
}
);
unicode = 0044;
},
{
glyphname = E;
lastChange = "2013-12-27 18:23:05 -0800";
layers = (
{
background = {
paths = (
{
closed = 1;
nodes = (
"618 694 OFFCURVE",
"399 502 OFFCURVE",
"418 239 CURVE SMOOTH",
"433 37 OFFCURVE",
"545 -62 OFFCURVE",
"749 -62 CURVE SMOOTH",
"1102 -62 OFFCURVE",
"1399 125 OFFCURVE",
"1629 401 CURVE SMOOTH",
"1740 534 OFFCURVE",
"1861 351 OFFCURVE",
"1780 250 CURVE SMOOTH",
"1527 -66 OFFCURVE",
"1158 -303 OFFCURVE",
"740 -303 CURVE SMOOTH",
"392 -303 OFFCURVE",
"119 -121 OFFCURVE",
"119 233 CURVE SMOOTH",
"119 622 OFFCURVE",
"487 845 OFFCURVE",
"874 855 CURVE",
"503 905 OFFCURVE",
"308 1105 OFFCURVE",
"332 1385 CURVE SMOOTH",
"362 1742 OFFCURVE",
"692 1867 OFFCURVE",
"1038 1867 CURVE SMOOTH",
"1363 1867 OFFCURVE",
"1743 1743 OFFCURVE",
"1761 1438 CURVE SMOOTH",
"1780 1109 OFFCURVE",
"1372 1124 OFFCURVE",
"1453 1313 CURVE SMOOTH",
"1533 1501 LINE",
"1313 1680 OFFCURVE",
"648 1751 OFFCURVE",
"616 1359 CURVE SMOOTH",
"593 1077 OFFCURVE",
"941 983.999 OFFCURVE",
"1117 945 CURVE SMOOTH",
"1258 914 OFFCURVE",
"1239 694 OFFCURVE",
"1047 694 CURVE SMOOTH"
);
}
);
};
layerId = "DE4BB00D-BABA-4D36-9D9A-44FD0E91C3DF";
name = Regular;
paths = (
{
closed = 1;
nodes = (
"438 734 OFFCURVE",
"198 485 OFFCURVE",
"219 196 CURVE",
"236 -28 OFFCURVE",
"420 -142 OFFCURVE",
"645 -142 CURVE",
"1048 -142 OFFCURVE",
"1267 55 OFFCURVE",
"1501 335 CURVE",
"1570 418 OFFCURVE",
"1664 327 OFFCURVE",
"1590 235 CURVE",
"1342 -74 OFFCURVE",
"1087 -303 OFFCURVE",
"636 -303 CURVE",
"306 -303 OFFCURVE",
"0 -134 OFFCURVE",
"0 193 CURVE",
"0 557 OFFCURVE",
"277 801 OFFCURVE",
"650 855 CURVE",
"328 928 OFFCURVE",
"191 1138 OFFCURVE",
"213 1394 CURVE",
"240 1683 OFFCURVE",
"544 1867 OFFCURVE",
"879 1867 CURVE",
"1194 1867 OFFCURVE",
"1567 1731 OFFCURVE",
"1583 1476 CURVE",
"1592 1322 OFFCURVE",
"1489 1247 OFFCURVE",
"1423 1247 CURVE SMOOTH",
"1338 1247 OFFCURVE",
"1301 1319 OFFCURVE",
"1315 1364 CURVE SMOOTH",
"1349 1476 OFFCURVE",
"1475 1469 OFFCURVE",
"1397 1552 CURVE",
"1191 1756 OFFCURVE",
"454 1787 OFFCURVE",
"417 1374 CURVE",
"391 1057 OFFCURVE",
"771 946 OFFCURVE",
"949 906 CURVE",
"1045 885 OFFCURVE",
"1032 734 OFFCURVE",
"888 734 CURVE"
);
}
);
width = 1419;
}
);
unicode = 0045;
},
{
glyphname = F;
lastChange = "2013-12-27 01:28:54 -0800";
layers = (
{
background = {
paths = (
{
closed = 1;
nodes = (
"113 1724 OFFCURVE",
"683 1818 OFFCURVE",
"1192 1818 CURVE SMOOTH",
"1365 1818 OFFCURVE",
"1944 1846 OFFCURVE",
"1944 1678 CURVE SMOOTH",
"1944 1616 OFFCURVE",
"1912 1558 OFFCURVE",
"1849 1558 CURVE SMOOTH",
"1698 1558 OFFCURVE",
"1527 1604 OFFCURVE",
"1350 1604 CURVE SMOOTH",
"1270 1604 OFFCURVE",
"1193 1594 OFFCURVE",
"1120 1584 CURVE",
"1096 1382 OFFCURVE",
"1033 1019 OFFCURVE",
"1023 960 CURVE",
"1344 960 LINE SMOOTH",
"1400 960 OFFCURVE",
"1408 918 OFFCURVE",
"1408 864 CURVE SMOOTH",
"1408 815 OFFCURVE",
"1385 768 OFFCURVE",
"1344 768 CURVE SMOOTH",
"1230 768 OFFCURVE",
"1099 749 OFFCURVE",
"982.999 749 CURVE",
"881 194 OFFCURVE",
"827 -198 OFFCURVE",
"352 -198 CURVE SMOOTH",
"232 -198 OFFCURVE",
"38 -164 OFFCURVE",
"38 -47 CURVE SMOOTH",
"38 18 OFFCURVE",
"82 97 OFFCURVE",
"148 97 CURVE SMOOTH",
"261 97 OFFCURVE",
"336 26 OFFCURVE",
"456 26 CURVE SMOOTH",
"631 26 OFFCURVE",
"694 569 OFFCURVE",
"724 749 CURVE",
"601 749 LINE SMOOTH",
"540 749 OFFCURVE",
"456 771 OFFCURVE",
"456 832 CURVE SMOOTH",
"456 919 OFFCURVE",
"703 933 OFFCURVE",
"771 942 CURVE",
"819 1161 OFFCURVE",
"842 1354 OFFCURVE",
"883 1574 CURVE",
"516 1535 OFFCURVE",
"384 1421 OFFCURVE",
"384 1212 CURVE SMOOTH",
"384 1156 OFFCURVE",
"336 1136 OFFCURVE",
"274 1136 CURVE SMOOTH",
"189 1136 OFFCURVE",
"113 1138 OFFCURVE",
"113 1216 CURVE SMOOTH"
);
}
);
};
layerId = "DE4BB00D-BABA-4D36-9D9A-44FD0E91C3DF";
name = Regular;
paths = (
{
closed = 1;
nodes = (
"215 1728 OFFCURVE",
"750 1818 OFFCURVE",
"1254 1818 CURVE",
"1416 1818 OFFCURVE",
"1962 1810 OFFCURVE",
"1966 1718 CURVE",
"1966 1658 OFFCURVE",
"1931 1632 OFFCURVE",
"1853 1638 CURVE",
"1744 1652 OFFCURVE",
"1488 1670 OFFCURVE",
"1412 1670 CURVE",
"1318 1670 OFFCURVE",
"1227 1671 OFFCURVE",
"1146 1659 CURVE",
"1125 1467 OFFCURVE",
"1043 982 OFFCURVE",
"1032 920 CURVE",
"1159 920 OFFCURVE",
"1259 926 OFFCURVE",
"1307 916 CURVE SMOOTH",
"1357 906 OFFCURVE",
"1361 883 OFFCURVE",
"1361 864 CURVE",
"1361 839 OFFCURVE",
"1339 818 OFFCURVE",
"1319 812 CURVE SMOOTH",
"1253 792 OFFCURVE",
"1155 790 OFFCURVE",
"1012 790 CURVE",
"905 175 OFFCURVE",
"863 -198 OFFCURVE",
"414 -198 CURVE",
"301 -198 OFFCURVE",
"140 -168 OFFCURVE",
"140 -69 CURVE",
"140 -20 OFFCURVE",
"173 17 OFFCURVE",
"210 17 CURVE",
"309 17 OFFCURVE",
"254 -54 OFFCURVE",
"434 -54 CURVE",
"772 -54 OFFCURVE",
"819 672 OFFCURVE",
"835 786 CURVE",
"675 789 OFFCURVE",
"632 799 OFFCURVE",
"632 844 CURVE",
"632 887 OFFCURVE",
"678 911 OFFCURVE",
"866 916 CURVE",
"923 1206 OFFCURVE",
"945 1409 OFFCURVE",
"994 1659 CURVE",
"569 1624 OFFCURVE",
"406 1496 OFFCURVE",
"406 1252 CURVE",
"406 1227 OFFCURVE",
"386 1205 OFFCURVE",
"312 1205 CURVE",
"252 1205 OFFCURVE",
"215 1217 OFFCURVE",
"215 1256 CURVE"
);
}
);
width = 1288;
}
);
unicode = 0046;
},
{
glyphname = G;
lastChange = "2013-12-27 01:09:05 -0800";
layers = (
{
background = {
paths = (
{
closed = 1;
nodes = (
"164 1975 OFFCURVE",
"2026 2411 OFFCURVE",
"2026 1502 CURVE SMOOTH",
"2026 1383 OFFCURVE",
"1962 1353 OFFCURVE",
"1882 1353 CURVE SMOOTH",
"1813 1353 OFFCURVE",
"1745 1370 OFFCURVE",
"1745 1511 CURVE SMOOTH",
"1745 2000 OFFCURVE",
"478 1678 OFFCURVE",
"478 590 CURVE SMOOTH",
"478 -82 OFFCURVE",
"1190 -41 OFFCURVE",
"1757 255 CURVE",
"1776 339 LINE SMOOTH",
"1791 406 OFFCURVE",
"1768 416 OFFCURVE",
"1632 416 CURVE SMOOTH",
"1524 416 OFFCURVE",
"1462 437 OFFCURVE",
"1462 522 CURVE SMOOTH",
"1462 608 OFFCURVE",
"1549 642 OFFCURVE",
"1639 642 CURVE SMOOTH",
"1993 642 OFFCURVE",
"2056 592 OFFCURVE",
"2011 349 CURVE SMOOTH",
"1811 -738 OFFCURVE",
"1463 -1141 OFFCURVE",
"844 -909 CURVE SMOOTH",
"627 -829 OFFCURVE",
"778 -595 OFFCURVE",
"905 -641 CURVE SMOOTH",
"1282 -776 OFFCURVE",
"1506 -718 OFFCURVE",
"1725 79 CURVE",
"1551 -157 OFFCURVE",
"164 -519 OFFCURVE",
"164 558 CURVE SMOOTH"
);
}
);
};
layerId = "DE4BB00D-BABA-4D36-9D9A-44FD0E91C3DF";
name = Regular;
paths = (
{
closed = 1;
nodes = (
"244 1985 OFFCURVE",
"2026 2402 OFFCURVE",
"2026 1502 CURVE",
"2026 1412 OFFCURVE",
"1989 1393 OFFCURVE",
"1922 1393 CURVE",
"1862 1393 OFFCURVE",
"1825 1405 OFFCURVE",
"1825 1511 CURVE",
"1825 2127 OFFCURVE",
"440 1784 OFFCURVE",
"440 590 CURVE",
"440 -277 OFFCURVE",
"1509 0 OFFCURVE",
"1844 292 CURVE",
"1855 330 LINE",
"1879 435 OFFCURVE",
"1822 456 OFFCURVE",
"1672 456 CURVE",
"1575 456 OFFCURVE",
"1542 470 OFFCURVE",
"1542 522 CURVE",
"1542 577 OFFCURVE",
"1601 602 OFFCURVE",
"1679 602 CURVE",
"2011 602 OFFCURVE",
"2051 568 OFFCURVE",
"2012 356 CURVE",
"1815 -714 OFFCURVE",
"1471 -1129 OFFCURVE",
"884 -909 CURVE",
"725 -850 OFFCURVE",
"831 -720 OFFCURVE",
"917 -751 CURVE",
"1258 -904 OFFCURVE",
"1573 -910 OFFCURVE",
"1815 115 CURVE",
"1815 115 LINE",
"1651 -91 OFFCURVE",
"244 -580 OFFCURVE",
"244 558 CURVE"
);
}
);
width = 2047;
}
);
unicode = 0047;
},
{
glyphname = H;
lastChange = "2013-12-27 18:23:28 -0800";
layers = (
{
background = {
paths = (
{
closed = 1;
nodes = (
"1434 1177 LINE SMOOTH",
"1570 1695 OFFCURVE",
"1818 1845 OFFCURVE",
"2011 1870 CURVE SMOOTH",
"2884 1983 OFFCURVE",
"2860 414 OFFCURVE",
"725 734 CURVE SMOOTH",
"578 756 OFFCURVE",
"656 946 OFFCURVE",
"773 928 CURVE SMOOTH",
"2431 676 OFFCURVE",
"2495 1734 OFFCURVE",
"2000 1634 CURVE SMOOTH",
"1803 1594 OFFCURVE",
"1709 1387 OFFCURVE",
"1649 1140 CURVE SMOOTH",
"1466 380 LINE SMOOTH",
"1270 -436 OFFCURVE",
"1779 -139 OFFCURVE",
"2047 -29 CURVE SMOOTH",
"2124 3 OFFCURVE",
"2205 -153 OFFCURVE",
"2126 -208 CURVE SMOOTH",
"1638 -547 OFFCURVE",
"990.999 -509 OFFCURVE",
"1215 344 CURVE SMOOTH"
);
},
{
closed = 1;
nodes = (
"110 1353 OFFCURVE",
"-47 1504 OFFCURVE",
"41 1631 CURVE SMOOTH",
"124 1751 OFFCURVE",
"327 1915 OFFCURVE",
"584 1892 CURVE SMOOTH",
"913 1862 OFFCURVE",
"941 1497 OFFCURVE",
"805 1076 CURVE SMOOTH",
"419 -124 LINE SMOOTH",
"380 -244 OFFCURVE",
"345 -326 OFFCURVE",
"226 -306 CURVE SMOOTH",
"157 -294 OFFCURVE",
"72 -257 OFFCURVE",
"150 -45 CURVE SMOOTH",
"532 1014 LINE SMOOTH",
"706 1484 OFFCURVE",
"626 1678 OFFCURVE",
"480 1678 CURVE SMOOTH",
"402 1678 OFFCURVE",
"286 1557 OFFCURVE",
"243 1507 CURVE SMOOTH"
);
}
);
};
layerId = "DE4BB00D-BABA-4D36-9D9A-44FD0E91C3DF";
name = Regular;
paths = (
{
closed = 1;
nodes = (
"1373 1167 LINE",
"1523 1702 OFFCURVE",
"1718 1844 OFFCURVE",
"1868 1867 CURVE",
"2318 1963 OFFCURVE",
"2601 415 OFFCURVE",
"608 774 CURVE",
"523 786 OFFCURVE",
"569 928 OFFCURVE",
"644 916 CURVE",
"2371 654 OFFCURVE",
"2121 1759 OFFCURVE",
"1856 1688 CURVE",
"1723 1644 OFFCURVE",
"1596 1400 OFFCURVE",
"1535 1149 CURVE",
"1327 353 LINE",
"1114 -535 OFFCURVE",
"1715 -204 OFFCURVE",
"1962 -102 CURVE",
"1994 -89 OFFCURVE",
"2043 -184 OFFCURVE",
"2003 -211 CURVE",
"1531 -539 OFFCURVE",
"944 -502 OFFCURVE",
"1154 298 CURVE"
);
},
{
closed = 1;
nodes = (
"30 1465 OFFCURVE",
"-74 1564 OFFCURVE",
"-12 1654 CURVE",
"67 1767 OFFCURVE",
"227 1933 OFFCURVE",
"495 1898 CURVE",
"784 1871 OFFCURVE",
"815 1556 OFFCURVE",
"682 1134 CURVE",
"269 -150 LINE",
"231 -267 OFFCURVE",
"206 -320 OFFCURVE",
"120 -305 CURVE",
"62 -295 OFFCURVE",
"12 -268 OFFCURVE",
"75 -97 CURVE",
"484 1046 LINE",
"667 1540 OFFCURVE",
"623 1755 OFFCURVE",
"395 1755 CURVE",
"300 1755 OFFCURVE",
"171 1629 OFFCURVE",
"127 1579 CURVE"
);
}
);
width = 1983;
}
);
unicode = 0048;
},
{
glyphname = I;
lastChange = "2013-12-22 16:17:57 -0800";
layers = (
{
background = {
paths = (
{
closed = 1;
nodes = (
"1136 1667 OFFCURVE",
"1395 1662 OFFCURVE",
"1419 1724 CURVE SMOOTH",
"1450 1805 OFFCURVE",
"1464 1874 OFFCURVE",
"1384 1872 CURVE SMOOTH",
"1304 1870 OFFCURVE",
"600 1853 OFFCURVE",
"526 1846 CURVE SMOOTH",
"452 1839 OFFCURVE",
"423 1712 OFFCURVE",
"460 1671 CURVE SMOOTH",
"501 1625 OFFCURVE",
"706 1648 OFFCURVE",
"805 1648 CURVE",
"630 1264 OFFCURVE",
"465 662 OFFCURVE",
"391 161 CURVE",
"299 157 OFFCURVE",
"57 152 OFFCURVE",
"36 76 CURVE SMOOTH",
"16 5 OFFCURVE",
"46 -51 OFFCURVE",
"90 -66 CURVE SMOOTH",
"134 -81 OFFCURVE",
"548 -24 OFFCURVE",
"846 -12 CURVE SMOOTH",
"985 -6 OFFCURVE",
"990 143 OFFCURVE",
"930 166 CURVE SMOOTH",
"870 189 OFFCURVE",
"651 176 OFFCURVE",
"618 170 CURVE",
"650 515 OFFCURVE",
"982 1649 OFFCURVE",
"1028 1654 CURVE SMOOTH"
);
}
);
};
layerId = "DE4BB00D-BABA-4D36-9D9A-44FD0E91C3DF";
name = Regular;
paths = (
{
closed = 1;
nodes = (
"1140 1725 OFFCURVE",
"1391 1728 OFFCURVE",
"1404 1764 CURVE",
"1434 1842 OFFCURVE",
"1440 1872 OFFCURVE",
"1398 1871 CURVE",
"1318 1869 OFFCURVE",
"615 1852 OFFCURVE",
"542 1845 CURVE",
"495 1841 OFFCURVE",
"473 1745 OFFCURVE",
"496 1720 CURVE",
"530 1682 OFFCURVE",
"814 1717 OFFCURVE",
"864 1704 CURVE",
"680 1319 OFFCURVE",
"478 624 OFFCURVE",
"403 102 CURVE",
"351 99 OFFCURVE",
"66 93 OFFCURVE",
"51 38 CURVE",
"35 -18 OFFCURVE",
"57 -58 OFFCURVE",
"86 -68 CURVE",
"119 -79 OFFCURVE",
"535 -24 OFFCURVE",
"831 -12 CURVE",
"932 -8 OFFCURVE",
"937 96 OFFCURVE",
"905 108 CURVE",
"845 131 OFFCURVE",
"630 112 OFFCURVE",
"572 103 CURVE",
"581 406 OFFCURVE",
"958 1704 OFFCURVE",
"1038 1713 CURVE"
);
}
);
width = 982;
}
);
unicode = 0049;
},
{
glyphname = J;
lastChange = "2013-12-24 01:34:50 -0800";
layers = (
{
background = {
paths = (
{
closed = 1;
nodes = (
"1590 340 OFFCURVE",
"1532 301 OFFCURVE",
"1472 300 CURVE SMOOTH",
"1361 298 OFFCURVE",
"204 611 OFFCURVE",
"214 1285 CURVE SMOOTH",
"222 1836 OFFCURVE",
"620 1987 OFFCURVE",
"793 1987 CURVE",
"979 1987 OFFCURVE",
"1251 1903 OFFCURVE",
"1236 1087 CURVE SMOOTH",
"1221 271 OFFCURVE",
"876 -779 OFFCURVE",
"274 -754 CURVE",
"-38 -729 OFFCURVE",
"-79 -519 OFFCURVE",
"-86 -281 CURVE SMOOTH",
"-95 16 OFFCURVE",
"144 631 OFFCURVE",
"883 630 CURVE",
"927 632 OFFCURVE",
"976 629 OFFCURVE",
"988 609 CURVE",
"1000 589 OFFCURVE",
"1048 483 OFFCURVE",
"997 487 CURVE SMOOTH",
"768 504 OFFCURVE",
"158 332 OFFCURVE",
"153 -316 CURVE SMOOTH",
"152 -458 OFFCURVE",
"228 -525 OFFCURVE",
"296 -526 CURVE",
"502 -527 OFFCURVE",
"981 -35 OFFCURVE",
"981 1311 CURVE SMOOTH",
"981 1607 OFFCURVE",
"947 1755 OFFCURVE",
"797 1772 CURVE",
"647 1789 OFFCURVE",
"464 1542 OFFCURVE",
"467 1317 CURVE",
"470 918 OFFCURVE",
"899 663 OFFCURVE",
"1536 429 CURVE SMOOTH",
"1577 414 OFFCURVE",
"1588 404 OFFCURVE",
"1589 381 CURVE"
);
}
);
};
layerId = "DE4BB00D-BABA-4D36-9D9A-44FD0E91C3DF";
name = Regular;
paths = (
{
closed = 1;
nodes = (
"1559.01 380.269 LINE",
"1559.51 359.689 OFFCURVE",
"1518.63 330.781 OFFCURVE",
"1471.5 329.996 CURVE",
"1366.76 328.109 OFFCURVE",
"234.372 635.876 OFFCURVE",
"243.997 1284.55 CURVE",
"251.643 1811.18 OFFCURVE",
"629 1987 OFFCURVE",
"793 1987 CURVE",
"969 1987 OFFCURVE",
"1220.48 1875 OFFCURVE",
"1206.01 1087.55 CURVE",
"1191.17 280.338 OFFCURVE",
"849 -777 OFFCURVE",
"274 -754 CURVE",
"-13 -731 OFFCURVE",
"-65 -543 OFFCURVE",
"-72 -347 CURVE",
"-81 -23 OFFCURVE",
"195 601 OFFCURVE",
"910 600 CURVE",
"936 601 OFFCURVE",
"962 577 OFFCURVE",
"962 577 CURVE",
"973 558 OFFCURVE",
"1000 500 OFFCURVE",
"999 500 CURVE",
"763 518 OFFCURVE",
"110 327 OFFCURVE",
"105 -346 CURVE",
"104 -505 OFFCURVE",
"210 -585 OFFCURVE",
"294 -586 CURVE",
"521 -587 OFFCURVE",
"1011 -55 OFFCURVE",
"1011 1311 CURVE",
"1011 1614.42 OFFCURVE",
"975 1812 OFFCURVE",
"800 1832 CURVE",
"629 1851 OFFCURVE",
"433.814 1555.74 OFFCURVE",
"437.003 1316.6 CURVE",
"440.128 900.856 OFFCURVE",
"886.054 635.796 OFFCURVE",
"1525.66 400.84 CURVE",
"1557.42 389.217 OFFCURVE",
"1558.74 386.344 OFFCURVE",
"1559.03 379.697 CURVE"
);
}
);
width = 1362;
}
);
unicode = 004A;
},
{
glyphname = K;
lastChange = "2013-12-27 18:23:47 -0800";
layers = (
{
background = {
paths = (
{
closed = 1;
nodes = (
"1110 -304 OFFCURVE",
"1092 120 OFFCURVE",
"919 862 CURVE",
"744 203 OFFCURVE",
"647 -303 OFFCURVE",
"204 -303 CURVE SMOOTH",
"111 -303 OFFCURVE",
"-106 -288 OFFCURVE",
"-106 -203 CURVE SMOOTH",
"-106 -141 OFFCURVE",
"-41 -43 OFFCURVE",
"21 -43 CURVE SMOOTH",
"68 -43 OFFCURVE",
"112 -70 OFFCURVE",
"169 -70 CURVE SMOOTH",
"451 -70 OFFCURVE",
"637 575 OFFCURVE",
"747 1720 CURVE",
"458 1720 OFFCURVE",
"240 1517 OFFCURVE",
"240 1234 CURVE SMOOTH",
"240 1180 OFFCURVE",
"206 1143 OFFCURVE",
"106 1131 CURVE SMOOTH",
"26 1121 OFFCURVE",
"-48 1177 OFFCURVE",
"-48 1257 CURVE SMOOTH",
"-48 1700 OFFCURVE",
"433 1865 OFFCURVE",
"875 1865 CURVE SMOOTH",
"948 1865 OFFCURVE",
"1001 1839 OFFCURVE",
"1001 1769 CURVE SMOOTH",
"1001 1546 OFFCURVE",
"993.999 1195 OFFCURVE",
"949 991.999 CURVE",
"1309 1210 OFFCURVE",
"1566 1471 OFFCURVE",
"1726 1686 CURVE SMOOTH",
"1798 1783 OFFCURVE",
"1832 1867 OFFCURVE",
"1906 1867 CURVE SMOOTH",
"2015 1867 OFFCURVE",
"2009 1760 OFFCURVE",
"1970 1671 CURVE SMOOTH",
"1890 1494 OFFCURVE",
"1676 1126 OFFCURVE",
"1161 901 CURVE",
"1345 268 OFFCURVE",
"1311 -97 OFFCURVE",
"1637 -97 CURVE SMOOTH",
"1696 -97 OFFCURVE",
"1767 -61 OFFCURVE",
"1826 -61 CURVE SMOOTH",
"1879 -61 OFFCURVE",
"1895 -127 OFFCURVE",
"1895 -177 CURVE SMOOTH",
"1895 -282 OFFCURVE",
"1596 -304 OFFCURVE",
"1554 -304 CURVE SMOOTH"
);
}
);
};
layerId = "DE4BB00D-BABA-4D36-9D9A-44FD0E91C3DF";
name = Regular;
paths = (
{
closed = 1;
nodes = (
"1158 -303 OFFCURVE",
"1115 40 OFFCURVE",
"905 885 CURVE",
"791 271 OFFCURVE",
"630 -303 OFFCURVE",
"190 -303 CURVE",
"106 -303 OFFCURVE",
"-80 -283 OFFCURVE",
"-80 -226 CURVE",
"-80 -183 OFFCURVE",
"-28 -123 OFFCURVE",
"7 -123 CURVE",
"44 -123 OFFCURVE",
"84 -150 OFFCURVE",
"155 -150 CURVE",
"479 -150 OFFCURVE",
"763 350 OFFCURVE",
"833 1744 CURVE",
"501 1765 OFFCURVE",
"211 1596 OFFCURVE",
"211 1275 CURVE",
"211 1242 OFFCURVE",
"192 1221 OFFCURVE",
"112 1212 CURVE",
"54 1205 OFFCURVE",
"3 1244 OFFCURVE",
"3 1298 CURVE",
"3 1709 OFFCURVE",
"455 1866 OFFCURVE",
"886 1866 CURVE",
"946 1866 OFFCURVE",
"972 1851 OFFCURVE",
"972 1810 CURVE",
"972 1549 OFFCURVE",
"971 1302 OFFCURVE",
"923 998 CURVE",
"1332 1226 OFFCURVE",
"1620 1472 OFFCURVE",
"1794 1705 CURVE",
"1869 1806 OFFCURVE",
"1894 1870 OFFCURVE",
"1941 1870 CURVE",
"2004 1870 OFFCURVE",
"2003 1809 OFFCURVE",
"1969 1730 CURVE",
"1889 1553 OFFCURVE",
"1606 1162 OFFCURVE",
"1082 896 CURVE",
"1273 257 OFFCURVE",
"1285 -185 OFFCURVE",
"1673 -167 CURVE",
"1742 -167 OFFCURVE",
"1813 -131 OFFCURVE",
"1862 -131 CURVE",
"1880 -131 OFFCURVE",
"1910 -160 OFFCURVE",
"1891 -207 CURVE",
"1863 -267 OFFCURVE",
"1682 -303 OFFCURVE",
"1590 -303 CURVE"
);
}
);
width = 1642;
}
);
unicode = 004B;
},
{
glyphname = L;
lastChange = "2013-12-17 15:54:39 -0800";
layers = (
{
background = {
paths = (
{
closed = 1;
nodes = (
"1438 372 OFFCURVE",
"1261 -292 OFFCURVE",
"546 -292 CURVE SMOOTH",
"54 -292 OFFCURVE",
"40 344 OFFCURVE",
"481 344 CURVE SMOOTH",
"1109 344 OFFCURVE",
"1511 -437 OFFCURVE",
"2058 -111 CURVE SMOOTH",
"2132 -67 OFFCURVE",
"2235 -233 OFFCURVE",
"2160 -286 CURVE SMOOTH",
"1560 -710 OFFCURVE",
"1015 120 OFFCURVE",
"484 115 CURVE SMOOTH",
"330 114 OFFCURVE",
"327 -91 OFFCURVE",
"556 -91 CURVE SMOOTH",
"829 -91 OFFCURVE",
"1244 227 OFFCURVE",
"1164 1023 CURVE SMOOTH",
"1158 1085 OFFCURVE",
"1155 1143 OFFCURVE",
"1155 1198 CURVE SMOOTH",
"1155 1788 OFFCURVE",
"1401 1968 OFFCURVE",
"1716 1997 CURVE SMOOTH",
"2695 2086 OFFCURVE",
"2861 619 OFFCURVE",
"763 1097 CURVE SMOOTH",
"662 1120 OFFCURVE",
"722 1318 OFFCURVE",
"836 1291 CURVE SMOOTH",
"2521 896 OFFCURVE",
"2364 1930 OFFCURVE",
"1684 1764 CURVE SMOOTH",
"1435 1703 OFFCURVE",
"1408 1546 OFFCURVE",
"1408 1023 CURVE"
);
}
);
};
layerId = "DE4BB00D-BABA-4D36-9D9A-44FD0E91C3DF";
name = Regular;
paths = (
{
closed = 1;
nodes = (
"1407 341 OFFCURVE",
"1227 -292 OFFCURVE",
"589 -292 CURVE",
"72 -292 OFFCURVE",
"60 264 OFFCURVE",
"481 264 CURVE",
"1069 264 OFFCURVE",
"1554 -502 OFFCURVE",
"2123 -162 CURVE",
"2216 -92 OFFCURVE",
"2215 -247 OFFCURVE",
"2160 -286 CURVE",
"1604 -679 OFFCURVE",
"1051 120 OFFCURVE",
"484 115 CURVE",
"241 114 OFFCURVE",
"286 -171 OFFCURVE",
"599 -171 CURVE",
"849 -171 OFFCURVE",
"1287 163 OFFCURVE",
"1203.8 1027 CURVE",
"1197.9 1087.96 OFFCURVE",
"1195 1144.03 OFFCURVE",
"1195 1198 CURVE",
"1195 1704 OFFCURVE",
"1347 1918 OFFCURVE",
"1645 1984 CURVE",
"2643 2223 OFFCURVE",
"2758 656 OFFCURVE",
"771.886 1136 CURVE",
"725.15 1146.64 OFFCURVE",
"762.053 1267.41 OFFCURVE",
"826.781 1252.08 CURVE",
"2504 853 OFFCURVE",
"2481 2025 OFFCURVE",
"1684 1844 CURVE",
"1405 1761 OFFCURVE",
"1377 1503 OFFCURVE",
"1377 1022 CURVE"
);
}
);
width = 1820;
}
);
unicode = 004C;
},
{
glyphname = M;
lastChange = "2013-12-27 01:14:08 -0800";
layers = (
{
background = {
paths = (
{
closed = 1;
nodes = (
"1869 -100 OFFCURVE",
"1756 21 OFFCURVE",
"1756 196 CURVE SMOOTH",
"1756 562 OFFCURVE",
"1968 967 OFFCURVE",
"1968 1324 CURVE SMOOTH",
"1968 1400 OFFCURVE",
"1933 1472 OFFCURVE",
"1861 1472 CURVE SMOOTH",
"1630 1472 OFFCURVE",
"1341 299 OFFCURVE",
"1298 32 CURVE SMOOTH",
"1286 -43 OFFCURVE",
"1229 -76 OFFCURVE",
"1172 -76 CURVE SMOOTH",
"1098 -76 OFFCURVE",
"991.999 -19 OFFCURVE",
"991.999 -19 CURVE",
"1153 715 LINE SMOOTH",
"1200 930 OFFCURVE",
"1225 1138 OFFCURVE",
"1225 1247 CURVE SMOOTH",
"1225 1346 OFFCURVE",
"1222 1474 OFFCURVE",
"1142 1474 CURVE SMOOTH",
"959 1474 OFFCURVE",
"627 517 OFFCURVE",
"570 234 CURVE SMOOTH",
"541 90 OFFCURVE",
"516 -71 OFFCURVE",
"385 -71 CURVE SMOOTH",
"326 -71 OFFCURVE",
"205 -30 OFFCURVE",
"213 3 CURVE SMOOTH",
"370 640 LINE SMOOTH",
"417 831 OFFCURVE",
"472 1157 OFFCURVE",
"472 1354 CURVE SMOOTH",
"472 1475 OFFCURVE",
"444 1521 OFFCURVE",
"403 1521 CURVE SMOOTH",
"310 1521 OFFCURVE",
"147 1280 OFFCURVE",
"89 1138 CURVE",
"84 1130 OFFCURVE",
"76 1127 OFFCURVE",
"65 1127 CURVE SMOOTH",
"15 1127 OFFCURVE",
"-78 1203 OFFCURVE",
"-78 1266 CURVE SMOOTH",
"-78 1279 OFFCURVE",
"-76 1293 OFFCURVE",
"-70 1308 CURVE SMOOTH",
"11 1512 OFFCURVE",
"263 1697 OFFCURVE",
"456 1697 CURVE SMOOTH",
"591 1697 OFFCURVE",
"697 1607 OFFCURVE",
"697 1372 CURVE SMOOTH",
"697 1276 OFFCURVE",
"678 1166 OFFCURVE",
"646 1051 CURVE",
"725 1294 OFFCURVE",
"914 1724 OFFCURVE",
"1207 1724 CURVE SMOOTH",
"1369 1724 OFFCURVE",
"1455 1587 OFFCURVE",
"1455 1439 CURVE SMOOTH",
"1455 1420 OFFCURVE",
"1447 1363 OFFCURVE",
"1437 1299 CURVE",
"1532 1498 OFFCURVE",
"1726 1736 OFFCURVE",
"1933 1736 CURVE SMOOTH",
"1952 1736 OFFCURVE",
"1972 1734 OFFCURVE",
"1991 1730 CURVE SMOOTH",
"2147 1695 OFFCURVE",
"2233 1564 OFFCURVE",
"2233 1376 CURVE SMOOTH",
"2233 979.999 OFFCURVE",
"2012 592 OFFCURVE",
"2012 236 CURVE SMOOTH",
"2012 167 OFFCURVE",
"2033 124 OFFCURVE",
"2096 124 CURVE SMOOTH",
"2198 124 OFFCURVE",
"2280 216 OFFCURVE",
"2333 271 CURVE SMOOTH",
"2380 319 OFFCURVE",
"2425 340 OFFCURVE",
"2460 340 CURVE SMOOTH",
"2496 340 OFFCURVE",
"2520 317 OFFCURVE",
"2520 279 CURVE SMOOTH",
"2520 262 OFFCURVE",
"2516 243 OFFCURVE",
"2506 221 CURVE SMOOTH",
"2432 54 OFFCURVE",
"2278 -100 OFFCURVE",
"2041 -100 CURVE SMOOTH"
);
}
);
};
layerId = "DE4BB00D-BABA-4D36-9D9A-44FD0E91C3DF";
name = Regular;
paths = (
{
closed = 1;
nodes = (
"733 1272 OFFCURVE",
"883 1723 OFFCURVE",
"1219 1730 CURVE",
"1409 1730 OFFCURVE",
"1480 1476 OFFCURVE",
"1426 1218 CURVE",
"1584 1550 OFFCURVE",
"1702 1738 OFFCURVE",
"1930 1734 CURVE",
"2045 1734 OFFCURVE",
"2205 1655 OFFCURVE",
"2205 1422 CURVE",
"2205 1037 OFFCURVE",
"1970 565 OFFCURVE",
"1970 199 CURVE",
"1970 116 OFFCURVE",
"2002 47 OFFCURVE",
"2094 47 CURVE",
"2214 47 OFFCURVE",
"2307 151 OFFCURVE",
"2360 206 CURVE",
"2400 247 OFFCURVE",
"2420 265 OFFCURVE",
"2450 265 CURVE",
"2467 265 OFFCURVE",
"2478 252 OFFCURVE",
"2481 240 CURVE",
"2483 230 OFFCURVE",
"2484 211 OFFCURVE",
"2473 186 CURVE",
"2409 64 OFFCURVE",
"2284 -72 OFFCURVE",
"2068 -97 CURVE",
"1890 -97 OFFCURVE",
"1794 5 OFFCURVE",
"1794 159 CURVE",
"1794 515 OFFCURVE",
"2020 1003 OFFCURVE",
"2020 1370 CURVE",
"2020 1459 OFFCURVE",
"1974 1558 OFFCURVE",
"1873 1558 CURVE",
"1601 1558 OFFCURVE",
"1301 291 OFFCURVE",
"1257 12 CURVE",
"1248 -40 OFFCURVE",
"1212 -62 OFFCURVE",
"1170 -62 CURVE",
"1127 -62 OFFCURVE",
"1021 -64 OFFCURVE",
"1036 -23 CURVE",
"1192.07 706.43 LINE",
"1252 969 OFFCURVE",
"1277 1182 OFFCURVE",
"1277 1293 CURVE",
"1277 1394 OFFCURVE",
"1275 1560 OFFCURVE",
"1154 1560 CURVE",
"932 1560 OFFCURVE",
"588 500 OFFCURVE",
"529 204 CURVE",
"500 62 OFFCURVE",
"478 -68 OFFCURVE",
"383 -68 CURVE",
"207 -68 OFFCURVE",
"247 -17 OFFCURVE",
"258 31 CURVE",
"410 575 OFFCURVE",
"524 1200 OFFCURVE",
"524 1400 CURVE",
"524 1538 OFFCURVE",
"485 1592 OFFCURVE",
"415 1592 CURVE",
"299 1592 OFFCURVE",
"139 1370 OFFCURVE",
"73 1214 CURVE",
"73 1214 OFFCURVE",
"65 1204 OFFCURVE",
"53 1212 CURVE",
"23 1227 OFFCURVE",
"-26 1274 OFFCURVE",
"-26 1312 CURVE",
"-26 1322 OFFCURVE",
"-25 1329 OFFCURVE",
"-21 1339 CURVE",
"55 1529 OFFCURVE",
"238 1703 OFFCURVE",
"468 1703 CURVE",
"583 1703 OFFCURVE",
"669 1629 OFFCURVE",
"669 1418 CURVE",
"669 1325 OFFCURVE",
"637 1033 OFFCURVE",
"605 920 CURVE"
);
}
);
width = 2282.26;
}
);
unicode = 004D;
},
{
glyphname = N;
lastChange = "2013-12-22 16:27:45 -0800";
layers = (
{
background = {
paths = (
{
closed = 1;
nodes = (
"1006 50 OFFCURVE",
"1092 -92 OFFCURVE",
"1361 -92 CURVE SMOOTH",
"1484 -92 OFFCURVE",
"1653 -12 OFFCURVE",
"1754 86 CURVE SMOOTH",
"1909 238 OFFCURVE",
"1760 357 OFFCURVE",
"1654 242 CURVE SMOOTH",
"1489 63 OFFCURVE",
"1218 47 OFFCURVE",
"1240 298 CURVE SMOOTH",
"1271 640 OFFCURVE",
"1552 1148 OFFCURVE",
"1552 1447 CURVE SMOOTH",
"1552 1598 OFFCURVE",
"1456 1709 OFFCURVE",
"1279 1728 CURVE SMOOTH",
"910 1768 OFFCURVE",
"568 1209 OFFCURVE",
"458 835 CURVE",
"486 1016 OFFCURVE",
"520 1262 OFFCURVE",
"520 1396 CURVE SMOOTH",
"520 1579 OFFCURVE",
"422 1711 OFFCURVE",
"253 1696 CURVE SMOOTH",
"133 1685 OFFCURVE",
"18 1592 OFFCURVE",
"-60 1462 CURVE SMOOTH",
"-143 1323 OFFCURVE",
"8 1227 OFFCURVE",
"91 1342 CURVE SMOOTH",
"174 1457 OFFCURVE",
"218 1505 OFFCURVE",
"259 1499 CURVE SMOOTH",
"289 1495 OFFCURVE",
"294 1468 OFFCURVE",
"294 1440 CURVE SMOOTH",
"294 1095 OFFCURVE",
"147 552 OFFCURVE",
"63 122 CURVE SMOOTH",
"61 113 OFFCURVE",
"60 105 OFFCURVE",
"60 96 CURVE SMOOTH",
"60 21 OFFCURVE",
"121 -46 OFFCURVE",
"199 -46 CURVE SMOOTH",
"276 -46 OFFCURVE",
"326 -10 OFFCURVE",
"347 53 CURVE SMOOTH",
"548 644 OFFCURVE",
"903 1474 OFFCURVE",
"1176 1474 CURVE SMOOTH",
"1256 1474 OFFCURVE",
"1288 1414 OFFCURVE",
"1288 1347 CURVE SMOOTH",
"1288 1142 OFFCURVE",
"1006 605 OFFCURVE",
"1006 248 CURVE SMOOTH"
);
}
);
};
layerId = "DE4BB00D-BABA-4D36-9D9A-44FD0E91C3DF";
name = Regular;
paths = (
{
closed = 1;
nodes = (
"1046 27 OFFCURVE",
"1121 -92 OFFCURVE",
"1361 -92 CURVE",
"1473 -92 OFFCURVE",
"1631 -17 OFFCURVE",
"1726 75 CURVE",
"1839 185 OFFCURVE",
"1755 253 OFFCURVE",
"1683 175 CURVE",
"1502 -22 OFFCURVE",
"1173 -44 OFFCURVE",
"1200 261 CURVE",
"1232 612 OFFCURVE",
"1512 1198 OFFCURVE",
"1512 1486 CURVE",
"1512 1617 OFFCURVE",
"1430 1711 OFFCURVE",
"1275 1728 CURVE",
"935 1765 OFFCURVE",
"573 1161 OFFCURVE",
"451 807 CURVE",
"522 1229 OFFCURVE",
"575 1699 OFFCURVE",
"297 1699 CURVE",
"133 1695 OFFCURVE",
"48 1606 OFFCURVE",
"-26 1484 CURVE",
"-82 1390 OFFCURVE",
"5 1334 OFFCURVE",
"59 1408 CURVE",
"145 1528 OFFCURVE",
"199 1591 OFFCURVE",
"265 1581 CURVE",
"264 1581 LINE",
"323 1573 OFFCURVE",
"346 1530 OFFCURVE",
"350 1482 CURVE",
"369 1113 OFFCURVE",
"276 495 OFFCURVE",
"123 67 CURVE",
"107 25 OFFCURVE",
"127 -46 OFFCURVE",
"199 -46 CURVE",
"259 -46 OFFCURVE",
"293 -21 OFFCURVE",
"309 26 CURVE",
"513 624 OFFCURVE",
"903 1579 OFFCURVE",
"1208 1579 CURVE",
"1316 1579 OFFCURVE",
"1360 1493 OFFCURVE",
"1360 1412 CURVE",
"1360 1198 OFFCURVE",
"1046 555 OFFCURVE",
"1046 208 CURVE"
);
}
);
width = 1575;
}
);
unicode = 004E;
},
{
glyphname = O;
lastChange = "2013-12-17 01:48:16 -0800";
layers = (
{
background = {
paths = (
{
closed = 1;
nodes = (
"1383 -70 OFFCURVE",
"1575 644 OFFCURVE",
"1575 1041 CURVE SMOOTH",
"1575 1333 OFFCURVE",
"1460 1638 OFFCURVE",
"1157 1638 CURVE SMOOTH",
"649 1638 OFFCURVE",
"411 965 OFFCURVE",
"411 536 CURVE SMOOTH",
"411 278 OFFCURVE",
"561 -70 OFFCURVE",
"882 -70 CURVE SMOOTH"
);
},
{
closed = 1;
nodes = (
"396 -303 OFFCURVE",
"150 146 OFFCURVE",
"150 543 CURVE SMOOTH",
"150 1186 OFFCURVE",
"524 1867 OFFCURVE",
"1143 1867 CURVE SMOOTH",
"1606 1867 OFFCURVE",
"1845 1458 OFFCURVE",
"1845 991.999 CURVE SMOOTH",
"1845 438 OFFCURVE",
"1513 -303 OFFCURVE",
"863 -303 CURVE SMOOTH"
);
}
);
};
layerId = "DE4BB00D-BABA-4D36-9D9A-44FD0E91C3DF";
name = Regular;
paths = (
{
closed = 1;
nodes = (
"1418 -150 OFFCURVE",
"1615 634.706 OFFCURVE",
"1615 1041 CURVE",
"1615 1344.3 OFFCURVE",
"1492 1720 OFFCURVE",
"1157 1720 CURVE",
"617 1720 OFFCURVE",
"371 975.874 OFFCURVE",
"371 536 CURVE",
"371 265.731 OFFCURVE",
"531 -150 OFFCURVE",
"882 -150 CURVE"
);
},
{
closed = 1;
nodes = (
"424 -303 OFFCURVE",
"190 160.24 OFFCURVE",
"190 543 CURVE",
"190 1169.75 OFFCURVE",
"554 1869 OFFCURVE",
"1143 1869 CURVE",
"1577 1869 OFFCURVE",
"1805 1441.19 OFFCURVE",
"1805 991.999 CURVE",
"1805 450.551 OFFCURVE",
"1483 -303 OFFCURVE",
"863 -303 CURVE"
);
}
);
width = 1853;
}
);
unicode = 004F;
},
{
glyphname = P;
lastChange = "2013-12-27 18:23:54 -0800";
layers = (
{
background = {
paths = (
{
closed = 1;
nodes = (
"510 1736 OFFCURVE",
"375 1140 OFFCURVE",
"375 647 CURVE SMOOTH",
"375 358 OFFCURVE",
"395 -60 OFFCURVE",
"570 -60 CURVE SMOOTH",
"731 -60 OFFCURVE",
"710 309 OFFCURVE",
"772 740 CURVE",
"660 785 OFFCURVE",
"533 813 OFFCURVE",
"533 954 CURVE SMOOTH",
"533 996.999 OFFCURVE",
"533 1051 OFFCURVE",
"576 1051 CURVE SMOOTH",
"638 1051 OFFCURVE",
"745 978.999 OFFCURVE",
"804 966 CURVE",
"874 1224 OFFCURVE",
"885 1492 OFFCURVE",
"1083 1492 CURVE SMOOTH",
"1142 1492 OFFCURVE",
"1209 1469 OFFCURVE",
"1209 1409 CURVE SMOOTH",
"1209 1400 OFFCURVE",
"1208 1400 OFFCURVE",
"1208 1393 CURVE",
"1175 1280 OFFCURVE",
"1054 1092 OFFCURVE",
"1043 957 CURVE",
"1484 1007 OFFCURVE",
"1605 1249 OFFCURVE",
"1605 1416 CURVE SMOOTH",
"1605 1586 OFFCURVE",
"1422 1790 OFFCURVE",
"998.999 1765 CURVE SMOOTH"
);
},
{
closed = 1;
nodes = (
"118 1400 OFFCURVE",
"405 1978 OFFCURVE",
"1022 2000 CURVE SMOOTH",
"1588 2020 OFFCURVE",
"1882 1724 OFFCURVE",
"1882 1437 CURVE SMOOTH",
"1882 1164 OFFCURVE",
"1683 821 OFFCURVE",
"1020 747 CURVE",
"1022 747 OFFCURVE",
"981.999 447 OFFCURVE",
"969.999 345 CURVE SMOOTH",
"929 -15 OFFCURVE",
"844 -293 OFFCURVE",
"536 -293 CURVE SMOOTH",
"216 -293 OFFCURVE",
"118 154 OFFCURVE",
"118 647 CURVE SMOOTH"
);
}
);
};
layerId = "DE4BB00D-BABA-4D36-9D9A-44FD0E91C3DF";
name = Regular;
paths = (
{
closed = 1;
nodes = (
"331 1814 OFFCURVE",
"177 1148 OFFCURVE",
"177 647 CURVE",
"177 351 OFFCURVE",
"193 -136 OFFCURVE",
"412 -136 CURVE",
"624 -136 OFFCURVE",
"609 442 OFFCURVE",
"662 788 CURVE",
"587 796 OFFCURVE",
"415 836 OFFCURVE",
"415 954 CURVE",
"415 973 OFFCURVE",
"414 1013 OFFCURVE",
"432 1005 CURVE",
"462 991 OFFCURVE",
"595 920 OFFCURVE",
"676 920 CURVE",
"732 1224 OFFCURVE",
"760 1452 OFFCURVE",
"925 1452 CURVE",
"989 1452 OFFCURVE",
"1023 1421 OFFCURVE",
"1010 1399 CURVE",
"865 1152 OFFCURVE",
"846 913 OFFCURVE",
"846 913 CURVE",
"1350 929 OFFCURVE",
"1487 1228 OFFCURVE",
"1487 1416 CURVE",
"1487 1607 OFFCURVE",
"1302 1871 OFFCURVE",
"854 1845 CURVE"
);
},
{
closed = 1;
nodes = (
"0 1387 OFFCURVE",
"292 1979 OFFCURVE",
"881 2000 CURVE",
"1424 2019 OFFCURVE",
"1684 1702 OFFCURVE",
"1684 1437 CURVE",
"1684 1181 OFFCURVE",
"1428 798 OFFCURVE",
"838 780 CURVE",
"828 780 LINE",
"828 780 OFFCURVE",
"788 486 OFFCURVE",
"772 350 CURVE",
"732 -41 OFFCURVE",
"654 -289 OFFCURVE",
"378 -289 CURVE",
"94 -289 OFFCURVE",
"0 162 OFFCURVE",
"0 647 CURVE"
);
}
);
width = 1374;
}
);
unicode = 0050;
},
{
glyphname = Q;
lastChange = "2013-12-17 01:55:55 -0800";
layers = (
{
background = {
paths = (
{
closed = 1;
nodes = (
"844 518 OFFCURVE",
"1035 550 OFFCURVE",
"1041 492 CURVE SMOOTH",
"1135 -403 OFFCURVE",
"1368 -752 OFFCURVE",
"1590 -752 CURVE SMOOTH",
"1645 -752 OFFCURVE",
"1703 -741 OFFCURVE",
"1763 -728 CURVE",
"1772 -722 OFFCURVE",
"1782 -719 OFFCURVE",
"1792 -719 CURVE SMOOTH",
"1836 -719 OFFCURVE",
"1884 -773 OFFCURVE",
"1884 -821 CURVE SMOOTH",
"1884 -841 OFFCURVE",
"1875 -860 OFFCURVE",
"1855 -874 CURVE",
"1804 -896 OFFCURVE",
"1733 -963 OFFCURVE",
"1515 -963 CURVE SMOOTH",
"1058 -963 OFFCURVE",
"934 -343 OFFCURVE",
"850 460 CURVE SMOOTH"
);
},
{
closed = 1;
nodes = (
"1383 -70 OFFCURVE",
"1575 644 OFFCURVE",
"1575 1041 CURVE SMOOTH",
"1575 1333 OFFCURVE",
"1460 1638 OFFCURVE",
"1157 1638 CURVE SMOOTH",
"649 1638 OFFCURVE",
"411 965 OFFCURVE",
"411 536 CURVE SMOOTH",
"411 278 OFFCURVE",
"561 -70 OFFCURVE",
"882 -70 CURVE SMOOTH"
);
},
{
closed = 1;
nodes = (
"396 -303 OFFCURVE",
"150 146 OFFCURVE",
"150 543 CURVE SMOOTH",
"150 1186 OFFCURVE",
"524 1867 OFFCURVE",
"1143 1867 CURVE SMOOTH",
"1606 1867 OFFCURVE",
"1845 1458 OFFCURVE",
"1845 991.999 CURVE SMOOTH",
"1845 438 OFFCURVE",
"1513 -303 OFFCURVE",
"863 -303 CURVE SMOOTH"
);
}
);
};
layerId = "DE4BB00D-BABA-4D36-9D9A-44FD0E91C3DF";
name = Regular;
paths = (
{
closed = 1;
nodes = (
"1418 -150 OFFCURVE",
"1615 635 OFFCURVE",
"1615 1041 CURVE",
"1615 1344.3 OFFCURVE",
"1492 1717 OFFCURVE",
"1157 1717 CURVE",
"617 1717 OFFCURVE",
"371 975.874 OFFCURVE",
"371 536 CURVE",
"371 265.731 OFFCURVE",
"531 -150 OFFCURVE",
"882 -150 CURVE"
);
},
{
closed = 1;
nodes = (
"424 -303 OFFCURVE",
"190 160.24 OFFCURVE",
"190 543 CURVE",
"190 1169.75 OFFCURVE",
"554 1866 OFFCURVE",
"1143 1866 CURVE",
"1577 1866 OFFCURVE",
"1805 1441.19 OFFCURVE",
"1805 991.999 CURVE",
"1805 451 OFFCURVE",
"1483 -303 OFFCURVE",
"863 -303 CURVE"
);
},
{
closed = 1;
nodes = (
"887 490 OFFCURVE",
"1001 504 OFFCURVE",
"1001 479 CURVE",
"1097 -434 OFFCURVE",
"1364 -816 OFFCURVE",
"1616 -816 CURVE",
"1677 -816 OFFCURVE",
"1741 -804 OFFCURVE",
"1804 -790 CURVE",
"1815 -787 OFFCURVE",
"1825 -784 OFFCURVE",
"1834 -786 CURVE",
"1851 -789 OFFCURVE",
"1870 -818 OFFCURVE",
"1870 -836 CURVE",
"1870 -853 OFFCURVE",
"1860 -861 OFFCURVE",
"1833 -877 CURVE",
"1801 -895 OFFCURVE",
"1700 -947 OFFCURVE",
"1541 -947 CURVE",
"1121 -947 OFFCURVE",
"973 -342 OFFCURVE",
"890 456 CURVE"
);
}
);
width = 1853;
}
);
unicode = 0051;
},
{
glyphname = R;
lastChange = "2013-12-22 15:47:55 -0800";
layers = (
{
background = {
paths = (
{
closed = 1;
nodes = (
"1028 139 OFFCURVE",
"921 -300 OFFCURVE",
"593 -302 CURVE",
"465 -303 OFFCURVE",
"139 -298 OFFCURVE",
"139 585 CURVE SMOOTH",
"139 1869 OFFCURVE",
"832 1980 OFFCURVE",
"1138 1978 CURVE SMOOTH",
"1531 1975 OFFCURVE",
"1892 1773 OFFCURVE",
"1887 1418 CURVE SMOOTH",
"1882 1089 OFFCURVE",
"1561 925 OFFCURVE",
"1406 906 CURVE",
"1602 6 OFFCURVE",
"1806 -67 OFFCURVE",
"1906 -67 CURVE",
"1978 -67 OFFCURVE",
"2000 -64 OFFCURVE",
"2072 -39 CURVE",
"2121 -22 OFFCURVE",
"2173 -42 OFFCURVE",
"2186 -85 CURVE SMOOTH",
"2198 -125 OFFCURVE",
"2164 -274 OFFCURVE",
"1872 -278 CURVE SMOOTH",
"1337 -285 OFFCURVE",
"1223 668 OFFCURVE",
"1184 880 CURVE",
"750 861 OFFCURVE",
"640 953 OFFCURVE",
"669 1060 CURVE",
"693 1157 OFFCURVE",
"839 1064 OFFCURVE",
"1044 1064 CURVE",
"1479 1049 OFFCURVE",
"1618 1230 OFFCURVE",
"1618 1396 CURVE SMOOTH",
"1618 1562 OFFCURVE",
"1399 1748 OFFCURVE",
"1088 1748 CURVE",
"370 1748 OFFCURVE",
"389 772 OFFCURVE",
"389 597 CURVE",
"389 422 OFFCURVE",
"405 -73 OFFCURVE",
"589 -73 CURVE SMOOTH",
"891 -73 OFFCURVE",
"716 1460 OFFCURVE",
"1087 1472 CURVE",
"1293 1476 OFFCURVE",
"1098 1305 OFFCURVE",
"1078 973 CURVE SMOOTH"
);
}
);
};
layerId = "DE4BB00D-BABA-4D36-9D9A-44FD0E91C3DF";
name = Regular;
paths = (
{
closed = 1;
nodes = (
"998.454 147.478 OFFCURVE",
"893 -299 OFFCURVE",
"593 -301 CURVE",
"469 -302 OFFCURVE",
"169 -293 OFFCURVE",
"169 585 CURVE",
"169 1841.42 OFFCURVE",
"859 1977 OFFCURVE",
"1161 1975 CURVE",
"1542 1972 OFFCURVE",
"1861.69 1751.55 OFFCURVE",
"1857 1418.42 CURVE",
"1851.93 1084.51 OFFCURVE",
"1499.2 929.699 OFFCURVE",
"1369.76 932.932 CURVE",
"1573 -52 OFFCURVE",
"1821 -126 OFFCURVE",
"1936 -126 CURVE",
"2010 -126 OFFCURVE",
"2037 -122 OFFCURVE",
"2112 -96 CURVE",
"2147 -84 OFFCURVE",
"2180 -98 OFFCURVE",
"2187 -123 CURVE",
"2195 -168 OFFCURVE",
"2118 -277 OFFCURVE",
"1902 -277 CURVE",
"1606 -284 OFFCURVE",
"1351 47 OFFCURVE",
"1208.54 911.114 CURVE",
"774.162 888.55 OFFCURVE",
"676.049 971.325 OFFCURVE",
"697.955 1052.15 CURVE",
"698.122 1052.79 LINE",
"713.06 1113.17 OFFCURVE",
"827 1064 OFFCURVE",
"1044 1064 CURVE",
"1500 1048 OFFCURVE",
"1648 1213.81 OFFCURVE",
"1648 1396 CURVE",
"1648 1579.9 OFFCURVE",
"1437 1805 OFFCURVE",
"1111 1805 CURVE",
"362 1805 OFFCURVE",
"359 771.708 OFFCURVE",
"359 597 CURVE",
"359 417.492 OFFCURVE",
"372 -132 OFFCURVE",
"589 -132 CURVE",
"927 -132 OFFCURVE",
"747.499 1431 OFFCURVE",
"1087.97 1442.02 CURVE",
"1245.11 1445.06 OFFCURVE",
"1070.69 1350.49 OFFCURVE",
"1048.05 974.804 CURVE"
);
}
);
width = 2036;
}
);
unicode = 0052;
},
{
glyphname = S;
lastChange = "2013-12-24 02:11:33 -0800";
layers = (
{
background = {
paths = (
{
closed = 1;
nodes = (
"372 375 OFFCURVE",
"336 321 OFFCURVE",
"336 244 CURVE SMOOTH",
"336 7 OFFCURVE",
"515 -118 OFFCURVE",
"805 -118 CURVE SMOOTH",
"1142 -118 OFFCURVE",
"1282 33 OFFCURVE",
"1282 234 CURVE SMOOTH",
"1282 491 OFFCURVE",
"1010 576 OFFCURVE",
"766 738 CURVE SMOOTH",
"522 900 OFFCURVE",
"313 1012 OFFCURVE",
"313 1320 CURVE SMOOTH",
"313 1650 OFFCURVE",
"656 1841 OFFCURVE",
"989.999 1850 CURVE SMOOTH",
"1333 1860 OFFCURVE",
"1599 1702 OFFCURVE",
"1603 1401 CURVE SMOOTH",
"1605 1262 OFFCURVE",
"1552 1151 OFFCURVE",
"1495 1083 CURVE SMOOTH",
"1354 914 OFFCURVE",
"1206 1066 OFFCURVE",
"1296 1181 CURVE SMOOTH",
"1341 1238 OFFCURVE",
"1379 1305 OFFCURVE",
"1379 1402 CURVE SMOOTH",
"1379 1557 OFFCURVE",
"1208 1645 OFFCURVE",
"1016 1645 CURVE SMOOTH",
"810 1645 OFFCURVE",
"575 1514 OFFCURVE",
"575 1344 CURVE SMOOTH",
"575 1142 OFFCURVE",
"666 1113 OFFCURVE",
"1032 883 CURVE SMOOTH",
"1336 692 OFFCURVE",
"1543 592 OFFCURVE",
"1543 255 CURVE SMOOTH",
"1543 -112 OFFCURVE",
"1223 -333 OFFCURVE",
"790 -333 CURVE SMOOTH",
"434 -333 OFFCURVE",
"87 -150 OFFCURVE",
"87 243 CURVE SMOOTH",
"87 384 OFFCURVE",
"168 520 OFFCURVE",
"296 520 CURVE SMOOTH",
"341 520 OFFCURVE",
"372 493 OFFCURVE",
"372 443 CURVE SMOOTH"
);
}
);
};
layerId = "DE4BB00D-BABA-4D36-9D9A-44FD0E91C3DF";
name = Regular;
paths = (
{
closed = 1;
nodes = (
"332 365 OFFCURVE",
"296 315 OFFCURVE",
"296 224 CURVE",
"296 -40 OFFCURVE",
"496 -188 OFFCURVE",
"805 -188 CURVE",
"1165 -188 OFFCURVE",
"1310 -9 OFFCURVE",
"1310 214 CURVE",
"1310 498 OFFCURVE",
"1026 595 OFFCURVE",
"788 752 CURVE",
"543 915 OFFCURVE",
"334 1060 OFFCURVE",
"334 1344 CURVE",
"334 1647 OFFCURVE",
"670 1841 OFFCURVE",
"990 1850 CURVE",
"1316 1860 OFFCURVE",
"1559 1697 OFFCURVE",
"1563 1424 CURVE",
"1565 1297 OFFCURVE",
"1517 1195 OFFCURVE",
"1464 1133 CURVE",
"1360 1008 OFFCURVE",
"1267 1103 OFFCURVE",
"1328 1180 CURVE",
"1374 1240 OFFCURVE",
"1419 1318 OFFCURVE",
"1419 1426 CURVE",
"1419 1611 OFFCURVE",
"1223 1725 OFFCURVE",
"1015 1725 CURVE",
"793 1725 OFFCURVE",
"535 1568 OFFCURVE",
"535 1368 CURVE",
"535 1139 OFFCURVE",
"651 1099 OFFCURVE",
"1010.72 849.132 CURVE",
"1316.6 656.949 OFFCURVE",
"1503 547 OFFCURVE",
"1503 235 CURVE",
"1503 -105 OFFCURVE",
"1205 -333 OFFCURVE",
"790 -333 CURVE",
"448 -333 OFFCURVE",
"127 -142 OFFCURVE",
"127 223 CURVE",
"127 347 OFFCURVE",
"197 460 OFFCURVE",
"296 460 CURVE",
"320 460 OFFCURVE",
"332 449 OFFCURVE",
"332 423 CURVE"
);
}
);
width = 1641;
}
);
unicode = 0053;
},
{
glyphname = T;
lastChange = "2013-12-27 18:24:13 -0800";
layers = (
{
background = {
paths = (
{
closed = 1;
nodes = (
"258 1326 OFFCURVE",
"32 1308 OFFCURVE",
"62 1450 CURVE SMOOTH",
"231 2254 OFFCURVE",
"1429 1732 OFFCURVE",
"2299 1852 CURVE SMOOTH",
"2531 1884 OFFCURVE",
"2415 1664 OFFCURVE",
"2348 1650 CURVE SMOOTH",
"2138 1606 OFFCURVE",
"2023 1614 OFFCURVE",
"1443 1644 CURVE",
"1117 777 OFFCURVE",
"1032 199 OFFCURVE",
"1012 75 CURVE SMOOTH",
"995.999 -24 OFFCURVE",
"941 -74 OFFCURVE",
"849 -74 CURVE SMOOTH",
"760 -74 OFFCURVE",
"704 -18 OFFCURVE",
"702 60 CURVE SMOOTH",
"699 160 OFFCURVE",
"688 402 OFFCURVE",
"1211 1656 CURVE",
"511 1740 OFFCURVE",
"522 1614 OFFCURVE",
"314 1387 CURVE SMOOTH"
);
},
{
closed = 1;
nodes = (
"271 1369 OFFCURVE",
"97 1398 OFFCURVE",
"141 1561 CURVE",
"315 2242 OFFCURVE",
"1430 1728 OFFCURVE",
"2318 1851 CURVE",
"2353 1728 LINE",
"2145 1684 OFFCURVE",
"2035 1686 OFFCURVE",
"1429 1717 CURVE",
"1093 831 OFFCURVE",
"979 166 OFFCURVE",
"959 41 CURVE",
"946 -38 OFFCURVE",
"906 -74 OFFCURVE",
"836 -74 CURVE",
"769 -74 OFFCURVE",
"730 -35 OFFCURVE",
"729 21 CURVE",
"726 121 OFFCURVE",
"742 441 OFFCURVE",
"1281 1728 CURVE",
"488 1831 OFFCURVE",
"355 1661 OFFCURVE",
"298 1452 CURVE"
);
}
);
};
layerId = "DE4BB00D-BABA-4D36-9D9A-44FD0E91C3DF";
name = Regular;
paths = (
{
closed = 1;
nodes = (
"137 1369 OFFCURVE",
"-37 1398 OFFCURVE",
"7 1561 CURVE",
"166 2221 OFFCURVE",
"1419 1601 OFFCURVE",
"2184 1722 CURVE SMOOTH",
"2245 1732 OFFCURVE",
"2260 1625 OFFCURVE",
"2219 1599 CURVE SMOOTH",
"2086 1515 OFFCURVE",
"1743 1537 OFFCURVE",
"1295 1582 CURVE",
"959 696 OFFCURVE",
"824 270 OFFCURVE",
"787 41 CURVE",
"774 -38 OFFCURVE",
"750 -74 OFFCURVE",
"680 -74 CURVE",
"613 -74 OFFCURVE",
"596 -35 OFFCURVE",
"595 21 CURVE",
"592 121 OFFCURVE",
"608 312 OFFCURVE",
"1147 1599 CURVE",
"354 1702 OFFCURVE",
"221 1661 OFFCURVE",
"164 1452 CURVE"
);
}
);
width = 1142.09;
}
);
unicode = 0054;
},
{
glyphname = U;
lastChange = "2013-12-17 15:57:35 -0800";
layers = (
{
background = {
paths = (
{
closed = 1;
nodes = (
"603 1225 OFFCURVE",
"442 948 OFFCURVE",
"442 578 CURVE SMOOTH",
"442 176 OFFCURVE",
"549 64 OFFCURVE",
"731 64 CURVE SMOOTH",
"1212 64 OFFCURVE",
"1304 1124 OFFCURVE",
"1328 1568 CURVE SMOOTH",
"1334 1677 OFFCURVE",
"1390 1728 OFFCURVE",
"1503 1728 CURVE SMOOTH",
"1589 1728 OFFCURVE",
"1616 1681 OFFCURVE",
"1616 1593 CURVE SMOOTH",
"1616 940 OFFCURVE",
"1484 373 OFFCURVE",
"1160 48 CURVE SMOOTH",
"1048 -65 OFFCURVE",
"901 -160 OFFCURVE",
"700 -160 CURVE SMOOTH",
"295 -160 OFFCURVE",
"176 183 OFFCURVE",
"176 588 CURVE SMOOTH",
"176 923 OFFCURVE",
"258 1222 OFFCURVE",
"346 1472 CURVE SMOOTH",
"375 1556 OFFCURVE",
"399 1632 OFFCURVE",
"500 1632 CURVE SMOOTH",
"588 1632 OFFCURVE",
"657 1625 OFFCURVE",
"657 1537 CURVE SMOOTH",
"657 1529 LINE"
);
}
);
};
layerId = "DE4BB00D-BABA-4D36-9D9A-44FD0E91C3DF";
name = Regular;
paths = (
{
closed = 1;
nodes = (
"564 1284 OFFCURVE",
"402 955.297 OFFCURVE",
"402 578 CURVE",
"402 153.935 OFFCURVE",
"526 -16 OFFCURVE",
"731 -16 CURVE",
"1253 -16 OFFCURVE",
"1344 1163 OFFCURVE",
"1368 1611 CURVE",
"1373 1698 OFFCURVE",
"1411 1733 OFFCURVE",
"1503 1733 CURVE",
"1560 1733 OFFCURVE",
"1576 1710 OFFCURVE",
"1576 1638 CURVE",
"1576 992 OFFCURVE",
"1446 352 OFFCURVE",
"1132 36 CURVE",
"1024 -72 OFFCURVE",
"887 -160 OFFCURVE",
"700 -160 CURVE",
"327 -160 OFFCURVE",
"216 193.742 OFFCURVE",
"216 588 CURVE",
"216 917.614 OFFCURVE",
"296 1255 OFFCURVE",
"384 1504 CURVE",
"413 1589 OFFCURVE",
"428 1637 OFFCURVE",
"500 1637 CURVE",
"584 1637 OFFCURVE",
"617 1632 OFFCURVE",
"617 1582 CURVE",
"617 1578 LINE"
);
}
);
width = 1592;
}
);
unicode = 0055;
},
{
glyphname = V;
lastChange = "2013-12-17 15:59:16 -0800";
layers = (
{
background = {
paths = (
{
closed = 1;
nodes = (
"513 -166 OFFCURVE",
"449 -187 OFFCURVE",
"360 -170 CURVE SMOOTH",
"247 -148 OFFCURVE",
"219 -97 OFFCURVE",
"189 363 CURVE SMOOTH",
"110 1567 LINE",
"109 1575 OFFCURVE",
"109 1583 OFFCURVE",
"109 1590 CURVE SMOOTH",
"109 1683 OFFCURVE",
"156 1730 OFFCURVE",
"251 1730 CURVE SMOOTH",
"347 1730 OFFCURVE",
"368 1675 OFFCURVE",
"372 1580 CURVE SMOOTH",
"459 139 LINE",
"1268 1559 LINE SMOOTH",
"1310 1636 OFFCURVE",
"1381 1686 OFFCURVE",
"1437 1686 CURVE SMOOTH",
"1572 1686 OFFCURVE",
"1570 1626 OFFCURVE",
"1440 1394 CURVE SMOOTH",
"606 0 LINE SMOOTH"
);
}
);
};
layerId = "DE4BB00D-BABA-4D36-9D9A-44FD0E91C3DF";
name = Regular;
paths = (
{
closed = 1;
nodes = (
"468 -171 OFFCURVE",
"424 -182 OFFCURVE",
"360 -170 CURVE",
"273 -153 OFFCURVE",
"250 -117 OFFCURVE",
"221 326 CURVE",
"149 1623 LINE",
"149 1625 OFFCURVE",
"149 1628 OFFCURVE",
"149 1630 CURVE",
"149 1701 OFFCURVE",
"178 1730 OFFCURVE",
"251 1730 CURVE",
"315 1730 OFFCURVE",
"328 1703 OFFCURVE",
"332 1618 CURVE",
"332 1618 LINE",
"420 -3 LINE",
"1325 1574 LINE",
"1325 1575 LINE",
"1379 1672 OFFCURVE",
"1420 1681 OFFCURVE",
"1459 1681 CURVE",
"1547 1681 OFFCURVE",
"1513 1597 OFFCURVE",
"1474 1528 CURVE",
"533 -71 LINE"
);
}
);
width = 1236;
}
);
unicode = 0056;
},
{
glyphname = W;
lastChange = "2013-12-23 17:03:39 -0800";
layers = (
{
background = {
paths = (
{
closed = 1;
nodes = (
"1997 540 LINE",
"1880 208 OFFCURVE",
"2204 305 OFFCURVE",
"2384 449 CURVE",
"2458 339 LINE",
"2143 9 OFFCURVE",
"1723 79 OFFCURVE",
"1749 546 CURVE"
);
},
{
closed = 1;
nodes = (
"2105 742 OFFCURVE",
"1903 -121 OFFCURVE",
"1422 -101 CURVE SMOOTH",
"1126 -89 OFFCURVE",
"1031 246 OFFCURVE",
"1036 535 CURVE",
"955 226 OFFCURVE",
"727 -98 OFFCURVE",
"430 -98 CURVE SMOOTH",
"123 -98 OFFCURVE",
"55 162 OFFCURVE",
"73 495 CURVE SMOOTH",
"93 872 OFFCURVE",
"261 1372 OFFCURVE",
"332 1541 CURVE SMOOTH",
"376 1643 OFFCURVE",
"408 1751 OFFCURVE",
"530 1751 CURVE SMOOTH",
"587 1751 OFFCURVE",
"632 1734 OFFCURVE",
"630 1683 CURVE",
"630 1675 OFFCURVE",
"628 1667 OFFCURVE",
"626 1659 CURVE SMOOTH",
"583 1505 OFFCURVE",
"530 1335 OFFCURVE",
"485 1190 CURVE SMOOTH",
"454 1091 OFFCURVE",
"341 719 OFFCURVE",
"328 457 CURVE SMOOTH",
"318 282 OFFCURVE",
"359 145 OFFCURVE",
"466 145 CURVE SMOOTH",
"687 145 OFFCURVE",
"864 474 OFFCURVE",
"950 786 CURVE SMOOTH",
"1001 970.999 OFFCURVE",
"1080 1270 OFFCURVE",
"1137 1509 CURVE SMOOTH",
"1165 1627 OFFCURVE",
"1196 1710 OFFCURVE",
"1307 1710 CURVE SMOOTH",
"1369 1710 OFFCURVE",
"1426 1687 OFFCURVE",
"1409 1612 CURVE SMOOTH",
"1384 1502 OFFCURVE",
"1358 1379 OFFCURVE",
"1312 1168 CURVE SMOOTH",
"1223 764 OFFCURVE",
"1142 67 OFFCURVE",
"1458 151 CURVE SMOOTH",
"1735 225 OFFCURVE",
"1926 1475 OFFCURVE",
"1953 1625 CURVE SMOOTH",
"1975 1741 OFFCURVE",
"2008 1760 OFFCURVE",
"2112 1760 CURVE SMOOTH",
"2178 1760 OFFCURVE",
"2215 1724 OFFCURVE",
"2207 1649 CURVE SMOOTH"
);
},
{
closed = 1;
nodes = (
"1939 501 LINE",
"1855 181 OFFCURVE",
"2187.75 264.195 OFFCURVE",
"2374.14 392.002 CURVE",
"2406.52 343.859 LINE",
"2125.1 70.195 OFFCURVE",
"1742 127 OFFCURVE",
"1787.86 505.049 CURVE"
);
}
);
};
layerId = "DE4BB00D-BABA-4D36-9D9A-44FD0E91C3DF";
name = Regular;
paths = (
{
closed = 1;
nodes = (
"2119 1266 OFFCURVE",
"2077 936 OFFCURVE",
"1957 572 CURVE SMOOTH",
"1934 502 OFFCURVE",
"1841 129 OFFCURVE",
"2374 425 CURVE SMOOTH",
"2393 436 OFFCURVE",
"2424 359 OFFCURVE",
"2407 344 CURVE SMOOTH",
"2023 16 OFFCURVE",
"1846 264 OFFCURVE",
"1846 264 CURVE SMOOTH",
"1737 34 OFFCURVE",
"1599 -108 OFFCURVE",
"1422 -101 CURVE",
"1054 -108 OFFCURVE",
"1051 282 OFFCURVE",
"1056 561 CURVE",
"970 197 OFFCURVE",
"685 -95 OFFCURVE",
"413 -95 CURVE",
"140 -95 OFFCURVE",
"78 133 OFFCURVE",
"96 455 CURVE",
"115 827 OFFCURVE",
"315 1398 OFFCURVE",
"385 1566 CURVE",
"430 1669 OFFCURVE",
"454 1751 OFFCURVE",
"547 1751 CURVE",
"575 1751 OFFCURVE",
"595 1741 OFFCURVE",
"600 1732 CURVE",
"612 1712 OFFCURVE",
"606 1689 OFFCURVE",
"604 1681 CURVE",
"561 1528 OFFCURVE",
"508 1387 OFFCURVE",
"463 1242 CURVE",
"432 1143 OFFCURVE",
"284 689 OFFCURVE",
"271 422 CURVE",
"260 234 OFFCURVE",
"306 68 OFFCURVE",
"449 68 CURVE",
"698 68 OFFCURVE",
"900.297 455.154 OFFCURVE",
"988.562 775.371 CURVE",
"1039.62 960.574 OFFCURVE",
"1133 1297 OFFCURVE",
"1190 1537 CURVE",
"1217 1650 OFFCURVE",
"1240 1707 OFFCURVE",
"1321 1707 CURVE",
"1371 1707 OFFCURVE",
"1393 1675 OFFCURVE",
"1384 1637 CURVE",
"1359 1527 OFFCURVE",
"1333 1425 OFFCURVE",
"1287 1214 CURVE",
"1197 804 OFFCURVE",
"1090 -28 OFFCURVE",
"1467 72 CURVE",
"1777 155 OFFCURVE",
"1964 1500 OFFCURVE",
"1992 1658 CURVE",
"2010 1750 OFFCURVE",
"2025 1760 OFFCURVE",
"2112 1760 CURVE",
"2156 1760 OFFCURVE",
"2173 1743 OFFCURVE",
"2167 1693 CURVE"
);
}
);
width = 2192;
}
);
unicode = 0057;
},
{
glyphname = X;
lastChange = "2013-12-23 17:11:49 -0800";
layers = (
{
background = {
paths = (
{
closed = 1;
nodes = (
"186 1199 OFFCURVE",
"177 1198 OFFCURVE",
"142 1255 CURVE SMOOTH",
"107 1312 OFFCURVE",
"53 1748 OFFCURVE",
"502 1748 CURVE SMOOTH",
"1115 1748 OFFCURVE",
"936 82 OFFCURVE",
"1282 76 CURVE SMOOTH",
"1405 74 OFFCURVE",
"1440 243 OFFCURVE",
"1518 190 CURVE",
"1554 170 OFFCURVE",
"1584 142 OFFCURVE",
"1584 107 CURVE",
"1584 71 OFFCURVE",
"1480 -161 OFFCURVE",
"1234 -169 CURVE SMOOTH",
"737 -186 OFFCURVE",
"846 1508 OFFCURVE",
"435 1508 CURVE SMOOTH",
"328 1508 OFFCURVE",
"216 1266 OFFCURVE",
"207 1245 CURVE"
);
},
{
closed = 1;
nodes = (
"-8 -145 OFFCURVE",
"-126 -90 OFFCURVE",
"18 86 CURVE SMOOTH",
"162 262 OFFCURVE",
"1267 1732 OFFCURVE",
"1539 1716 CURVE SMOOTH",
"1643 1710 OFFCURVE",
"1679 1556 OFFCURVE",
"1675 1454 CURVE SMOOTH",
"1671 1352 OFFCURVE",
"1619 1263 OFFCURVE",
"1555 1263 CURVE",
"1435 1263 OFFCURVE",
"1502 1457 OFFCURVE",
"1415 1394 CURVE SMOOTH",
"1136 1194 OFFCURVE",
"352 91 OFFCURVE",
"254 -38 CURVE SMOOTH",
"183 -131 OFFCURVE",
"108 -148 OFFCURVE",
"61 -145 CURVE SMOOTH"
);
}
);
};
layerId = "DE4BB00D-BABA-4D36-9D9A-44FD0E91C3DF";
name = Regular;
paths = (
{
closed = 1;
nodes = (
"174 1304 OFFCURVE",
"165 1283 OFFCURVE",
"155 1301 CURVE",
"124 1350 OFFCURVE",
"76 1748 OFFCURVE",
"489 1748 CURVE",
"1077 1748 OFFCURVE",
"911 23 OFFCURVE",
"1297 16 CURVE",
"1459 13 OFFCURVE",
"1465 172 OFFCURVE",
"1518 134 CURVE",
"1550 117 OFFCURVE",
"1570 97 OFFCURVE",
"1570 77 CURVE",
"1570 51 OFFCURVE",
"1472 -162 OFFCURVE",
"1249 -169 CURVE",
"783 -185 OFFCURVE",
"867 1568 OFFCURVE",
"422 1568 CURVE",
"294 1568 OFFCURVE",
"188 1335 OFFCURVE",
"178 1312 CURVE"
);
},
{
closed = 1;
nodes = (
"-18 -145 OFFCURVE",
"-98 -107 OFFCURVE",
"20 37 CURVE",
"160 207 OFFCURVE",
"1318 1731 OFFCURVE",
"1566 1716 CURVE",
"1643 1712 OFFCURVE",
"1677 1579 OFFCURVE",
"1673 1485 CURVE",
"1670 1395 OFFCURVE",
"1626 1323 OFFCURVE",
"1583 1323 CURVE",
"1451 1323 OFFCURVE",
"1627 1594 OFFCURVE",
"1426 1448 CURVE",
"1143 1245 OFFCURVE",
"307 79 OFFCURVE",
"209 -50 CURVE",
"145 -133 OFFCURVE",
"81 -148 OFFCURVE",
"41 -145 CURVE"
);
}
);
width = 1536;
}
);
unicode = 0058;
},
{
glyphname = Y;
lastChange = "2013-12-17 16:08:38 -0800";
layers = (
{
background = {
paths = (
{
closed = 1;
nodes = (
"-166 1321 OFFCURVE",
"-157 1665 OFFCURVE",
"278 1673 CURVE SMOOTH",
"589 1673 OFFCURVE",
"706 1371 OFFCURVE",
"827 1160 CURVE SMOOTH",
"1023 816 LINE",
"1461 1717 LINE SMOOTH",
"1504 1807 OFFCURVE",
"1778 1754 OFFCURVE",
"1690 1581 CURVE SMOOTH",
"995.999 233 LINE SMOOTH",
"892 30 OFFCURVE",
"783 -152 OFFCURVE",
"667 -260 CURVE SMOOTH",
"601 -322 OFFCURVE",
"531 -363 OFFCURVE",
"413 -363 CURVE SMOOTH",
"293 -363 OFFCURVE",
"116 -266 OFFCURVE",
"116 -166 CURVE SMOOTH",
"116 -107 OFFCURVE",
"164 -68 OFFCURVE",
"223 -68 CURVE SMOOTH",
"293 -68 OFFCURVE",
"317 -199 OFFCURVE",
"389 -199 CURVE SMOOTH",
"518 -199 OFFCURVE",
"777 363 OFFCURVE",
"873 597 CURVE",
"518 1220 OFFCURVE",
"403 1497 OFFCURVE",
"180 1427 CURVE SMOOTH",
"110 1405 OFFCURVE",
"43 1330 OFFCURVE",
"100 1252 CURVE SMOOTH",
"196 1122 OFFCURVE",
"46 1071 OFFCURVE",
"-22 1151 CURVE SMOOTH"
);
}
);
};
layerId = "DE4BB00D-BABA-4D36-9D9A-44FD0E91C3DF";
name = Regular;
paths = (
{
closed = 1;
nodes = (
"-145 1371 OFFCURVE",
"-135 1666 OFFCURVE",
"256 1673 CURVE",
"255 1673 LINE",
"539 1673 OFFCURVE",
"647 1394 OFFCURVE",
"770 1180 CURVE",
"1025.8 730.278 LINE",
"1515 1735 LINE",
"1540 1787 OFFCURVE",
"1731 1750 OFFCURVE",
"1672 1634 CURVE",
"960.435 251.309 LINE",
"837 11 OFFCURVE",
"732 -165 OFFCURVE",
"620 -269 CURVE",
"559 -327 OFFCURVE",
"499 -362 OFFCURVE",
"393 -362 CURVE",
"290 -362 OFFCURVE",
"136 -275 OFFCURVE",
"136 -205 CURVE",
"136 -171 OFFCURVE",
"164 -147 OFFCURVE",
"203 -147 CURVE",
"240 -147 OFFCURVE",
"264 -278 OFFCURVE",
"369 -278 CURVE",
"536 -278 OFFCURVE",
"824.025 369.764 OFFCURVE",
"917.396 599.87 CURVE",
"532 1274 OFFCURVE",
"407 1587 OFFCURVE",
"145 1505 CURVE",
"59 1478 OFFCURVE",
"-35 1377 OFFCURVE",
"45 1268 CURVE",
"103 1190 OFFCURVE",
"30 1165 OFFCURVE",
"-14 1217 CURVE"
);
}
);
width = 1461;
}
);
unicode = 0059;
},
{
glyphname = Z;
lastChange = "2013-12-23 17:18:19 -0800";
layers = (
{
background = {
paths = (
{
closed = 1;
nodes = (
"989 199 OFFCURVE",
"1208 310 OFFCURVE",
"1284 350 CURVE SMOOTH",
"1360 390 OFFCURVE",
"1395 337 OFFCURVE",
"1409 304 CURVE SMOOTH",
"1423 271 OFFCURVE",
"1444 193 OFFCURVE",
"1403 168 CURVE SMOOTH",
"810 -194 OFFCURVE",
"382 79 OFFCURVE",
"337 135 CURVE",
"219 16 OFFCURVE",
"84 42 OFFCURVE",
"73 131 CURVE SMOOTH",
"56 265 OFFCURVE",
"191 352 OFFCURVE",
"996 1342 CURVE",
"920 1305 OFFCURVE",
"612 1352 OFFCURVE",
"452 1381 CURVE",
"292 1410 OFFCURVE",
"297 1108 OFFCURVE",
"175 1109 CURVE",
"149 1110 OFFCURVE",
"132 1152 OFFCURVE",
"132 1206 CURVE SMOOTH",
"132 1374 OFFCURVE",
"230 1651 OFFCURVE",
"515 1599 CURVE SMOOTH",
"800 1547 OFFCURVE",
"1194 1546 OFFCURVE",
"1288 1561 CURVE",
"1382 1576 OFFCURVE",
"1384 1478 OFFCURVE",
"1383 1440 CURVE",
"1382 1402 OFFCURVE",
"1368 1378 OFFCURVE",
"1339 1355 CURVE SMOOTH",
"895 998 OFFCURVE",
"639 579 OFFCURVE",
"464 323 CURVE",
"530 351 OFFCURVE",
"599 215 OFFCURVE",
"830 206 CURVE SMOOTH"
);
}
);
};
layerId = "DE4BB00D-BABA-4D36-9D9A-44FD0E91C3DF";
name = Regular;
paths = (
{
closed = 1;
nodes = (
"980 141 OFFCURVE",
"1206 270 OFFCURVE",
"1282 310 CURVE",
"1332 336 OFFCURVE",
"1353 293 OFFCURVE",
"1365 265 CURVE",
"1377 237 OFFCURVE",
"1420 192 OFFCURVE",
"1371 166 CURVE",
"754 -211 OFFCURVE",
"325 114 OFFCURVE",
"322 153 CURVE",
"215 24 OFFCURVE",
"95 43 OFFCURVE",
"87 107 CURVE",
"72 222 OFFCURVE",
"261 323 OFFCURVE",
"1055 1398 CURVE",
"998 1362 OFFCURVE",
"652 1409 OFFCURVE",
"491 1438 CURVE",
"303 1472 OFFCURVE",
"318 1166 OFFCURVE",
"179 1166 CURVE",
"180 1166 LINE",
"172 1167 OFFCURVE",
"166 1183 OFFCURVE",
"166 1233 CURVE",
"166 1394 OFFCURVE",
"256 1644 OFFCURVE",
"514 1597 CURVE",
"801 1544 OFFCURVE",
"1235 1543 OFFCURVE",
"1332 1559 CURVE",
"1392 1568 OFFCURVE",
"1393 1505 OFFCURVE",
"1392 1468 CURVE",
"1391 1440 OFFCURVE",
"1382 1424 OFFCURVE",
"1359 1406 CURVE",
"859 933 OFFCURVE",
"699 677 OFFCURVE",
"436 294 CURVE",
"484 314 OFFCURVE",
"556 158 OFFCURVE",
"813 148 CURVE"
);
}
);
width = 1265;
}
);
unicode = 005A;
},
{
glyphname = bracketleft;
lastChange = "2013-12-24 01:14:11 -0800";
layers = (
{
layerId = "DE4BB00D-BABA-4D36-9D9A-44FD0E91C3DF";
name = Regular;
paths = (
{
closed = 1;
nodes = (
"353 -162 LINE",
"257.261 -162 OFFCURVE",
"206 -134 OFFCURVE",
"206 -53 CURVE",
"206 53.56 OFFCURVE",
"238.09 139.132 OFFCURVE",
"257.57 252.938 CURVE",
"321.762 632.07 OFFCURVE",
"358.772 1021.18 OFFCURVE",
"421.616 1410.22 CURVE",
"443.904 1547.66 OFFCURVE",
"506.843 1637 OFFCURVE",
"672 1637 CURVE",
"989.999 1637 LINE",
"1030.54 1637 OFFCURVE",
"1058 1603.53 OFFCURVE",
"1058 1561 CURVE",
"1058 1517.15 OFFCURVE",
"1005.24 1473 OFFCURVE",
"958 1473 CURVE",
"641.544 1473 LINE",
"648.593 1245.74 OFFCURVE",
"572.163 973.673 OFFCURVE",
"536.331 734.444 CURVE",
"499.536 488.441 OFFCURVE",
"461.655 238.151 OFFCURVE",
"423.828 2 CURVE",
"745 2 LINE",
"774.587 2 OFFCURVE",
"798 -21 OFFCURVE",
"798 -51 CURVE",
"798 -102 OFFCURVE",
"728.906 -162 OFFCURVE",
"671 -162 CURVE"
);
}
);
width = 927;
}
);
unicode = 005B;
},
{
glyphname = backslash;
lastChange = "2013-12-24 01:14:46 -0800";
layers = (
{
layerId = "DE4BB00D-BABA-4D36-9D9A-44FD0E91C3DF";
name = Regular;
paths = (
{
closed = 1;
nodes = (
"154 1757 OFFCURVE",
"156 1860 OFFCURVE",
"253 1860 CURVE",
"370 1860 OFFCURVE",
"398 1725 OFFCURVE",
"448 1612 CURVE",
"673 1113 OFFCURVE",
"1157 122 OFFCURVE",
"1157 16 CURVE",
"1157 -27 OFFCURVE",
"1129 -48 OFFCURVE",
"1081 -48 CURVE",
"1005 -48 OFFCURVE",
"946 -10 OFFCURVE",
"922 39 CURVE",
"666 542 OFFCURVE",
"428 1148 OFFCURVE",
"199 1660 CURVE"
);
}
);
width = 1248;
}
);
unicode = 005C;
},
{
glyphname = bracketright;
lastChange = "2013-12-24 01:15:29 -0800";
layers = (
{
layerId = "DE4BB00D-BABA-4D36-9D9A-44FD0E91C3DF";
name = Regular;
paths = (
{
closed = 1;
nodes = (
"735 1637 LINE",
"830.739 1637 OFFCURVE",
"882 1608.7 OFFCURVE",
"882 1528 CURVE",
"882 1421.5 OFFCURVE",
"849.92 1336.92 OFFCURVE",
"830.43 1223.06 CURVE",
"764.232 843.928 OFFCURVE",
"729.215 453.737 OFFCURVE",
"666.384 64.7841 CURVE",
"644.096 -73 OFFCURVE",
"581.157 -162 OFFCURVE",
"416 -162 CURVE",
"108 -162 LINE",
"64.4862 -162 OFFCURVE",
"30 -124 OFFCURVE",
"30 -80 CURVE",
"30 -40 OFFCURVE",
"76.3638 2 OFFCURVE",
"119 2 CURVE",
"446.456 2 LINE",
"439.407 229.256 OFFCURVE",
"515.837 501.327 OFFCURVE",
"551.669 740.556 CURVE",
"663.949 1473 LINE",
"369 1473 LINE",
"330.707 1473 OFFCURVE",
"294 1507.14 OFFCURVE",
"294 1544 CURVE",
"294 1590.73 OFFCURVE",
"339.569 1637 OFFCURVE",
"389 1637 CURVE"
);
}
);
width = 927;
}
);
unicode = 005D;
},
{
glyphname = asciicircum;
lastChange = "2013-12-24 01:17:26 -0800";
layers = (
{
layerId = "DE4BB00D-BABA-4D36-9D9A-44FD0E91C3DF";
name = Regular;
paths = (
{
closed = 1;
nodes = (
"833.751 602.998 OFFCURVE",
"876.583 538 OFFCURVE",
"933 538 CURVE",
"988.665 538 OFFCURVE",
"1004.53 620.405 OFFCURVE",
"985.146 668.858 CURVE",
"984.955 669.346 LINE",
"917.341 847.332 OFFCURVE",
"838.009 1017.89 OFFCURVE",
"758.296 1175.33 CURVE",
"717.501 1255.02 OFFCURVE",
"670.254 1314 OFFCURVE",
"567 1314 CURVE",
"466.428 1314 OFFCURVE",
"421.965 1214.81 OFFCURVE",
"370.432 1117.81 CURVE",
"319.507 1022.95 OFFCURVE",
"263.596 916.12 OFFCURVE",
"212.664 818.251 CURVE",
"177.854 750.742 OFFCURVE",
"123 690.402 OFFCURVE",
"123 621 CURVE",
"123 571.373 OFFCURVE",
"172.968 541 OFFCURVE",
"194 541 CURVE",
"237.98 541 OFFCURVE",
"273 582 OFFCURVE",
"291.435 616.953 CURVE",
"310 652 OFFCURVE",
"496 1098 OFFCURVE",
"567 1176 CURVE",
"622 1098 OFFCURVE",
"790 703 OFFCURVE",
"811 654 CURVE SMOOTH"
);
}
);
width = 1089;
}
);
unicode = 005E;
},
{
glyphname = underscore;
lastChange = "2013-12-24 01:17:56 -0800";
layers = (
{
layerId = "DE4BB00D-BABA-4D36-9D9A-44FD0E91C3DF";
name = Regular;
paths = (
{
closed = 1;
nodes = (
"98 30 LINE",
"37 30 OFFCURVE",
"-6 56 OFFCURVE",
"-6 108 CURVE",
"-6 187 OFFCURVE",
"97 194 OFFCURVE",
"206 194 CURVE",
"496 194 LINE",
"609 194 OFFCURVE",
"737.234 195 OFFCURVE",
"853 195 CURVE",
"1208 195 LINE",
"1247 195 OFFCURVE",
"1260 187 OFFCURVE",
"1260 163 CURVE",
"1260 57 OFFCURVE",
"1174 30 OFFCURVE",
"1044 30 CURVE"
);
}
);
width = 1248;
}
);
unicode = 005F;
},
{
glyphname = grave;
lastChange = "2013-12-24 02:02:20 -0800";
layers = (
{
anchors = (
{
name = _top;
position = "{398, 939}";
}
);
layerId = "DE4BB00D-BABA-4D36-9D9A-44FD0E91C3DF";
name = Regular;
paths = (
{
closed = 1;
nodes = (
"41 1629 OFFCURVE",
"33 1652 OFFCURVE",
"33 1676 CURVE",
"33 1737 OFFCURVE",
"85 1782 OFFCURVE",
"148 1782 CURVE",
"182 1782 OFFCURVE",
"203 1765 OFFCURVE",
"215 1737 CURVE",
"282 1582 OFFCURVE",
"356 1426 OFFCURVE",
"426 1274 CURVE",
"441 1245 OFFCURVE",
"433 1202 OFFCURVE",
"405 1202 CURVE",
"356 1202 OFFCURVE",
"319 1277 OFFCURVE",
"282 1323 CURVE",
"215 1405 OFFCURVE",
"125 1513 OFFCURVE",
"64 1597 CURVE"
);
}
);
width = 609;
}
);
unicode = 0060;
},
{
glyphname = a;
lastChange = "2013-12-24 02:01:37 -0800";
layers = (
{
anchors = (
{
name = top;
position = "{701, 953}";
}
);
background = {
paths = (
{
closed = 1;
nodes = (
"467 773 OFFCURVE",
"308 508 OFFCURVE",
"308 324 CURVE SMOOTH",
"308 260 OFFCURVE",
"326 190 OFFCURVE",
"407 190 CURVE SMOOTH",
"546 190 OFFCURVE",
"604 380 OFFCURVE",
"628 474 CURVE SMOOTH",
"706 773 LINE"
);
},
{
closed = 1;
nodes = (
"838 303 LINE SMOOTH",
"830 254 OFFCURVE",
"840 203 OFFCURVE",
"885 203 CURVE SMOOTH",
"981.999 203 OFFCURVE",
"1101 335 OFFCURVE",
"1150 399 CURVE",
"1165 416 OFFCURVE",
"1180 424 OFFCURVE",
"1192 424 CURVE SMOOTH",
"1235 424 OFFCURVE",
"1260 342 OFFCURVE",
"1260 287 CURVE SMOOTH",
"1260 272 OFFCURVE",
"1258 258 OFFCURVE",
"1254 250 CURVE",
"1183 150 OFFCURVE",
"1023 0 OFFCURVE",
"860 0 CURVE SMOOTH",
"749 0 OFFCURVE",
"671 74 OFFCURVE",
"656 191 CURVE",
"599 60 OFFCURVE",
"481 -16 OFFCURVE",
"341 -16 CURVE SMOOTH",
"179 -16 OFFCURVE",
"79 115 OFFCURVE",
"79 281 CURVE SMOOTH",
"79 648 OFFCURVE",
"364 966 OFFCURVE",
"641 966 CURVE SMOOTH",
"768 966 OFFCURVE",
"760 915 OFFCURVE",
"760 888 CURVE",
"838 888 LINE SMOOTH",
"897 888 OFFCURVE",
"929 853 OFFCURVE",
"919 795 CURVE SMOOTH"
);
}
);
};
layerId = "DE4BB00D-BABA-4D36-9D9A-44FD0E91C3DF";
name = Regular;
paths = (
{
closed = 1;
nodes = (
"463 856 OFFCURVE",
"263 500 OFFCURVE",
"263 294 CURVE",
"263 226 OFFCURVE",
"288 130 OFFCURVE",
"392 130 CURVE",
"553 130 OFFCURVE",
"618 342 OFFCURVE",
"642 437 CURVE",
"744 826 LINE"
);
},
{
closed = 1;
nodes = (
"793 278 LINE",
"784 219 OFFCURVE",
"796 143 OFFCURVE",
"870 143 CURVE",
"980 143 OFFCURVE",
"1108 284 OFFCURVE",
"1158 350 CURVE",
"1169 365 OFFCURVE",
"1177 364 OFFCURVE",
"1177 364 CURVE",
"1192 364 OFFCURVE",
"1212 302 OFFCURVE",
"1215 279 CURVE",
"1218 246 OFFCURVE",
"1217 242 OFFCURVE",
"1213 235 CURVE",
"1144 139 OFFCURVE",
"993 0 OFFCURVE",
"845 0 CURVE",
"721 0 OFFCURVE",
"646 107 OFFCURVE",
"674 270 CURVE",
"674 270 LINE",
"644 86 OFFCURVE",
"488 -16 OFFCURVE",
"326 -16 CURVE",
"183 -16 OFFCURVE",
"94 99 OFFCURVE",
"94 251 CURVE",
"94 603 OFFCURVE",
"407 966 OFFCURVE",
"667 966 CURVE",
"787 966 OFFCURVE",
"782 923 OFFCURVE",
"775 888 CURVE",
"840 888 LINE",
"882 888 OFFCURVE",
"896 865 OFFCURVE",
"889 825 CURVE"
);
}
);
width = 1025;
}
);
unicode = 0061;
},
{
glyphname = b;
lastChange = "2013-12-27 00:46:36 -0800";
layers = (
{
background = {
paths = (
{
closed = 1;
nodes = (
"1115 563 OFFCURVE",
"1229 682 OFFCURVE",
"1269 682 CURVE SMOOTH",
"1309 682 OFFCURVE",
"1333 629 OFFCURVE",
"1333 585 CURVE SMOOTH",
"1333 548 OFFCURVE",
"1328 533 OFFCURVE",
"1299 506 CURVE SMOOTH",
"1213 427 OFFCURVE",
"1042 353 OFFCURVE",
"893 353 CURVE SMOOTH",
"747 353 OFFCURVE",
"633 414 OFFCURVE",
"633 537 CURVE SMOOTH",
"633 603 OFFCURVE",
"685 706 OFFCURVE",
"773 748 CURVE",
"779 742 LINE SMOOTH",
"866 655 OFFCURVE",
"835 563 OFFCURVE",
"957 563 CURVE SMOOTH"
);
},
{
closed = 1;
nodes = (
"763 675 OFFCURVE",
"718 774 OFFCURVE",
"606 774 CURVE SMOOTH",
"424 774 OFFCURVE",
"337 591 OFFCURVE",
"337 428 CURVE SMOOTH",
"337 296 OFFCURVE",
"390 176 OFFCURVE",
"528 176 CURVE SMOOTH",
"667 176 OFFCURVE",
"763 386 OFFCURVE",
"763 557 CURVE SMOOTH"
);
},
{
closed = 1;
nodes = (
"501 1728 OFFCURVE",
"383 968.999 OFFCURVE",
"360 845 CURVE",
"478 1072 OFFCURVE",
"710 1330 OFFCURVE",
"710 1648 CURVE SMOOTH",
"710 1683 OFFCURVE",
"695 1728 OFFCURVE",
"659 1728 CURVE SMOOTH"
);
},
{
closed = 1;
nodes = (
"924 966 OFFCURVE",
"989.999 831 OFFCURVE",
"989.999 674 CURVE SMOOTH",
"989.999 277 OFFCURVE",
"817 -16 OFFCURVE",
"502 -16 CURVE SMOOTH",
"226 -16 OFFCURVE",
"100 206 OFFCURVE",
"100 408 CURVE SMOOTH",
"100 688 OFFCURVE",
"282 1920 OFFCURVE",
"668 1920 CURVE SMOOTH",
"862 1920 OFFCURVE",
"902 1784 OFFCURVE",
"902 1591 CURVE SMOOTH",
"902 1335 OFFCURVE",
"701 1036 OFFCURVE",
"557 905 CURVE",
"623 943 OFFCURVE",
"693 966 OFFCURVE",
"756 966 CURVE SMOOTH"
);
}
);
};
layerId = "DE4BB00D-BABA-4D36-9D9A-44FD0E91C3DF";
name = Regular;
paths = (
{
closed = 1;
nodes = (
"1118 503 OFFCURVE",
"1267 656 OFFCURVE",
"1285 656 CURVE",
"1302 656 OFFCURVE",
"1319 640 OFFCURVE",
"1319 606 CURVE",
"1319 576 OFFCURVE",
"1316 568 OFFCURVE",
"1295 548 CURVE",
"1200 460 OFFCURVE",
"1034 373 OFFCURVE",
"893 373 CURVE",
"759 373 OFFCURVE",
"682 426 OFFCURVE",
"682 507 CURVE",
"682 559 OFFCURVE",
"715 646 OFFCURVE",
"796 670 CURVE",
"930 644 OFFCURVE",
"812 505 OFFCURVE",
"957 503 CURVE"
);
},
{
closed = 1;
nodes = (
"817 656 OFFCURVE",
"808 837 OFFCURVE",
"630 837 CURVE",
"425 837 OFFCURVE",
"271 594 OFFCURVE",
"271 395 CURVE",
"271 223 OFFCURVE",
"343 115 OFFCURVE",
"500 115 CURVE",
"679 115 OFFCURVE",
"817 345 OFFCURVE",
"817 527 CURVE"
);
},
{
closed = 1;
nodes = (
"341 844 OFFCURVE",
"821 1290 OFFCURVE",
"821 1678 CURVE",
"821 1720 OFFCURVE",
"800 1788 OFFCURVE",
"740 1788 CURVE",
"549 1788 OFFCURVE",
"329 935 OFFCURVE",
"305 803 CURVE"
);
},
{
closed = 1;
nodes = (
"1130 -16 OFFCURVE",
"502 -16 CURVE",
"226 -16 OFFCURVE",
"130 165 OFFCURVE",
"130 375 CURVE",
"130 670 OFFCURVE",
"349 1920 OFFCURVE",
"749 1920 CURVE",
"919 1920 OFFCURVE",
"969 1784 OFFCURVE",
"953 1621 CURVE",
"931 1403 OFFCURVE",
"716 1045 OFFCURVE",
"544 918 CURVE",
"1071 1220 OFFCURVE"
);
}
);
width = 1086;
}
);
unicode = 0062;
},
{
glyphname = c;
lastChange = "2013-12-27 00:11:08 -0800";
layers = (
{
background = {
paths = (
{
closed = 1;
nodes = (
"92 703 OFFCURVE",
"294 966 OFFCURVE",
"559 966 CURVE SMOOTH",
"718 966 OFFCURVE",
"834 863 OFFCURVE",
"827 711 CURVE SMOOTH",
"821 580 OFFCURVE",
"768 518 OFFCURVE",
"723 479 CURVE SMOOTH",
"629 397 OFFCURVE",
"540 515 OFFCURVE",
"589 573 CURVE SMOOTH",
"669 669 OFFCURVE",
"651 786 OFFCURVE",
"563 788 CURVE SMOOTH",
"471 790 OFFCURVE",
"287 675 OFFCURVE",
"283 395 CURVE SMOOTH",
"281 251 OFFCURVE",
"358 165 OFFCURVE",
"478 154 CURVE SMOOTH",
"637 139 OFFCURVE",
"753 266 OFFCURVE",
"880 374 CURVE SMOOTH",
"942 427 OFFCURVE",
"1002 324 OFFCURVE",
"964 267 CURVE SMOOTH",
"884 147 OFFCURVE",
"705 -33 OFFCURVE",
"438 -16 CURVE SMOOTH",
"201 -1 OFFCURVE",
"44 169 OFFCURVE",
"66 413 CURVE SMOOTH"
);
}
);
};
layerId = "DE4BB00D-BABA-4D36-9D9A-44FD0E91C3DF";
name = Regular;
paths = (
{
closed = 1;
nodes = (
"110 688 OFFCURVE",
"327 966 OFFCURVE",
"573 966 CURVE",
"717 966 OFFCURVE",
"818 876 OFFCURVE",
"811 742 CURVE",
"806 624 OFFCURVE",
"760 568 OFFCURVE",
"718 532 CURVE",
"655 477 OFFCURVE",
"599 551 OFFCURVE",
"626 584 CURVE",
"719 695 OFFCURVE",
"697 828 OFFCURVE",
"578 831 CURVE",
"473 833 OFFCURVE",
"257.294 695.788 OFFCURVE",
"253.003 395.429 CURVE",
"250.784 235.685 OFFCURVE",
"324 122 OFFCURVE",
"459 109 CURVE",
"633 93 OFFCURVE",
"837 318 OFFCURVE",
"963 425 CURVE",
"992 450 OFFCURVE",
"1026 393 OFFCURVE",
"1002 358 CURVE",
"925 242 OFFCURVE",
"676 -32 OFFCURVE",
"424 -16 CURVE",
"203 -2 OFFCURVE",
"64 184 OFFCURVE",
"85 410 CURVE"
);
}
);
width = 827;
}
);
unicode = 0063;
},
{
glyphname = d;
lastChange = "2013-12-27 00:49:43 -0800";
layers = (
{
background = {
paths = (
{
closed = 1;
nodes = (
"1068 1038 OFFCURVE",
"1301 1344 OFFCURVE",
"1301 1619 CURVE SMOOTH",
"1301 1667 OFFCURVE",
"1281 1680 OFFCURVE",
"1255 1680 CURVE SMOOTH",
"1065 1680 OFFCURVE",
"943 1141 OFFCURVE",
"855 739 CURVE"
);
},
{
closed = 1;
nodes = (
"1266 130 OFFCURVE",
"1112 -8 OFFCURVE",
"896 -8 CURVE SMOOTH",
"774 -8 OFFCURVE",
"673 61 OFFCURVE",
"625 193 CURVE",
"559 57 OFFCURVE",
"450 -16 OFFCURVE",
"298 -16 CURVE SMOOTH",
"146 -16 OFFCURVE",
"36 102 OFFCURVE",
"36 283 CURVE SMOOTH",
"36 648 OFFCURVE",
"379 1052 OFFCURVE",
"690 951 CURVE",
"820 1520 OFFCURVE",
"1025 1921 OFFCURVE",
"1320 1921 CURVE SMOOTH",
"1440 1921 OFFCURVE",
"1517 1828 OFFCURVE",
"1517 1727 CURVE SMOOTH",
"1517 1273 OFFCURVE",
"1080 788 OFFCURVE",
"824 454 CURVE",
"801 260 OFFCURVE",
"852 175 OFFCURVE",
"936 175 CURVE SMOOTH",
"1067 175 OFFCURVE",
"1214 326 OFFCURVE",
"1271 389 CURVE SMOOTH",
"1283 402 OFFCURVE",
"1296 403 OFFCURVE",
"1315 403 CURVE SMOOTH",
"1358 404 OFFCURVE",
"1401 371 OFFCURVE",
"1401 318 CURVE SMOOTH",
"1401 290 OFFCURVE",
"1381 260 OFFCURVE",
"1371 248 CURVE SMOOTH"
);
},
{
closed = 1;
nodes = (
"437 773 OFFCURVE",
"265 527 OFFCURVE",
"265 325 CURVE SMOOTH",
"265 207 OFFCURVE",
"323 190 OFFCURVE",
"364 190 CURVE SMOOTH",
"465 190 OFFCURVE",
"545 261 OFFCURVE",
"612 551 CURVE SMOOTH",
"663 773 LINE"
);
}
);
};
layerId = "DE4BB00D-BABA-4D36-9D9A-44FD0E91C3DF";
name = Regular;
paths = (
{
closed = 1;
nodes = (
"859 722 LINE",
"1067 1020 OFFCURVE",
"1316 1364 OFFCURVE",
"1316 1649 CURVE",
"1316 1717 OFFCURVE",
"1279 1740 OFFCURVE",
"1241 1740 CURVE",
"1026 1740 OFFCURVE",
"869 1027 OFFCURVE",
"782 619 CURVE"
);
},
{
closed = 1;
nodes = (
"1214 123 OFFCURVE",
"1081 -8 OFFCURVE",
"875 -8 CURVE",
"745 -8 OFFCURVE",
"642 35 OFFCURVE",
"616 212 CURVE",
"561 94 OFFCURVE",
"457 -16 OFFCURVE",
"291 -16 CURVE",
"159 -16 OFFCURVE",
"64 88 OFFCURVE",
"64 253 CURVE",
"64 614 OFFCURVE",
"409 1063 OFFCURVE",
"695 930 CURVE",
"820 1509 OFFCURVE",
"1033 1921 OFFCURVE",
"1305 1921 CURVE",
"1403 1921 OFFCURVE",
"1468 1843 OFFCURVE",
"1468 1757 CURVE",
"1468 1312 OFFCURVE",
"1026 771 OFFCURVE",
"776 436 CURVE",
"750 220 OFFCURVE",
"809 135 OFFCURVE",
"914 135 CURVE",
"1055 135 OFFCURVE",
"1186 257 OFFCURVE",
"1242 321 CURVE",
"1258 337 OFFCURVE",
"1265 345 OFFCURVE",
"1283 345 CURVE",
"1311 346 OFFCURVE",
"1337 324 OFFCURVE",
"1337 290 CURVE",
"1337 271 OFFCURVE",
"1324 250 OFFCURVE",
"1315 239 CURVE"
);
},
{
closed = 1;
nodes = (
"426 894 OFFCURVE",
"215 528 OFFCURVE",
"215 283 CURVE",
"215 141 OFFCURVE",
"306 118 OFFCURVE",
"351 118 CURVE",
"465 118 OFFCURVE",
"581 334 OFFCURVE",
"626 533 CURVE",
"684 820 LINE"
);
}
);
width = 1128;
}
);
unicode = 0064;
},
{
glyphname = e;
lastChange = "2013-12-26 23:55:45 -0800";
layers = (
{
background = {
paths = (
{
closed = 1;
nodes = (
"409 464 OFFCURVE",
"638 571 OFFCURVE",
"649 681 CURVE SMOOTH",
"656 751 OFFCURVE",
"612 775 OFFCURVE",
"564 775 CURVE SMOOTH",
"420 775 OFFCURVE",
"289 587 OFFCURVE",
"289 422 CURVE"
);
},
{
closed = 1;
nodes = (
"995.999 419 OFFCURVE",
"1102 345 OFFCURVE",
"1037 257 CURVE SMOOTH",
"945 131 OFFCURVE",
"710 -24 OFFCURVE",
"461 -17 CURVE SMOOTH",
"261 -11 OFFCURVE",
"64 105 OFFCURVE",
"64 377 CURVE SMOOTH",
"64 648 OFFCURVE",
"271 966 OFFCURVE",
"552 966 CURVE SMOOTH",
"706 966 OFFCURVE",
"827 873 OFFCURVE",
"827 717 CURVE SMOOTH",
"827 494 OFFCURVE",
"633 388 OFFCURVE",
"299 300 CURVE",
"364 98 OFFCURVE",
"716 149 OFFCURVE",
"952 376 CURVE SMOOTH"
);
}
);
};
layerId = "DE4BB00D-BABA-4D36-9D9A-44FD0E91C3DF";
name = Regular;
paths = (
{
closed = 1;
nodes = (
"357 426 OFFCURVE",
"681 563 OFFCURVE",
"695 709 CURVE",
"705 802 OFFCURVE",
"640 836 OFFCURVE",
"581 836 CURVE",
"404 836 OFFCURVE",
"237 572 OFFCURVE",
"260 415 CURVE"
);
},
{
closed = 1;
nodes = (
"992 344 OFFCURVE",
"1053 300 OFFCURVE",
"1012 245 CURVE",
"924 125 OFFCURVE",
"699 -24 OFFCURVE",
"461 -17 CURVE",
"273 -11 OFFCURVE",
"111 140 OFFCURVE",
"112 377 CURVE",
"112 635 OFFCURVE",
"308 967 OFFCURVE",
"569 967 CURVE",
"708 967 OFFCURVE",
"814 885 OFFCURVE",
"814 748 CURVE",
"814 539 OFFCURVE",
"610 371 OFFCURVE",
"262.689 321.582 CURVE",
"312 24 OFFCURVE",
"714 77 OFFCURVE",
"972 324 CURVE"
);
}
);
width = 842;
}
);
unicode = 0065;
},
{
glyphname = f;
lastChange = "2013-12-27 01:17:46 -0800";
layers = (
{
background = {
paths = (
{
closed = 1;
nodes = (
"505 879 OFFCURVE",
"814 1266 OFFCURVE",
"814 1529 CURVE SMOOTH",
"814 1583 OFFCURVE",
"805 1631 OFFCURVE",
"764 1631 CURVE SMOOTH",
"535 1631 OFFCURVE",
"375 775 OFFCURVE",
"349 686 CURVE"
);
},
{
closed = 1;
nodes = (
"278 -187 OFFCURVE",
"282 -379 OFFCURVE",
"321 -379 CURVE SMOOTH",
"440 -379 OFFCURVE",
"441 -173 OFFCURVE",
"441 -62 CURVE SMOOTH",
"441 -57 LINE SMOOTH",
"441 187 OFFCURVE",
"377 384 OFFCURVE",
"305 522 CURVE",
"296 330 OFFCURVE",
"278 144 OFFCURVE",
"278 -47 CURVE SMOOTH"
);
},
{
closed = 1;
nodes = (
"995.999 721 OFFCURVE",
"1009 691 OFFCURVE",
"1009 652 CURVE SMOOTH",
"1009 453 OFFCURVE",
"735 434 OFFCURVE",
"533 427 CURVE",
"589 305 OFFCURVE",
"652 154 OFFCURVE",
"652 -29 CURVE SMOOTH",
"652 -267 OFFCURVE",
"549 -604 OFFCURVE",
"289 -604 CURVE SMOOTH",
"81 -604 OFFCURVE",
"53 -276 OFFCURVE",
"53 -38 CURVE SMOOTH",
"53 521 OFFCURVE",
"245 1856 OFFCURVE",
"801 1856 CURVE SMOOTH",
"926 1856 OFFCURVE",
"1001 1762 OFFCURVE",
"1001 1624 CURVE SMOOTH",
"1001 1243 OFFCURVE",
"661 833 OFFCURVE",
"464 603 CURVE",
"493 593 OFFCURVE",
"539 587 OFFCURVE",
"578 587 CURVE SMOOTH",
"745 587 OFFCURVE",
"817 638 OFFCURVE",
"955 715 CURVE SMOOTH",
"962 719 OFFCURVE",
"967 721 OFFCURVE",
"972.999 721 CURVE SMOOTH"
);
}
);
};
layerId = "DE4BB00D-BABA-4D36-9D9A-44FD0E91C3DF";
name = Regular;
paths = (
{
closed = 1;
nodes = (
"372 754 LINE",
"528 948 OFFCURVE",
"893 1354 OFFCURVE",
"893 1627 CURVE",
"893 1686 OFFCURVE",
"880 1759 OFFCURVE",
"813 1759 CURVE",
"553 1759 OFFCURVE",
"321 757 OFFCURVE",
"294 664 CURVE"
);
},
{
closed = 1;
nodes = (
"242 -195 OFFCURVE",
"244 -442 OFFCURVE",
"321 -442 CURVE",
"470 -442 OFFCURVE",
"471 -173 OFFCURVE",
"471 -62 CURVE",
"471 -57 LINE",
"471 251.185 OFFCURVE",
"369 413 OFFCURVE",
"279 548 CURVE",
"254 321 OFFCURVE",
"242 179 OFFCURVE",
"242 -47 CURVE"
);
},
{
closed = 1;
nodes = (
"980 691 OFFCURVE",
"981 673 OFFCURVE",
"979 652 CURVE",
"960 464 OFFCURVE",
"667 425 OFFCURVE",
"486.757 455.536 CURVE",
"546.788 325.918 OFFCURVE",
"622 168.369 OFFCURVE",
"622 -29 CURVE",
"622 -259 OFFCURVE",
"523 -607 OFFCURVE",
"289 -607 CURVE",
"111 -607 OFFCURVE",
"83 -273 OFFCURVE",
"83 -38 CURVE",
"83 514.854 OFFCURVE",
"324 1924 OFFCURVE",
"850 1924 CURVE",
"956 1924 OFFCURVE",
"1020 1846 OFFCURVE",
"1020 1722 CURVE",
"1020 1376 OFFCURVE",
"728 953 OFFCURVE",
"416 633 CURVE",
"391 603 LINE",
"426 570 OFFCURVE",
"530 557 OFFCURVE",
"578 557 CURVE",
"724 557 OFFCURVE",
"812 612 OFFCURVE",
"877 648 CURVE",
"927 677 OFFCURVE",
"955 691 OFFCURVE",
"966 691 CURVE"
);
}
);
width = 706;
}
);
unicode = 0066;
},
{
glyphname = g;
lastChange = "2013-12-27 00:47:27 -0800";
layers = (
{
background = {
paths = (
{
closed = 1;
nodes = (
"1227 118 OFFCURVE",
"1030 31 OFFCURVE",
"825 -108 CURVE",
"759 -453 OFFCURVE",
"665 -780 OFFCURVE",
"377 -898 CURVE SMOOTH",
"327 -918 OFFCURVE",
"269 -928 OFFCURVE",
"209 -928 CURVE SMOOTH",
"62 -928 OFFCURVE",
"-33 -870 OFFCURVE",
"-33 -729 CURVE SMOOTH",
"-33 -588 OFFCURVE",
"84 -466 OFFCURVE",
"162 -378 CURVE SMOOTH",
"286 -237 OFFCURVE",
"437 -104 OFFCURVE",
"589 12 CURVE",
"619 105 LINE",
"558 55 OFFCURVE",
"474 0 OFFCURVE",
"375 0 CURVE SMOOTH",
"210 0 OFFCURVE",
"105 123 OFFCURVE",
"105 281 CURVE SMOOTH",
"105 648 OFFCURVE",
"409 965 OFFCURVE",
"728 956 CURVE SMOOTH",
"839 953 OFFCURVE",
"829 885 OFFCURVE",
"830 885 CURVE",
"928 925 OFFCURVE",
"1010 868 OFFCURVE",
"994.999 795 CURVE SMOOTH",
"854 114 LINE",
"993.999 229 OFFCURVE",
"1214 371 OFFCURVE",
"1310 392 CURVE SMOOTH",
"1403 412 OFFCURVE",
"1487 299 OFFCURVE",
"1366 214 CURVE SMOOTH"
);
},
{
closed = 1;
nodes = (
"178 -724 OFFCURVE",
"191 -754 OFFCURVE",
"220 -754 CURVE SMOOTH",
"431 -754 OFFCURVE",
"538 -387 OFFCURVE",
"573 -226 CURVE",
"368 -397 OFFCURVE",
"178 -550 OFFCURVE",
"178 -699 CURVE SMOOTH"
);
},
{
closed = 1;
nodes = (
"508 773 OFFCURVE",
"346 508 OFFCURVE",
"346 324 CURVE SMOOTH",
"346 260 OFFCURVE",
"365 192 OFFCURVE",
"449 192 CURVE SMOOTH",
"591 192 OFFCURVE",
"649 380 OFFCURVE",
"675 474 CURVE SMOOTH",
"755 773 LINE"
);
}
);
};
layerId = "DE4BB00D-BABA-4D36-9D9A-44FD0E91C3DF";
name = Regular;
paths = (
{
closed = 1;
nodes = (
"1044 166 OFFCURVE",
"947 88 OFFCURVE",
"736 -57 CURVE",
"638 -569 OFFCURVE",
"487 -940 OFFCURVE",
"136 -940 CURVE",
"1 -940 OFFCURVE",
"-52 -855 OFFCURVE",
"-52 -735 CURVE",
"-52 -489 OFFCURVE",
"349 -187 OFFCURVE",
"586 -7 CURVE",
"604 75 LINE",
"633 192 LINE",
"568 62 OFFCURVE",
"403 26 OFFCURVE",
"313 26 CURVE",
"166 26 OFFCURVE",
"73 134 OFFCURVE",
"73 277 CURVE",
"73 628 OFFCURVE",
"373 959 OFFCURVE",
"675 951 CURVE",
"830 948 OFFCURVE",
"798 880 OFFCURVE",
"798 880 CURVE",
"850 903 OFFCURVE",
"924 875 OFFCURVE",
"914 826 CURVE",
"744 74 LINE",
"901 192 OFFCURVE",
"1004 289 OFFCURVE",
"1150 360 CURVE",
"1217 374 OFFCURVE",
"1272 299 OFFCURVE",
"1183 236 CURVE"
);
},
{
closed = 1;
nodes = (
"75 -762 OFFCURVE",
"94 -812 OFFCURVE",
"147 -812 CURVE",
"410 -812 OFFCURVE",
"504 -402 OFFCURVE",
"563 -151 CURVE",
"358 -321 OFFCURVE",
"75 -563 OFFCURVE",
"75 -727 CURVE"
);
},
{
closed = 1;
nodes = (
"452 855 OFFCURVE",
"254 526 OFFCURVE",
"254 320 CURVE",
"254 252 OFFCURVE",
"280 158 OFFCURVE",
"387 158 CURVE",
"551 158 OFFCURVE",
"616 368 OFFCURVE",
"642 462 CURVE",
"742 826 LINE"
);
}
);
width = 1012;
}
);
unicode = 0067;
},
{
glyphname = h;
lastChange = "2013-12-27 00:18:38 -0800";
layers = (
{
background = {
paths = (
{
closed = 1;
nodes = (
"590 1719 OFFCURVE",
"424 1051 OFFCURVE",
"389 838 CURVE",
"625 1081 OFFCURVE",
"804 1434 OFFCURVE",
"819 1608 CURVE",
"821 1652 OFFCURVE",
"813 1672 OFFCURVE",
"786 1678 CURVE SMOOTH"
);
},
{
closed = 1;
nodes = (
"140 900 OFFCURVE",
"378 1920 OFFCURVE",
"837 1920 CURVE SMOOTH",
"971.999 1920 OFFCURVE",
"1045 1812 OFFCURVE",
"1033 1664 CURVE",
"1003 1434 OFFCURVE",
"888 1134 OFFCURVE",
"383 651 CURVE",
"337 480 LINE",
"643 857 OFFCURVE",
"781 966 OFFCURVE",
"870 966 CURVE SMOOTH",
"964 966 OFFCURVE",
"1029 897 OFFCURVE",
"998.999 807 CURVE SMOOTH",
"931 606 OFFCURVE",
"794 347 OFFCURVE",
"794 213 CURVE SMOOTH",
"794 200 OFFCURVE",
"803 194 OFFCURVE",
"818 194 CURVE SMOOTH",
"895 194 OFFCURVE",
"1129 383 OFFCURVE",
"1155 407 CURVE",
"1163 412 OFFCURVE",
"1171 415 OFFCURVE",
"1179 415 CURVE SMOOTH",
"1215 415 OFFCURVE",
"1245 367 OFFCURVE",
"1245 311 CURVE SMOOTH",
"1245 271 OFFCURVE",
"1229 228 OFFCURVE",
"1187 196 CURVE SMOOTH",
"1086 123 OFFCURVE",
"939 25 OFFCURVE",
"771 0 CURVE SMOOTH",
"636 -20 OFFCURVE",
"542 34 OFFCURVE",
"552 185 CURVE SMOOTH",
"568 429 OFFCURVE",
"727 713 OFFCURVE",
"605 561 CURVE SMOOTH",
"520 455 OFFCURVE",
"407 313 OFFCURVE",
"317 112 CURVE SMOOTH",
"284 39 OFFCURVE",
"251 -17 OFFCURVE",
"163 0 CURVE SMOOTH",
"69 18 OFFCURVE",
"85 236 OFFCURVE",
"94 333 CURVE SMOOTH"
);
}
);
};
layerId = "DE4BB00D-BABA-4D36-9D9A-44FD0E91C3DF";
name = Regular;
paths = (
{
closed = 1;
nodes = (
"677 1792 OFFCURVE",
"397 1071 OFFCURVE",
"347 787 CURVE",
"586 1033 OFFCURVE",
"864 1480 OFFCURVE",
"879 1660 CURVE",
"882 1715 OFFCURVE",
"869 1751 OFFCURVE",
"823 1761 CURVE"
);
},
{
closed = 1;
nodes = (
"165 862 OFFCURVE",
"425 1920 OFFCURVE",
"856 1920 CURVE",
"971 1920 OFFCURVE",
"1033 1830 OFFCURVE",
"1022 1697 CURVE",
"993 1472 OFFCURVE",
"825 1086 OFFCURVE",
"322 606 CURVE",
"285 300 LINE",
"573 786 OFFCURVE",
"814 955 OFFCURVE",
"889 955 CURVE",
"964 955 OFFCURVE",
"975 839 OFFCURVE",
"952 772 CURVE",
"885 573 OFFCURVE",
"763 325 OFFCURVE",
"763 183 CURVE",
"763 150 OFFCURVE",
"789 134 OFFCURVE",
"817 134 CURVE",
"905 134 OFFCURVE",
"1106 314 OFFCURVE",
"1142 346 CURVE",
"1164 364 OFFCURVE",
"1173 380 OFFCURVE",
"1187 380 CURVE",
"1201 380 OFFCURVE",
"1223 348 OFFCURVE",
"1223 306 CURVE",
"1223 274 OFFCURVE",
"1210 241 OFFCURVE",
"1177 215 CURVE",
"1177 216 LINE",
"1077 143 OFFCURVE",
"913 24 OFFCURVE",
"751 0 CURVE",
"631 -18 OFFCURVE",
"603 25 OFFCURVE",
"612 153 CURVE",
"656 525 OFFCURVE",
"928 953 OFFCURVE",
"632 592 CURVE",
"547 493 OFFCURVE",
"398 299 OFFCURVE",
"307 95 CURVE",
"275 25 OFFCURVE",
"228 -13 OFFCURVE",
"163 0 CURVE",
"99 12 OFFCURVE",
"111 208 OFFCURVE",
"119 301 CURVE"
);
}
);
width = 1034;
}
);
unicode = 0068;
},
{
glyphname = i;
lastChange = "2013-12-27 00:35:09 -0800";
layers = (
{
background = {
paths = (
{
closed = 1;
nodes = (
"773 1218 OFFCURVE",
"699 1152 OFFCURVE",
"589 1152 CURVE SMOOTH",
"482 1152 OFFCURVE",
"417 1203 OFFCURVE",
"417 1304 CURVE SMOOTH",
"417 1408 OFFCURVE",
"503 1471 OFFCURVE",
"613 1471 CURVE SMOOTH",
"705 1471 OFFCURVE",
"773 1429 OFFCURVE",
"773 1331 CURVE SMOOTH"
);
},
{
closed = 1;
nodes = (
"698 57 OFFCURVE",
"510 -27 OFFCURVE",
"356 -6 CURVE SMOOTH",
"212 14 OFFCURVE",
"114 124 OFFCURVE",
"114 282 CURVE SMOOTH",
"114 458 OFFCURVE",
"197 722 OFFCURVE",
"278 873 CURVE SMOOTH",
"320 951 OFFCURVE",
"364 960 OFFCURVE",
"427 960 CURVE SMOOTH",
"465 960 OFFCURVE",
"522 933 OFFCURVE",
"522 894 CURVE SMOOTH",
"522 884 OFFCURVE",
"520 874 OFFCURVE",
"514 863 CURVE SMOOTH",
"440 724 OFFCURVE",
"342 457 OFFCURVE",
"342 315 CURVE SMOOTH",
"342 124 OFFCURVE",
"516 118 OFFCURVE",
"741 375 CURVE SMOOTH",
"756 393 OFFCURVE",
"772 403 OFFCURVE",
"793 403 CURVE SMOOTH",
"843 404 OFFCURVE",
"890 368 OFFCURVE",
"887 307 CURVE SMOOTH",
"886 286 OFFCURVE",
"875 272 OFFCURVE",
"855 247 CURVE SMOOTH"
);
}
);
};
layerId = "DE4BB00D-BABA-4D36-9D9A-44FD0E91C3DF";
name = Regular;
paths = (
{
closed = 1;
nodes = (
"713 1247 OFFCURVE",
"654 1182 OFFCURVE",
"559 1182 CURVE",
"466 1182 OFFCURVE",
"417 1222 OFFCURVE",
"417 1304 CURVE",
"417 1389 OFFCURVE",
"487 1441 OFFCURVE",
"583 1441 CURVE",
"662 1441 OFFCURVE",
"713 1395 OFFCURVE",
"713 1331 CURVE"
);
},
{
closed = 1;
nodes = (
"634 60 OFFCURVE",
"470 -19 OFFCURVE",
"326 1 CURVE",
"197 19 OFFCURVE",
"110 116 OFFCURVE",
"110 259 CURVE",
"110 430 OFFCURVE",
"211 733 OFFCURVE",
"291 882 CURVE",
"325 946 OFFCURVE",
"356 953 OFFCURVE",
"414 953 CURVE",
"453 953 OFFCURVE",
"491 930 OFFCURVE",
"474 900 CURVE",
"399 759 OFFCURVE",
"278 439 OFFCURVE",
"278 292 CURVE",
"278 64 OFFCURVE",
"477 58 OFFCURVE",
"717 332 CURVE",
"724 341 OFFCURVE",
"734 349 OFFCURVE",
"746 350 CURVE",
"782 351 OFFCURVE",
"812 327 OFFCURVE",
"810 295 CURVE",
"809 281 OFFCURVE",
"804 268 OFFCURVE",
"785 243 CURVE"
);
}
);
width = 601.005;
}
);
unicode = 0069;
},
{
glyphname = j;
lastChange = "2013-12-27 00:47:40 -0800";
layers = (
{
background = {
paths = (
{
closed = 1;
nodes = (
"746 1218 OFFCURVE",
"672 1152 OFFCURVE",
"562 1152 CURVE SMOOTH",
"455 1152 OFFCURVE",
"390 1203 OFFCURVE",
"390 1304 CURVE SMOOTH",
"390 1408 OFFCURVE",
"476 1471 OFFCURVE",
"586 1471 CURVE SMOOTH",
"678 1471 OFFCURVE",
"746 1429 OFFCURVE",
"746 1331 CURVE SMOOTH"
);
},
{
closed = 1;
nodes = (
"234 -258 OFFCURVE",
"234 -384 OFFCURVE",
"287 -384 CURVE SMOOTH",
"379 -384 OFFCURVE",
"400 -187 OFFCURVE",
"411 -68 CURVE SMOOTH",
"414 -32 LINE SMOOTH",
"429 147 OFFCURVE",
"388 299 OFFCURVE",
"358 447 CURVE",
"306 246 OFFCURVE",
"260 39 OFFCURVE",
"240 -192 CURVE SMOOTH"
);
},
{
closed = 1;
nodes = (
"969.999 426 OFFCURVE",
"733 386 OFFCURVE",
"554 384 CURVE",
"589 267 OFFCURVE",
"620 128 OFFCURVE",
"606 -32 CURVE SMOOTH",
"584 -281 OFFCURVE",
"486 -608 OFFCURVE",
"235 -608 CURVE SMOOTH",
"-8 -608 OFFCURVE",
"10 -258 OFFCURVE",
"33 0 CURVE SMOOTH",
"57 278 OFFCURVE",
"158 592 OFFCURVE",
"255 820 CURVE SMOOTH",
"298 922 OFFCURVE",
"337 960 OFFCURVE",
"470 960 CURVE SMOOTH",
"511 960 OFFCURVE",
"533 932 OFFCURVE",
"530 895 CURVE SMOOTH",
"525 832 OFFCURVE",
"489 756 OFFCURVE",
"466 704 CURVE SMOOTH",
"396 544 LINE",
"618 579 OFFCURVE",
"734 593 OFFCURVE",
"912 672 CURVE",
"920 676 OFFCURVE",
"928 677 OFFCURVE",
"934 677 CURVE SMOOTH",
"959 677 OFFCURVE",
"969.999 651 OFFCURVE",
"969.999 618 CURVE SMOOTH"
);
}
);
};
layerId = "DE4BB00D-BABA-4D36-9D9A-44FD0E91C3DF";
name = Regular;
paths = (
{
closed = 1;
nodes = (
"716 1235.44 OFFCURVE",
"656.567 1182 OFFCURVE",
"562 1182 CURVE",
"469.363 1182 OFFCURVE",
"420 1221.59 OFFCURVE",
"420 1304 CURVE",
"420 1388.79 OFFCURVE",
"489.811 1441 OFFCURVE",
"586 1441 CURVE",
"665.484 1441 OFFCURVE",
"716 1408.27 OFFCURVE",
"716 1331 CURVE"
);
},
{
closed = 1;
nodes = (
"203.633 -261 OFFCURVE",
"200 -443 OFFCURVE",
"287 -443 CURVE",
"410 -443 OFFCURVE",
"429 -200 OFFCURVE",
"443.896 -34 CURVE",
"460 162 OFFCURVE",
"449 332 OFFCURVE",
"328.956 454.514 CURVE",
"276.827 253.013 OFFCURVE",
"230.283 43.5678 OFFCURVE",
"210.112 -189 CURVE"
);
},
{
closed = 1;
nodes = (
"920 438 OFFCURVE",
"694 391 OFFCURVE",
"513 394 CURVE",
"553 269 OFFCURVE",
"591.25 143.597 OFFCURVE",
"576.114 -29 CURVE",
"554.563 -273 OFFCURVE",
"462 -607 OFFCURVE",
"235 -607 CURVE",
"26 -607 OFFCURVE",
"40.1104 -258 OFFCURVE",
"62.8815 -3 CURVE",
"86.5972 272.042 OFFCURVE",
"186 608 OFFCURVE",
"283 835 CURVE",
"322 927 OFFCURVE",
"353 956 OFFCURVE",
"470 956 CURVE",
"492 956 OFFCURVE",
"502 945 OFFCURVE",
"500 924 CURVE",
"496 866 OFFCURVE",
"462 795 OFFCURVE",
"439 743 CURVE",
"346.505 505.714 LINE",
"650 506 OFFCURVE",
"785 570 OFFCURVE",
"896 621 CURVE",
"915 631 OFFCURVE",
"920 624 OFFCURVE",
"920 599 CURVE"
);
}
);
width = 666;
}
);
unicode = 006A;
},
{
glyphname = k;
lastChange = "2013-12-27 00:17:36 -0800";
layers = (
{
background = {
paths = (
{
closed = 1;
nodes = (
"310 592 OFFCURVE",
"511 1681 OFFCURVE",
"775 1681 CURVE SMOOTH",
"994 1681 OFFCURVE",
"542 910 OFFCURVE",
"339 818 CURVE",
"152 704 OFFCURVE",
"240 451 OFFCURVE",
"324 534 CURVE SMOOTH",
"408 617 OFFCURVE",
"1037 1251 OFFCURVE",
"1037 1679 CURVE SMOOTH",
"1037 1798 OFFCURVE",
"973 1926 OFFCURVE",
"845 1926 CURVE SMOOTH",
"484 1926 OFFCURVE",
"152 1182 OFFCURVE",
"117 360 CURVE",
"117 29 OFFCURVE",
"166 -10 OFFCURVE",
"224 -10 CURVE",
"471 -11 OFFCURVE",
"721 731 OFFCURVE",
"940 731 CURVE SMOOTH",
"964 731 OFFCURVE",
"981 715 OFFCURVE",
"981 688 CURVE",
"981 581 OFFCURVE",
"639 374 OFFCURVE",
"639 187 CURVE",
"639 0 OFFCURVE",
"774 -16 OFFCURVE",
"873 -16 CURVE",
"972 -16 OFFCURVE",
"1212 39 OFFCURVE",
"1386 296 CURVE SMOOTH",
"1440 376 OFFCURVE",
"1345 447 OFFCURVE",
"1323 447 CURVE SMOOTH",
"1301 447 OFFCURVE",
"1100 155 OFFCURVE",
"920 155 CURVE",
"888 155 OFFCURVE",
"864 181 OFFCURVE",
"864 218 CURVE",
"884 371 OFFCURVE",
"1247 502 OFFCURVE",
"1223 768 CURVE SMOOTH",
"1210 913 OFFCURVE",
"1094 947 OFFCURVE",
"1022 947 CURVE SMOOTH",
"933 947 OFFCURVE",
"651 911 OFFCURVE",
"334 284 CURVE SMOOTH"
);
}
);
};
layerId = "DE4BB00D-BABA-4D36-9D9A-44FD0E91C3DF";
name = Regular;
paths = (
{
closed = 1;
nodes = (
"264 522 OFFCURVE",
"502 1719 OFFCURVE",
"790 1730 CURVE",
"1073 1730 OFFCURVE",
"534 874 OFFCURVE",
"345 769 CURVE",
"195 677 OFFCURVE",
"264 508 OFFCURVE",
"303 576 CURVE",
"550 755 OFFCURVE",
"1007 1295 OFFCURVE",
"1007 1709 CURVE",
"1007 1817 OFFCURVE",
"950 1926 OFFCURVE",
"845 1926 CURVE",
"510 1926 OFFCURVE",
"182 1139 OFFCURVE",
"147 329 CURVE",
"147 23 OFFCURVE",
"186 -10 OFFCURVE",
"224 -10 CURVE",
"425 0 OFFCURVE",
"697 840 OFFCURVE",
"940 819 CURVE",
"1025 812 OFFCURVE",
"1042 754 OFFCURVE",
"1042 710 CURVE",
"1042 582 OFFCURVE",
"654 403 OFFCURVE",
"654 177 CURVE",
"654 17 OFFCURVE",
"776 -9 OFFCURVE",
"873 -9 CURVE",
"967 -9 OFFCURVE",
"1239 64 OFFCURVE",
"1405 310 CURVE",
"1437 357 OFFCURVE",
"1414 432 OFFCURVE",
"1367 432 CURVE",
"1365 432 OFFCURVE",
"1086 133 OFFCURVE",
"934 133 CURVE",
"884 133 OFFCURVE",
"847 154 OFFCURVE",
"848 208 CURVE",
"869 386 OFFCURVE",
"1216 485 OFFCURVE",
"1193.12 765.304 CURVE",
"1182.13 887.938 OFFCURVE",
"1107 963 OFFCURVE",
"987 963 CURVE",
"894 963 OFFCURVE",
"704 966 OFFCURVE",
"312 286 CURVE"
);
}
);
width = 1227;
}
);
unicode = 006B;
},
{
glyphname = l;
lastChange = "2013-12-26 23:55:02 -0800";
layers = (
{
background = {
paths = (
{
closed = 1;
nodes = (
"601 995.999 OFFCURVE",
"847 1383 OFFCURVE",
"847 1620 CURVE SMOOTH",
"847 1662 OFFCURVE",
"833 1680 OFFCURVE",
"797 1680 CURVE SMOOTH",
"612 1680 OFFCURVE",
"450 1069 OFFCURVE",
"406 772 CURVE"
);
},
{
closed = 1;
nodes = (
"188 1032 OFFCURVE",
"445 1920 OFFCURVE",
"865 1920 CURVE SMOOTH",
"993.999 1920 OFFCURVE",
"1072 1818 OFFCURVE",
"1062 1696 CURVE SMOOTH",
"1031 1275 OFFCURVE",
"699 801 OFFCURVE",
"392 560 CURVE",
"369 392 OFFCURVE",
"348 177 OFFCURVE",
"496 177 CURVE SMOOTH",
"601 177 OFFCURVE",
"719 269 OFFCURVE",
"820 383 CURVE SMOOTH",
"879 450 OFFCURVE",
"1022 352 OFFCURVE",
"923 243 CURVE SMOOTH",
"761 62 OFFCURVE",
"612 -9 OFFCURVE",
"447 -9 CURVE SMOOTH",
"197 -9 OFFCURVE",
"123 205 OFFCURVE",
"148 526 CURVE SMOOTH"
);
}
);
};
layerId = "DE4BB00D-BABA-4D36-9D9A-44FD0E91C3DF";
name = Regular;
paths = (
{
closed = 1;
nodes = (
"510 878 OFFCURVE",
"857 1375 OFFCURVE",
"857 1651 CURVE",
"857 1707 OFFCURVE",
"831 1741 OFFCURVE",
"777 1741 CURVE",
"534 1741 OFFCURVE",
"331 904 OFFCURVE",
"313 676 CURVE"
);
},
{
closed = 1;
nodes = (
"180 1023 OFFCURVE",
"451 1921 OFFCURVE",
"845 1921 CURVE",
"955 1921 OFFCURVE",
"1020 1836 OFFCURVE",
"1012 1729 CURVE",
"981 1314 OFFCURVE",
"608 774 OFFCURVE",
"304 539 CURVE",
"280 345 OFFCURVE",
"272 124 OFFCURVE",
"459 124 CURVE",
"574 124 OFFCURVE",
"703 224 OFFCURVE",
"805 340 CURVE",
"841 380 OFFCURVE",
"933 317 OFFCURVE",
"864 240 CURVE",
"707 65 OFFCURVE",
"566 -2 OFFCURVE",
"410 -2 CURVE",
"185 -2 OFFCURVE",
"117 190 OFFCURVE",
"141 524 CURVE"
);
}
);
width = 695;
}
);
unicode = 006C;
},
{
glyphname = m;
lastChange = "2013-12-27 00:35:46 -0800";
layers = (
{
background = {
paths = (
{
closed = 1;
nodes = (
"366 638 OFFCURVE",
"434 769 OFFCURVE",
"435 875 CURVE SMOOTH",
"436 960 OFFCURVE",
"370 966 OFFCURVE",
"345 966 CURVE",
"266 966 OFFCURVE",
"167 904 OFFCURVE",
"118 218 CURVE",
"112 121 OFFCURVE",
"131 -2 OFFCURVE",
"239 -2 CURVE",
"347 -2 OFFCURVE",
"351 45 OFFCURVE",
"423 210 CURVE SMOOTH",
"495 375 OFFCURVE",
"631 608 OFFCURVE",
"700 679 CURVE",
"669 568 OFFCURVE",
"618 285 OFFCURVE",
"612 151 CURVE SMOOTH",
"606 17 OFFCURVE",
"680 -2 OFFCURVE",
"711 -2 CURVE SMOOTH",
"742 -2 OFFCURVE",
"813 -3 OFFCURVE",
"865 139 CURVE SMOOTH",
"917 281 OFFCURVE",
"1086 614 OFFCURVE",
"1150 662 CURVE",
"1107 500 OFFCURVE",
"1053 280 OFFCURVE",
"1052 176 CURVE SMOOTH",
"1051 72 OFFCURVE",
"1090 -2 OFFCURVE",
"1226 -1 CURVE SMOOTH",
"1362 0 OFFCURVE",
"1543 74 OFFCURVE",
"1692 282 CURVE SMOOTH",
"1725 328 OFFCURVE",
"1597 426 OFFCURVE",
"1561 386 CURVE SMOOTH",
"1494 312 OFFCURVE",
"1381 195 OFFCURVE",
"1295 193 CURVE SMOOTH",
"1176 190 OFFCURVE",
"1319 444 OFFCURVE",
"1346 865 CURVE SMOOTH",
"1349 914 OFFCURVE",
"1312 966 OFFCURVE",
"1236 963 CURVE",
"1160 960 OFFCURVE",
"1127 920 OFFCURVE",
"1111 903 CURVE SMOOTH",
"1095 886 OFFCURVE",
"887 644 OFFCURVE",
"813 411 CURVE",
"858 663 OFFCURVE",
"887 772 OFFCURVE",
"886 857 CURVE SMOOTH",
"885 942 OFFCURVE",
"836 961 OFFCURVE",
"801 961 CURVE SMOOTH",
"651 961 OFFCURVE",
"482 711 OFFCURVE",
"332 414 CURVE"
);
}
);
};
layerId = "DE4BB00D-BABA-4D36-9D9A-44FD0E91C3DF";
name = Regular;
paths = (
{
closed = 1;
nodes = (
"358 729 OFFCURVE",
"416 818 OFFCURVE",
"419 903 CURVE",
"420 961 OFFCURVE",
"383 964 OFFCURVE",
"359 964 CURVE",
"266 966 OFFCURVE",
"199 867 OFFCURVE",
"138 180 CURVE",
"132 88 OFFCURVE",
"149 -8 OFFCURVE",
"229 -8 CURVE",
"313 -8 OFFCURVE",
"310 13 OFFCURVE",
"386 186 CURVE",
"476 393 OFFCURVE",
"679 747 OFFCURVE",
"717 721 CURVE",
"730 702 OFFCURVE",
"641 312 OFFCURVE",
"632 114 CURVE",
"627 8 OFFCURVE",
"678 -8 OFFCURVE",
"701 -8 CURVE",
"730 -8 OFFCURVE",
"783 -7 OFFCURVE",
"827 113 CURVE",
"887 277 OFFCURVE",
"1112 731 OFFCURVE",
"1154 690 CURVE",
"1158 550 OFFCURVE",
"1073 292 OFFCURVE",
"1072 140 CURVE",
"1071 47 OFFCURVE",
"1102 -8 OFFCURVE",
"1216 -7 CURVE",
"1344 -6 OFFCURVE",
"1507 64 OFFCURVE",
"1650 263 CURVE",
"1684 299 OFFCURVE",
"1594 378 OFFCURVE",
"1565 330 CURVE",
"1498 256 OFFCURVE",
"1384 129 OFFCURVE",
"1286 127 CURVE",
"1116 123 OFFCURVE",
"1294 447 OFFCURVE",
"1330 895 CURVE",
"1332 929 OFFCURVE",
"1307 963 OFFCURVE",
"1251 961 CURVE",
"1189 959 OFFCURVE",
"1164 928 OFFCURVE",
"1147 910 CURVE",
"1130 892 OFFCURVE",
"977 708 OFFCURVE",
"787 328 CURVE",
"832 581 OFFCURVE",
"871 804 OFFCURVE",
"870 885 CURVE",
"869 945 OFFCURVE",
"840 959 OFFCURVE",
"815 959 CURVE",
"685 959 OFFCURVE",
"464 641 OFFCURVE",
"317 349 CURVE"
);
}
);
width = 1447;
}
);
unicode = 006D;
},
{
glyphname = n;
lastChange = "2013-12-27 00:19:56 -0800";
layers = (
{
background = {
paths = (
{
closed = 1;
nodes = (
"1156 422 OFFCURVE",
"1269 312 OFFCURVE",
"1244 276 CURVE SMOOTH",
"1120 98 OFFCURVE",
"885 -12 OFFCURVE",
"789 -12 CURVE SMOOTH",
"644 -12 OFFCURVE",
"594 57 OFFCURVE",
"604 206 CURVE SMOOTH",
"612 320 OFFCURVE",
"676 566 OFFCURVE",
"697 672 CURVE",
"602 549 OFFCURVE",
"457 305 OFFCURVE",
"386 121 CURVE SMOOTH",
"347 20 OFFCURVE",
"317 0 OFFCURVE",
"239 0 CURVE SMOOTH",
"130 0 OFFCURVE",
"119 107 OFFCURVE",
"120 216 CURVE SMOOTH",
"122 417 OFFCURVE",
"158 674 OFFCURVE",
"226 861 CURVE SMOOTH",
"247 918 OFFCURVE",
"281 964 OFFCURVE",
"352 964 CURVE SMOOTH",
"411 964 OFFCURVE",
"459 911 OFFCURVE",
"442 860 CURVE SMOOTH",
"410 762 OFFCURVE",
"362 562 OFFCURVE",
"336 438 CURVE",
"505 739 OFFCURVE",
"657 960 OFFCURVE",
"778 960 CURVE SMOOTH",
"855 960 OFFCURVE",
"894 912 OFFCURVE",
"895 869 CURVE SMOOTH",
"897 723 OFFCURVE",
"813 381 OFFCURVE",
"800 270 CURVE SMOOTH",
"792 203 OFFCURVE",
"813 174 OFFCURVE",
"865 187 CURVE SMOOTH",
"910 198 OFFCURVE",
"1003 265 OFFCURVE",
"1105 370 CURVE SMOOTH"
);
}
);
};
layerId = "DE4BB00D-BABA-4D36-9D9A-44FD0E91C3DF";
name = Regular;
paths = (
{
closed = 1;
nodes = (
"1169 382 OFFCURVE",
"1243 307 OFFCURVE",
"1216 267 CURVE",
"1092 97 OFFCURVE",
"868 -12 OFFCURVE",
"777 -12 CURVE",
"644 -12 OFFCURVE",
"604 40 OFFCURVE",
"614 174 CURVE",
"624 318 OFFCURVE",
"745 650 OFFCURVE",
"745 785 CURVE",
"745 785 LINE",
"688 804 OFFCURVE",
"428 359 OFFCURVE",
"324 102 CURVE",
"288 13 OFFCURVE",
"267 0 OFFCURVE",
"199 0 CURVE",
"115 0 OFFCURVE",
"116 80 OFFCURVE",
"117 186 CURVE",
"119 385 OFFCURVE",
"163 688 OFFCURVE",
"234 872 CURVE",
"254 923 OFFCURVE",
"268 955 OFFCURVE",
"325 955 CURVE",
"367 955 OFFCURVE",
"400 920 OFFCURVE",
"390 891 CURVE",
"356 791 OFFCURVE",
"305 490 OFFCURVE",
"278 365 CURVE",
"278 365 LINE",
"512 786 OFFCURVE",
"685 959 OFFCURVE",
"791 959 CURVE",
"853 959 OFFCURVE",
"897 916 OFFCURVE",
"897 887 CURVE",
"899 745 OFFCURVE",
"781 356 OFFCURVE",
"767 243 CURVE",
"757 159 OFFCURVE",
"772 115 OFFCURVE",
"853 135 CURVE",
"907 147 OFFCURVE",
"1025 218 OFFCURVE",
"1119 323 CURVE"
);
}
);
width = 994;
}
);
unicode = 006E;
},
{
glyphname = o;
lastChange = "2013-12-27 01:12:26 -0800";
layers = (
{
background = {
paths = (
{
closed = 1;
nodes = (
"526 490 OFFCURVE",
"511 566 OFFCURVE",
"625 714 CURVE SMOOTH",
"628 718 OFFCURVE",
"603 766 OFFCURVE",
"560 766 CURVE SMOOTH",
"403 766 OFFCURVE",
"290 537 OFFCURVE",
"290 365 CURVE SMOOTH",
"290 258 OFFCURVE",
"327 172 OFFCURVE",
"439 172 CURVE SMOOTH",
"549 172 OFFCURVE",
"645 321 OFFCURVE",
"656 428 CURVE"
);
},
{
closed = 1;
nodes = (
"776 966 OFFCURVE",
"915 790 OFFCURVE",
"864 563 CURVE",
"987.999 581 OFFCURVE",
"1057 632 OFFCURVE",
"1143 689 CURVE SMOOTH",
"1197 725 OFFCURVE",
"1268 582 OFFCURVE",
"1222 536 CURVE SMOOTH",
"1137 452 OFFCURVE",
"939 383 OFFCURVE",
"837 374 CURVE",
"797 220 OFFCURVE",
"669 -16 OFFCURVE",
"375 -16 CURVE SMOOTH",
"175 -16 OFFCURVE",
"64 148 OFFCURVE",
"64 353 CURVE SMOOTH",
"64 672 OFFCURVE",
"304 966 OFFCURVE",
"588 966 CURVE SMOOTH"
);
}
);
};
layerId = "DE4BB00D-BABA-4D36-9D9A-44FD0E91C3DF";
name = Regular;
paths = (
{
closed = 1;
nodes = (
"533 476 OFFCURVE",
"540 688 OFFCURVE",
"632 725 CURVE",
"652 752 OFFCURVE",
"613 825 OFFCURVE",
"543 825 CURVE",
"363 825 OFFCURVE",
"226 526 OFFCURVE",
"226 343 CURVE",
"226 226 OFFCURVE",
"279 120 OFFCURVE",
"415 120 CURVE",
"554 120 OFFCURVE",
"663 336 OFFCURVE",
"670 476 CURVE"
);
},
{
closed = 1;
nodes = (
"751 965 OFFCURVE",
"888 806 OFFCURVE",
"813 577 CURVE",
"974 589 OFFCURVE",
"1015 650 OFFCURVE",
"1110 712 CURVE",
"1158 725 OFFCURVE",
"1193 649 OFFCURVE",
"1151 605 CURVE",
"1066 522 OFFCURVE",
"889 450 OFFCURVE",
"803 451 CURVE",
"771 304 OFFCURVE",
"639 -8 OFFCURVE",
"351 -8 CURVE",
"171 -8 OFFCURVE",
"70 139 OFFCURVE",
"70 331 CURVE",
"70 635 OFFCURVE",
"305 965 OFFCURVE",
"571 965 CURVE"
);
}
);
width = 925;
}
);
unicode = 006F;
},
{
glyphname = p;
lastChange = "2013-12-27 00:32:41 -0800";
layers = (
{
background = {
paths = (
{
closed = 1;
nodes = (
"819 704 OFFCURVE",
"928 546 OFFCURVE",
"936 546 CURVE SMOOTH",
"979.999 546 OFFCURVE",
"1110 576 OFFCURVE",
"1209 674 CURVE",
"1219 681 OFFCURVE",
"1229 685 OFFCURVE",
"1238 685 CURVE SMOOTH",
"1272 685 OFFCURVE",
"1298 640 OFFCURVE",
"1298 597 CURVE SMOOTH",
"1298 574 OFFCURVE",
"1290 552 OFFCURVE",
"1273 537 CURVE",
"1178 411 OFFCURVE",
"988.999 330 OFFCURVE",
"879 330 CURVE SMOOTH",
"740 330 OFFCURVE",
"655 376 OFFCURVE",
"655 488 CURVE SMOOTH",
"655 538 OFFCURVE",
"672 602 OFFCURVE",
"709 680 CURVE",
"719 697 OFFCURVE",
"733 704 OFFCURVE",
"748 704 CURVE SMOOTH"
);
},
{
closed = 1;
nodes = (
"408 -16 OFFCURVE",
"347 11 OFFCURVE",
"290 63 CURVE",
"273 -22 OFFCURVE",
"226 -314 OFFCURVE",
"203 -398 CURVE",
"193 -445 OFFCURVE",
"103 -500 OFFCURVE",
"44 -500 CURVE SMOOTH",
"11 -500 OFFCURVE",
"-13 -483 OFFCURVE",
"-13 -437 CURVE SMOOTH",
"-13 -433 OFFCURVE",
"-12 -429 OFFCURVE",
"-12 -425 CURVE",
"12 -159 OFFCURVE",
"89 192 OFFCURVE",
"96 254 CURVE SMOOTH",
"130 535 OFFCURVE",
"239 966 OFFCURVE",
"651 966 CURVE SMOOTH",
"852 966 OFFCURVE",
"942 805 OFFCURVE",
"942 616 CURVE SMOOTH",
"942 330 OFFCURVE",
"763 -16 OFFCURVE",
"469 -16 CURVE SMOOTH"
);
},
{
closed = 1;
nodes = (
"369 774 OFFCURVE",
"348 386 OFFCURVE",
"314 239 CURVE",
"367 199 OFFCURVE",
"417 182 OFFCURVE",
"464 182 CURVE SMOOTH",
"624 182 OFFCURVE",
"739 382 OFFCURVE",
"739 558 CURVE SMOOTH",
"739 673 OFFCURVE",
"685 774 OFFCURVE",
"604 774 CURVE SMOOTH"
);
}
);
};
layerId = "DE4BB00D-BABA-4D36-9D9A-44FD0E91C3DF";
name = Regular;
paths = (
{
closed = 1;
nodes = (
"810 681 OFFCURVE",
"842 516 OFFCURVE",
"877 516 CURVE",
"925 516 OFFCURVE",
"1064 541 OFFCURVE",
"1180 637 CURVE",
"1198 652 OFFCURVE",
"1223 672 OFFCURVE",
"1232 678 CURVE",
"1256 692 OFFCURVE",
"1267 651 OFFCURVE",
"1262 620 CURVE",
"1257 596 OFFCURVE",
"1248 576 OFFCURVE",
"1237 557 CURVE",
"1149 438 OFFCURVE",
"959 360 OFFCURVE",
"856 360 CURVE",
"729 360 OFFCURVE",
"683 409 OFFCURVE",
"662 488 CURVE",
"650 534 OFFCURVE",
"648 592 OFFCURVE",
"686 645 CURVE",
"718 687 OFFCURVE",
"739 681 OFFCURVE",
"744 681 CURVE"
);
},
{
closed = 1;
nodes = (
"391 0 OFFCURVE",
"298 38 OFFCURVE",
"244 90 CURVE",
"240 94 LINE",
"232 76 OFFCURVE",
"173 -321 OFFCURVE",
"146 -421 CURVE",
"140 -451 OFFCURVE",
"63 -500 OFFCURVE",
"16 -500 CURVE",
"-26 -500 OFFCURVE",
"-11 -450 OFFCURVE",
"-11 -423 CURVE",
"-11 -423 OFFCURVE",
"-2 -352 OFFCURVE",
"-2 -345 CURVE",
"36 -82 OFFCURVE",
"80 180 OFFCURVE",
"94 251 CURVE",
"146 509 OFFCURVE",
"253 973 OFFCURVE",
"600 960 CURVE",
"824 953 OFFCURVE",
"889 793 OFFCURVE",
"889 616 CURVE",
"889 341 OFFCURVE",
"718 0 OFFCURVE",
"446 0 CURVE"
);
},
{
closed = 1;
nodes = (
"322 830 OFFCURVE",
"272 325 OFFCURVE",
"257 227 CURVE",
"337 162 OFFCURVE",
"405 152 OFFCURVE",
"462 152 CURVE",
"643 152 OFFCURVE",
"746 370 OFFCURVE",
"746 558 CURVE",
"746 685 OFFCURVE",
"701 830 OFFCURVE",
"598 830 CURVE"
);
}
);
width = 984;
}
);
unicode = 0070;
},
{
glyphname = q;
lastChange = "2013-12-27 00:37:02 -0800";
layers = (
{
background = {
paths = (
{
closed = 1;
nodes = (
"426 -523 OFFCURVE",
"439 -544 OFFCURVE",
"463 -544 CURVE SMOOTH",
"583 -544 OFFCURVE",
"601 -380 OFFCURVE",
"601 -256 CURVE SMOOTH",
"601 -157 OFFCURVE",
"590 -47 OFFCURVE",
"569 33 CURVE",
"566 24 OFFCURVE",
"560 6 OFFCURVE",
"552 -20 CURVE SMOOTH",
"524 -111 LINE SMOOTH",
"489 -224 OFFCURVE",
"426 -369 OFFCURVE",
"426 -498 CURVE SMOOTH"
);
},
{
closed = 1;
nodes = (
"555 750 OFFCURVE",
"532 768 OFFCURVE",
"505 768 CURVE SMOOTH",
"371 768 OFFCURVE",
"281 644 OFFCURVE",
"281 512 CURVE SMOOTH",
"281 392 OFFCURVE",
"327 297 OFFCURVE",
"441 288 CURVE",
"499 432 OFFCURVE",
"525 578 OFFCURVE",
"569 736 CURVE"
);
},
{
closed = 1;
nodes = (
"676 265 OFFCURVE",
"674 257 OFFCURVE",
"674 256 CURVE SMOOTH",
"674 224 OFFCURVE",
"687 192 OFFCURVE",
"729 192 CURVE SMOOTH",
"860 192 OFFCURVE",
"991.999 338 OFFCURVE",
"1071 396 CURVE SMOOTH",
"1099 417 OFFCURVE",
"1121 424 OFFCURVE",
"1135 424 CURVE SMOOTH",
"1152 424 OFFCURVE",
"1159 411 OFFCURVE",
"1159 392 CURVE SMOOTH",
"1159 332 OFFCURVE",
"1095 206 OFFCURVE",
"1081 192 CURVE SMOOTH",
"992.999 104 OFFCURVE",
"883 28 OFFCURVE",
"726 6 CURVE",
"743 -89 OFFCURVE",
"761 -212 OFFCURVE",
"761 -320 CURVE SMOOTH",
"761 -554 OFFCURVE",
"672 -736 OFFCURVE",
"441 -736 CURVE SMOOTH",
"323 -736 OFFCURVE",
"249 -633 OFFCURVE",
"249 -512 CURVE SMOOTH",
"249 -270 OFFCURVE",
"352 -46 OFFCURVE",
"409 160 CURVE",
"394 158 OFFCURVE",
"379 156 OFFCURVE",
"363 156 CURVE SMOOTH",
"173 156 OFFCURVE",
"57 321 OFFCURVE",
"57 512 CURVE SMOOTH",
"57 764 OFFCURVE",
"257 966 OFFCURVE",
"505 966 CURVE SMOOTH",
"680 966 OFFCURVE",
"791 873 OFFCURVE",
"791 698 CURVE SMOOTH",
"791 553 OFFCURVE",
"717 408 OFFCURVE",
"680 279 CURVE SMOOTH"
);
}
);
};
layerId = "DE4BB00D-BABA-4D36-9D9A-44FD0E91C3DF";
name = Regular;
paths = (
{
closed = 1;
nodes = (
"396 -559 OFFCURVE",
"418 -597 OFFCURVE",
"463 -597 CURVE",
"696 -597 OFFCURVE",
"626 -170 OFFCURVE",
"569 108 CURVE",
"544 58 OFFCURVE",
"396 -348 OFFCURVE",
"396 -521 CURVE"
);
},
{
closed = 1;
nodes = (
"617 806 OFFCURVE",
"571 827 OFFCURVE",
"513 827 CURVE",
"359 827 OFFCURVE",
"259 687 OFFCURVE",
"251 512 CURVE",
"251 374 OFFCURVE",
"328 257 OFFCURVE",
"480 257 CURVE",
"552 428 OFFCURVE",
"617 686 OFFCURVE",
"617 757 CURVE"
);
},
{
closed = 1;
nodes = (
"635 243 OFFCURVE",
"633 173 OFFCURVE",
"729 173 CURVE",
"877 173 OFFCURVE",
"999 347 OFFCURVE",
"1021 364 CURVE",
"1045 372 OFFCURVE",
"1044 329 OFFCURVE",
"1044 305 CURVE",
"1044 237 OFFCURVE",
"1003 191 OFFCURVE",
"994 182 CURVE",
"902 90 OFFCURVE",
"795 43 OFFCURVE",
"683 72 CURVE",
"701 -26 OFFCURVE",
"731 -202 OFFCURVE",
"731 -320 CURVE",
"731 -566 OFFCURVE",
"649 -729 OFFCURVE",
"441 -729 CURVE",
"342 -729 OFFCURVE",
"279 -642 OFFCURVE",
"279 -535 CURVE",
"279 -300 OFFCURVE",
"399 -52 OFFCURVE",
"456 156 CURVE",
"252 144 OFFCURVE",
"87 246 OFFCURVE",
"87 512 CURVE",
"95 777 OFFCURVE",
"281 965 OFFCURVE",
"513 965 CURVE",
"673 965 OFFCURVE",
"762 894 OFFCURVE",
"762 737 CURVE",
"762 599 OFFCURVE",
"689 430 OFFCURVE",
"651 298 CURVE"
);
}
);
width = 815;
}
);
unicode = 0071;
},
{
glyphname = r;
lastChange = "2013-12-27 00:55:26 -0800";
layers = (
{
background = {
paths = (
{
closed = 1;
nodes = (
"613 963 OFFCURVE",
"372 558 OFFCURVE",
"311 368 CURVE",
"340 522 OFFCURVE",
"398 763 OFFCURVE",
"422 860 CURVE SMOOTH",
"435 911 OFFCURVE",
"399 964 OFFCURVE",
"340 964 CURVE SMOOTH",
"269 964 OFFCURVE",
"231 929 OFFCURVE",
"201 833 CURVE SMOOTH",
"146 658 OFFCURVE",
"110 417 OFFCURVE",
"108 216 CURVE SMOOTH",
"107 107 OFFCURVE",
"118 0 OFFCURVE",
"227 0 CURVE SMOOTH",
"305 0 OFFCURVE",
"332 28 OFFCURVE",
"353 77 CURVE",
"511 510 OFFCURVE",
"674 747 OFFCURVE",
"670 734 CURVE SMOOTH",
"602 533 OFFCURVE",
"625 269 OFFCURVE",
"859 300 CURVE SMOOTH",
"958 313 OFFCURVE",
"1046 372 OFFCURVE",
"1096 437 CURVE SMOOTH",
"1163 524 OFFCURVE",
"1083 639 OFFCURVE",
"998.999 555 CURVE SMOOTH",
"871 428 OFFCURVE",
"778 454 OFFCURVE",
"819 624 CURVE SMOOTH",
"869 830 OFFCURVE",
"910 963 OFFCURVE",
"744 963 CURVE SMOOTH"
);
}
);
};
layerId = "DE4BB00D-BABA-4D36-9D9A-44FD0E91C3DF";
name = Regular;
paths = (
{
closed = 1;
nodes = (
"576 963 OFFCURVE",
"354 508 OFFCURVE",
"295 325 CURVE",
"315 605 OFFCURVE",
"381 800 OFFCURVE",
"405 897 CURVE",
"414 932 OFFCURVE",
"391 964 OFFCURVE",
"352 964 CURVE",
"297 964 OFFCURVE",
"279 939 OFFCURVE",
"253 854 CURVE",
"198 681 OFFCURVE",
"143 383 OFFCURVE",
"141 184 CURVE",
"140 79 OFFCURVE",
"139 -2 OFFCURVE",
"219 -2 CURVE",
"282 -2 OFFCURVE",
"283 15 OFFCURVE",
"301 56 CURVE",
"490 572 OFFCURVE",
"761 953 OFFCURVE",
"698.418 724.386 CURVE",
"633.714 533.13 OFFCURVE",
"656.129 303.386 OFFCURVE",
"855.06 329.74 CURVE",
"945.104 341.564 OFFCURVE",
"1031 420 OFFCURVE",
"1077 479 CURVE",
"1126 542 OFFCURVE",
"1078 611 OFFCURVE",
"1025 558 CURVE",
"843 377 OFFCURVE",
"754 435 OFFCURVE",
"803 641 CURVE",
"854 850 OFFCURVE",
"871 963 OFFCURVE",
"744 963 CURVE"
);
}
);
width = 873.003;
}
);
unicode = 0072;
},
{
glyphname = s;
lastChange = "2013-12-27 00:57:45 -0800";
layers = (
{
background = {
paths = (
{
closed = 1;
nodes = (
"166 20 OFFCURVE",
"385 -16 OFFCURVE",
"487 -16 CURVE SMOOTH",
"810 -16 OFFCURVE",
"1036 130 OFFCURVE",
"1191 279 CURVE",
"1231 323 OFFCURVE",
"1166 485 OFFCURVE",
"1099 418 CURVE SMOOTH",
"1055 374 OFFCURVE",
"933 257 OFFCURVE",
"785 213 CURVE",
"926 473 OFFCURVE",
"613 690 OFFCURVE",
"688 792 CURVE SMOOTH",
"787 928 OFFCURVE",
"598 1061 OFFCURVE",
"484 898 CURVE SMOOTH",
"411 788 OFFCURVE",
"108 349 OFFCURVE",
"23 236 CURVE"
);
},
{
closed = 1;
nodes = (
"670 341 OFFCURVE",
"640 144 OFFCURVE",
"442 151 CURVE SMOOTH",
"382 153 OFFCURVE",
"326 193 OFFCURVE",
"280 231 CURVE",
"360 346 OFFCURVE",
"543 624 OFFCURVE",
"543 624 CURVE"
);
}
);
};
layerId = "DE4BB00D-BABA-4D36-9D9A-44FD0E91C3DF";
name = Regular;
paths = (
{
closed = 1;
nodes = (
"34 150 OFFCURVE",
"224 -5 OFFCURVE",
"448 -8 CURVE",
"759 -8 OFFCURVE",
"962 133 OFFCURVE",
"1113 279 CURVE",
"1133 303 OFFCURVE",
"1092 404 OFFCURVE",
"1064 376 CURVE",
"1013 324 OFFCURVE",
"872 163 OFFCURVE",
"683 125 CURVE",
"919 436 OFFCURVE",
"550 700 OFFCURVE",
"654 841 CURVE",
"729 944 OFFCURVE",
"604 1034 OFFCURVE",
"513 904 CURVE",
"465 834 LINE",
"88 239 OFFCURVE",
"37 272 OFFCURVE",
"34 205 CURVE"
);
},
{
closed = 1;
nodes = (
"528 703 LINE",
"716 331 OFFCURVE",
"628 99 OFFCURVE",
"402 108 CURVE",
"321 111 OFFCURVE",
"248 163 OFFCURVE",
"200 204 CURVE",
"268 299 OFFCURVE",
"486 641 OFFCURVE",
"486 641 CURVE"
);
}
);
width = 896;
}
);
unicode = 0073;
},
{
glyphname = t;
lastChange = "2013-12-27 01:13:09 -0800";
layers = (
{
background = {
paths = (
{
closed = 1;
nodes = (
"944 978.999 OFFCURVE",
"985.999 801 OFFCURVE",
"896 792 CURVE SMOOTH",
"713 773 OFFCURVE",
"203 612 OFFCURVE",
"120 576 CURVE SMOOTH",
"23 533 OFFCURVE",
"-19 688 OFFCURVE",
"53 718 CURVE SMOOTH",
"328 837 OFFCURVE",
"693 947 OFFCURVE",
"843 965 CURVE SMOOTH"
);
},
{
closed = 1;
nodes = (
"617 1022 OFFCURVE",
"803 1276 OFFCURVE",
"833 1540 CURVE",
"837 1563 OFFCURVE",
"829 1581 OFFCURVE",
"810 1582 CURVE",
"602 1583 OFFCURVE",
"478 1086 OFFCURVE",
"438 827 CURVE"
);
},
{
closed = 1;
nodes = (
"239 1073 OFFCURVE",
"471 1828 OFFCURVE",
"847 1824 CURVE SMOOTH",
"964 1822 OFFCURVE",
"1008 1732 OFFCURVE",
"998.999 1626 CURVE SMOOTH",
"970.999 1258 OFFCURVE",
"700 882 OFFCURVE",
"418 672 CURVE",
"391 476 OFFCURVE",
"364 177 OFFCURVE",
"517 177 CURVE SMOOTH",
"622 177 OFFCURVE",
"740 269 OFFCURVE",
"841 383 CURVE SMOOTH",
"900 450 OFFCURVE",
"1043 352 OFFCURVE",
"944 243 CURVE SMOOTH",
"782 62 OFFCURVE",
"633 -9 OFFCURVE",
"468 -9 CURVE SMOOTH",
"218 -9 OFFCURVE",
"158 311 OFFCURVE",
"192 635 CURVE SMOOTH"
);
}
);
};
layerId = "DE4BB00D-BABA-4D36-9D9A-44FD0E91C3DF";
name = Regular;
paths = (
{
closed = 1;
nodes = (
"867 915 OFFCURVE",
"902 798 OFFCURVE",
"849 793 CURVE",
"655 774 OFFCURVE",
"118 611 OFFCURVE",
"30 575 CURVE",
"-29 549 OFFCURVE",
"-56 645 OFFCURVE",
"-15 661 CURVE",
"270 780 OFFCURVE",
"647 889 OFFCURVE",
"801 906 CURVE"
);
},
{
closed = 1;
nodes = (
"535 988 OFFCURVE",
"793 1228 OFFCURVE",
"830 1534 CURVE",
"835 1570 OFFCURVE",
"836 1650 OFFCURVE",
"794 1652 CURVE",
"511 1654 OFFCURVE",
"355 984 OFFCURVE",
"333 786 CURVE"
);
},
{
closed = 1;
nodes = (
"197 1034 OFFCURVE",
"448 1796 OFFCURVE",
"814 1792 CURVE",
"912 1790 OFFCURVE",
"949 1720 OFFCURVE",
"941 1627 CURVE",
"912 1264 OFFCURVE",
"621 889 OFFCURVE",
"329 684 CURVE",
"299 487 OFFCURVE",
"257 91 OFFCURVE",
"457 91 CURVE",
"577 91 OFFCURVE",
"739 204 OFFCURVE",
"846 320 CURVE",
"883 360 OFFCURVE",
"979 296 OFFCURVE",
"907 220 CURVE",
"744 44 OFFCURVE",
"568 -35 OFFCURVE",
"406 -35 CURVE",
"175 -35 OFFCURVE",
"115 261 OFFCURVE",
"149 603 CURVE"
);
}
);
width = 724.998;
}
);
unicode = 0074;
},
{
glyphname = u;
lastChange = "2013-12-18 05:28:01 -0800";
layers = (
{
background = {
paths = (
{
closed = 1;
nodes = (
"946 791 OFFCURVE",
"866 531 OFFCURVE",
"838 286 CURVE SMOOTH",
"829 205 OFFCURVE",
"851 184 OFFCURVE",
"878 186 CURVE SMOOTH",
"965 192 OFFCURVE",
"1089 323 OFFCURVE",
"1121 353 CURVE SMOOTH",
"1145 375 OFFCURVE",
"1149 384 OFFCURVE",
"1170 384 CURVE SMOOTH",
"1218 384 OFFCURVE",
"1285 326 OFFCURVE",
"1279 283 CURVE",
"1207 151 OFFCURVE",
"960 -7 OFFCURVE",
"819 -12 CURVE SMOOTH",
"667 -17 OFFCURVE",
"614 70 OFFCURVE",
"644 251 CURVE",
"608 154 OFFCURVE",
"479 -33 OFFCURVE",
"282 -13 CURVE SMOOTH",
"95 6 OFFCURVE",
"56 142 OFFCURVE",
"76 330 CURVE SMOOTH",
"105 602 OFFCURVE",
"182 864 OFFCURVE",
"213 915 CURVE SMOOTH",
"237 955 OFFCURVE",
"270 964 OFFCURVE",
"317 964 CURVE SMOOTH",
"376 964 OFFCURVE",
"418 934 OFFCURVE",
"414 888 CURVE SMOOTH",
"410 838 OFFCURVE",
"303 502 OFFCURVE",
"285 313 CURVE SMOOTH",
"278 244 OFFCURVE",
"287 197 OFFCURVE",
"330 184 CURVE SMOOTH",
"428 154 OFFCURVE",
"583 269 OFFCURVE",
"654 523 CURVE SMOOTH",
"736 816 LINE SMOOTH",
"774 953 OFFCURVE",
"809 964 OFFCURVE",
"876 964 CURVE SMOOTH",
"929 964 OFFCURVE",
"983.999 915 OFFCURVE",
"969.999 869 CURVE SMOOTH"
);
}
);
};
layerId = "DE4BB00D-BABA-4D36-9D9A-44FD0E91C3DF";
name = Regular;
paths = (
{
closed = 1;
nodes = (
"924 814 OFFCURVE",
"828 516 OFFCURVE",
"800 268 CURVE",
"788 166 OFFCURVE",
"825 132 OFFCURVE",
"872 135 CURVE",
"970 142 OFFCURVE",
"1102 281 OFFCURVE",
"1133 310 CURVE",
"1163 337 OFFCURVE",
"1178 352 OFFCURVE",
"1182 352 CURVE",
"1218 384 OFFCURVE",
"1269 315 OFFCURVE",
"1241 272 CURVE",
"1171 149 OFFCURVE",
"939 2 OFFCURVE",
"810 -3 CURVE",
"679 -7 OFFCURVE",
"638 59 OFFCURVE",
"665 225 CURVE",
"673 270 LINE",
"639 179 OFFCURVE",
"454 -22 OFFCURVE",
"277 -4 CURVE",
"114 12 OFFCURVE",
"79 128 OFFCURVE",
"97 306 CURVE",
"126 575 OFFCURVE",
"216 874 OFFCURVE",
"245 922 CURVE",
"262 950 OFFCURVE",
"283 956 OFFCURVE",
"324 956 CURVE",
"369 956 OFFCURVE",
"393 938 OFFCURVE",
"391 913 CURVE",
"387 866 OFFCURVE",
"265 487 OFFCURVE",
"247 295 CURVE",
"239 220 OFFCURVE",
"251 167 OFFCURVE",
"313 148 CURVE",
"416 127 OFFCURVE",
"610 262 OFFCURVE",
"682.892 514.924 CURVE",
"772 830 LINE",
"804 948 OFFCURVE",
"841 960 OFFCURVE",
"900 953 CURVE",
"936 947 OFFCURVE",
"955 914 OFFCURVE",
"948 892 CURVE"
);
}
);
width = 1015;
}
);
unicode = 0075;
},
{
glyphname = v;
lastChange = "2013-12-27 00:20:24 -0800";
layers = (
{
background = {
paths = (
{
closed = 1;
nodes = (
"1054 260 OFFCURVE",
"934 211 OFFCURVE",
"846 211 CURVE SMOOTH",
"736 211 OFFCURVE",
"653 244 OFFCURVE",
"601 342 CURVE",
"546 227 OFFCURVE",
"462 98 OFFCURVE",
"370 22 CURVE SMOOTH",
"344 0 OFFCURVE",
"318 -11 OFFCURVE",
"295 -11 CURVE SMOOTH",
"132 -11 OFFCURVE",
"107 253 OFFCURVE",
"107 495 CURVE SMOOTH",
"107 602 OFFCURVE",
"112 704 OFFCURVE",
"112 778 CURVE SMOOTH",
"112 877 OFFCURVE",
"152 962 OFFCURVE",
"247 962 CURVE SMOOTH",
"321 962 OFFCURVE",
"374 910 OFFCURVE",
"374 837 CURVE SMOOTH",
"374 826 LINE",
"335 261 LINE",
"349 262 LINE",
"612 889 LINE",
"621 933 OFFCURVE",
"674 960 OFFCURVE",
"728 960 CURVE SMOOTH",
"785 960 OFFCURVE",
"860 936 OFFCURVE",
"860 893 CURVE SMOOTH",
"860 888 OFFCURVE",
"859 882 OFFCURVE",
"856 876 CURVE",
"817 784 OFFCURVE",
"749 647 OFFCURVE",
"749 528 CURVE SMOOTH",
"749 427 OFFCURVE",
"786 365 OFFCURVE",
"883 365 CURVE SMOOTH",
"956 365 OFFCURVE",
"1043 409 OFFCURVE",
"1094 442 CURVE SMOOTH",
"1103 448 OFFCURVE",
"1113 450 OFFCURVE",
"1121 450 CURVE SMOOTH",
"1148 450 OFFCURVE",
"1162 420 OFFCURVE",
"1162 387 CURVE SMOOTH",
"1162 353 OFFCURVE",
"1146 316 OFFCURVE",
"1115 297 CURVE SMOOTH"
);
}
);
};
layerId = "DE4BB00D-BABA-4D36-9D9A-44FD0E91C3DF";
name = Regular;
paths = (
{
closed = 1;
nodes = (
"1040.47 286.878 OFFCURVE",
"928.111 241 OFFCURVE",
"846 241 CURVE",
"722.464 241 OFFCURVE",
"635 348 OFFCURVE",
"635 455 CURVE",
"583 328 OFFCURVE",
"433 109 OFFCURVE",
"327 22 CURVE",
"306 4 OFFCURVE",
"286 -5 OFFCURVE",
"271 -5 CURVE",
"139 -5 OFFCURVE",
"137 263 OFFCURVE",
"137 500 CURVE",
"137 606 OFFCURVE",
"146 733 OFFCURVE",
"155 808 CURVE",
"164 896 OFFCURVE",
"175 962 OFFCURVE",
"247 962 CURVE",
"418 975 OFFCURVE",
"251 475 OFFCURVE",
"307 212 CURVE",
"474 408 OFFCURVE",
"602 960 OFFCURVE",
"741 960 CURVE",
"787 960 OFFCURVE",
"854 945 OFFCURVE",
"843 918 CURVE",
"839 908 OFFCURVE",
"733 685 OFFCURVE",
"719 528 CURVE",
"719 415 OFFCURVE",
"764.932 335 OFFCURVE",
"883 335 CURVE",
"963.155 335 OFFCURVE",
"1057.96 382.948 OFFCURVE",
"1110.3 416.813 CURVE",
"1123 425 OFFCURVE",
"1132 417 OFFCURVE",
"1132 387 CURVE",
"1132 361.342 OFFCURVE",
"1120.41 335.501 OFFCURVE",
"1099.32 322.578 CURVE"
);
}
);
width = 907;
}
);
unicode = 0076;
},
{
glyphname = w;
lastChange = "2013-12-27 00:21:11 -0800";
layers = (
{
background = {
paths = (
{
closed = 1;
nodes = (
"184 3 OFFCURVE",
"161 143 OFFCURVE",
"161 316 CURVE SMOOTH",
"161 383 LINE SMOOTH",
"161 609 OFFCURVE",
"168 961 OFFCURVE",
"310 961 CURVE",
"334 959 LINE",
"381 959 OFFCURVE",
"422 942 OFFCURVE",
"422 905 CURVE SMOOTH",
"422 898 LINE",
"352 284 LINE",
"370 325 LINE SMOOTH",
"438 484 OFFCURVE",
"528 670 OFFCURVE",
"593 812 CURVE SMOOTH",
"631 896 OFFCURVE",
"651 959 OFFCURVE",
"768 959 CURVE SMOOTH",
"815 959 OFFCURVE",
"859 942 OFFCURVE",
"859 906 CURVE SMOOTH",
"859 904 OFFCURVE",
"858 902 OFFCURVE",
"858 898 CURVE",
"833 294 LINE",
"827 236 LINE",
"1081 891 LINE SMOOTH",
"1097 932 OFFCURVE",
"1160 960 OFFCURVE",
"1224 960 CURVE SMOOTH",
"1262 960 OFFCURVE",
"1311 932 OFFCURVE",
"1311 884 CURVE SMOOTH",
"1311 879 OFFCURVE",
"1309 874 OFFCURVE",
"1307 868 CURVE SMOOTH",
"1269 742 OFFCURVE",
"1242 717 OFFCURVE",
"1185 544 CURVE SMOOTH",
"1095 273 OFFCURVE",
"1398 177 OFFCURVE",
"1649 355 CURVE SMOOTH",
"1715 402 OFFCURVE",
"1790 285 OFFCURVE",
"1742 244 CURVE SMOOTH",
"1445 -8 OFFCURVE",
"1053 44 OFFCURVE",
"1054 347 CURVE",
"1006 219 OFFCURVE",
"906 3 OFFCURVE",
"810 3 CURVE SMOOTH",
"699 3 OFFCURVE",
"644 183 OFFCURVE",
"644 348 CURVE SMOOTH",
"644 442 OFFCURVE",
"643 603 OFFCURVE",
"643 603 CURVE",
"588 479 LINE SMOOTH",
"530 349 OFFCURVE",
"475 222 OFFCURVE",
"397 78 CURVE SMOOTH",
"368 25 OFFCURVE",
"319 3 OFFCURVE",
"295 3 CURVE SMOOTH"
);
}
);
};
layerId = "DE4BB00D-BABA-4D36-9D9A-44FD0E91C3DF";
name = Regular;
paths = (
{
closed = 1;
nodes = (
"156 0 OFFCURVE",
"135 114 OFFCURVE",
"143 316 CURVE",
"143 580 OFFCURVE",
"167 884 OFFCURVE",
"219 932 CURVE SMOOTH",
"241 952 OFFCURVE",
"264 956 OFFCURVE",
"316 956 CURVE",
"397 953 OFFCURVE",
"290 787 OFFCURVE",
"297 234 CURVE",
"391 437 OFFCURVE",
"490 613 OFFCURVE",
"597 835 CURVE",
"638 920 OFFCURVE",
"661 956 OFFCURVE",
"761 956 CURVE",
"800 956 OFFCURVE",
"805 952 OFFCURVE",
"815 945 CURVE",
"832 931 OFFCURVE",
"784 737 OFFCURVE",
"811 165 CURVE",
"994 515 OFFCURVE",
"1098 957 OFFCURVE",
"1241 957 CURVE",
"1268 957 OFFCURVE",
"1316 951 OFFCURVE",
"1301 911 CURVE",
"1289 883 OFFCURVE",
"1259 821 OFFCURVE",
"1184 608 CURVE",
"1078 302 OFFCURVE",
"1225 159 OFFCURVE",
"1527 488 CURVE",
"1560 512 OFFCURVE",
"1605 419 OFFCURVE",
"1583 401 CURVE",
"1383 125 OFFCURVE",
"1051 76 OFFCURVE",
"1052 347 CURVE",
"1052 347 LINE",
"1004 224 OFFCURVE",
"881 0 OFFCURVE",
"787 0 CURVE",
"697 0 OFFCURVE",
"652 158 OFFCURVE",
"643 348 CURVE",
"642 682 LINE",
"512 445 OFFCURVE",
"408 205 OFFCURVE",
"324 59 CURVE",
"299 17 OFFCURVE",
"260 0 OFFCURVE",
"245 0 CURVE"
);
}
);
width = 1367;
}
);
unicode = 0077;
},
{
glyphname = x;
lastChange = "2013-12-27 00:37:38 -0800";
layers = (
{
background = {
paths = (
{
closed = 1;
nodes = (
"595 0 OFFCURVE",
"498 254 OFFCURVE",
"472 388 CURVE",
"405 296 OFFCURVE",
"310 0 OFFCURVE",
"148 0 CURVE",
"28 0 OFFCURVE",
"-14 100 OFFCURVE",
"-23 225 CURVE",
"70 281 LINE",
"83 237 OFFCURVE",
"93 154 OFFCURVE",
"143 154 CURVE",
"233 154 OFFCURVE",
"294 389 OFFCURVE",
"412 562 CURVE",
"377 728 OFFCURVE",
"344 735 OFFCURVE",
"281 849 CURVE",
"263 883 OFFCURVE",
"268 904 OFFCURVE",
"285 922 CURVE",
"305 944 OFFCURVE",
"349 959 OFFCURVE",
"386 953 CURVE",
"456 940 OFFCURVE",
"516 754 OFFCURVE",
"528 695 CURVE",
"606 782 OFFCURVE",
"695 861 OFFCURVE",
"798 929 CURVE",
"823 945 OFFCURVE",
"841 955 OFFCURVE",
"869 955 CURVE",
"910 955 OFFCURVE",
"933 920 OFFCURVE",
"933 870 CURVE",
"933 832 OFFCURVE",
"917 815 OFFCURVE",
"894 801 CURVE",
"781 729 OFFCURVE",
"635 591 OFFCURVE",
"581 499 CURVE",
"623 363 OFFCURVE",
"675 124 OFFCURVE",
"784 124 CURVE",
"881 124 OFFCURVE",
"1083 340 OFFCURVE",
"1145 409 CURVE",
"1166 432 OFFCURVE",
"1174 429 OFFCURVE",
"1174 429 CURVE",
"1174 429 OFFCURVE",
"1183 430 OFFCURVE",
"1183 395 CURVE",
"1183 341 OFFCURVE",
"1176 297 OFFCURVE",
"1154 261 CURVE",
"1084 169 OFFCURVE",
"923 0 OFFCURVE",
"753 0 CURVE"
);
}
);
};
layerId = "DE4BB00D-BABA-4D36-9D9A-44FD0E91C3DF";
name = Regular;
paths = (
{
closed = 1;
nodes = (
"817 754 OFFCURVE",
"531 544 OFFCURVE",
"375 214 CURVE SMOOTH",
"274 0 OFFCURVE",
"177 0 OFFCURVE",
"143 0 CURVE SMOOTH",
"109 0 OFFCURVE",
"7 -17 OFFCURVE",
"-5 158 CURVE",
"-6 184 OFFCURVE",
"0 188 OFFCURVE",
"8 194 CURVE",
"16 200 OFFCURVE",
"61 231 OFFCURVE",
"72 234 CURVE SMOOTH",
"83 237 OFFCURVE",
"89 225 OFFCURVE",
"90 217 CURVE SMOOTH",
"91 209 OFFCURVE",
"94 155 OFFCURVE",
"143 155 CURVE SMOOTH",
"271 154 OFFCURVE",
"291 591 OFFCURVE",
"845 932 CURVE SMOOTH",
"871 948 OFFCURVE",
"910 948 OFFCURVE",
"924 922 CURVE",
"938 896 OFFCURVE",
"942 826 OFFCURVE",
"901 809 CURVE SMOOTH"
);
},
{
closed = 1;
nodes = (
"542 961 OFFCURVE",
"592 126 OFFCURVE",
"780 126 CURVE SMOOTH",
"898 126 OFFCURVE",
"1073 356 OFFCURVE",
"1139 422 CURVE",
"1156 439 OFFCURVE",
"1165 423 OFFCURVE",
"1169 412 CURVE",
"1173 401 OFFCURVE",
"1165 298 OFFCURVE",
"1119 237 CURVE",
"1073 176 OFFCURVE",
"925 -3 OFFCURVE",
"753 1 CURVE SMOOTH",
"471 8 OFFCURVE",
"430 741 OFFCURVE",
"299 837 CURVE SMOOTH",
"228 889 OFFCURVE",
"284 967 OFFCURVE",
"370 960 CURVE SMOOTH"
);
}
);
width = 955;
}
);
unicode = 0078;
},
{
glyphname = y;
lastChange = "2013-12-27 00:39:53 -0800";
layers = (
{
background = {
paths = (
{
closed = 1;
nodes = (
"148 -724 OFFCURVE",
"162 -752 OFFCURVE",
"191 -756 CURVE SMOOTH",
"393 -786 OFFCURVE",
"510 -397 OFFCURVE",
"544 -236 CURVE",
"401 -324 OFFCURVE",
"234 -489 OFFCURVE",
"164 -641 CURVE SMOOTH",
"153 -664 OFFCURVE",
"148 -684 OFFCURVE",
"148 -699 CURVE SMOOTH"
);
},
{
closed = 1;
nodes = (
"381 584 OFFCURVE",
"344 454 OFFCURVE",
"344 324 CURVE SMOOTH",
"344 260 OFFCURVE",
"360 192 OFFCURVE",
"438 192 CURVE SMOOTH",
"568 192 OFFCURVE",
"620 381 OFFCURVE",
"645 474 CURVE SMOOTH",
"718 768 LINE SMOOTH",
"740 846 OFFCURVE",
"798 909 OFFCURVE",
"898 909 CURVE SMOOTH",
"941 909 OFFCURVE",
"976.999 893 OFFCURVE",
"976.999 853 CURVE SMOOTH",
"976.999 718 OFFCURVE",
"916 553 OFFCURVE",
"891 412 CURVE SMOOTH",
"873 313 OFFCURVE",
"854 227 OFFCURVE",
"836 114 CURVE",
"975.999 229 OFFCURVE",
"1221 392 OFFCURVE",
"1317 413 CURVE SMOOTH",
"1410 433 OFFCURVE",
"1494 320 OFFCURVE",
"1373 235 CURVE SMOOTH",
"1234 139 OFFCURVE",
"1006 31 OFFCURVE",
"801 -108 CURVE",
"734 -460 OFFCURVE",
"617 -928 OFFCURVE",
"178 -928 CURVE SMOOTH",
"31 -928 OFFCURVE",
"-64 -870 OFFCURVE",
"-64 -729 CURVE SMOOTH",
"-64 -588 OFFCURVE",
"54 -466 OFFCURVE",
"132 -378 CURVE SMOOTH",
"256 -237 OFFCURVE",
"407 -144 OFFCURVE",
"561 -28 CURVE",
"630 185 LINE",
"620 75 OFFCURVE",
"445 -2 OFFCURVE",
"346 -2 CURVE SMOOTH",
"179 -2 OFFCURVE",
"74 123 OFFCURVE",
"74 281 CURVE SMOOTH",
"74 513 OFFCURVE",
"131 677 OFFCURVE",
"213 832 CURVE SMOOTH",
"240 881 OFFCURVE",
"303 924 OFFCURVE",
"375 924 CURVE SMOOTH",
"426 924 OFFCURVE",
"474 900 OFFCURVE",
"474 852 CURVE SMOOTH",
"474 793 OFFCURVE",
"437 751 OFFCURVE",
"416 692 CURVE SMOOTH"
);
}
);
};
layerId = "DE4BB00D-BABA-4D36-9D9A-44FD0E91C3DF";
name = Regular;
paths = (
{
closed = 1;
nodes = (
"118 -750 OFFCURVE",
"138 -794 OFFCURVE",
"187 -801 CURVE",
"470 -843 OFFCURVE",
"553 -285 OFFCURVE",
"586 -169 CURVE",
"345 -313 OFFCURVE",
"118 -589 OFFCURVE",
"118 -714 CURVE"
);
},
{
closed = 1;
nodes = (
"373 626 OFFCURVE",
"314 466 OFFCURVE",
"314 332 CURVE",
"314 265 OFFCURVE",
"336 170 OFFCURVE",
"438 170 CURVE",
"591 170 OFFCURVE",
"660 381 OFFCURVE",
"685 474 CURVE",
"685 475 LINE",
"778 837 LINE",
"778 836 LINE",
"797 903 OFFCURVE",
"836 955 OFFCURVE",
"918 955 CURVE",
"951 955 OFFCURVE",
"967 946 OFFCURVE",
"967 929 CURVE",
"967 799 OFFCURVE",
"887 569 OFFCURVE",
"861 425 CURVE",
"840 305 OFFCURVE",
"813 253 OFFCURVE",
"791 96 CURVE",
"965 234 OFFCURVE",
"1084 326 OFFCURVE",
"1189 349 CURVE",
"1256 363 OFFCURVE",
"1291 235 OFFCURVE",
"1230 222 CURVE",
"1091 177 OFFCURVE",
"977 107 OFFCURVE",
"774 -62 CURVE",
"708 -413 OFFCURVE",
"596 -941 OFFCURVE",
"178 -941 CURVE",
"43 -941 OFFCURVE",
"-34 -892 OFFCURVE",
"-34 -772 CURVE",
"-34 -643 OFFCURVE",
"76 -468 OFFCURVE",
"154 -380 CURVE",
"278 -240 OFFCURVE",
"437 -132 OFFCURVE",
"595 -12 CURVE",
"659 184 LINE",
"633 95 OFFCURVE",
"495 -2 OFFCURVE",
"346 -2 CURVE",
"197 -2 OFFCURVE",
"130 146 OFFCURVE",
"130 289 CURVE",
"130 516 OFFCURVE",
"205 741 OFFCURVE",
"286 894 CURVE",
"308 934 OFFCURVE",
"335 970 OFFCURVE",
"395 970 CURVE",
"435 970 OFFCURVE",
"464 953 OFFCURVE",
"464 928 CURVE",
"464 880 OFFCURVE",
"445 842 OFFCURVE",
"422 778 CURVE"
);
}
);
width = 1013;
}
);
unicode = 0079;
},
{
glyphname = z;
lastChange = "2013-12-27 00:15:24 -0800";
layers = (
{
background = {
paths = (
{
closed = 1;
nodes = (
"245 46 OFFCURVE",
"206 -2 OFFCURVE",
"166 -2 CURVE SMOOTH",
"90 -2 OFFCURVE",
"49 51 OFFCURVE",
"49 127 CURVE SMOOTH",
"49 192 OFFCURVE",
"115 211 OFFCURVE",
"143 251 CURVE SMOOTH",
"484 729 LINE",
"441 738 OFFCURVE",
"402 742 OFFCURVE",
"369 742 CURVE SMOOTH",
"282 742 OFFCURVE",
"231 705 OFFCURVE",
"154 705 CURVE SMOOTH",
"130 705 OFFCURVE",
"125 731 OFFCURVE",
"125 758 CURVE SMOOTH",
"125 880 OFFCURVE",
"149 983.999 OFFCURVE",
"265 983.999 CURVE SMOOTH",
"390 983.999 OFFCURVE",
"465 912 OFFCURVE",
"591 912 CURVE SMOOTH",
"645 912 OFFCURVE",
"698 924 OFFCURVE",
"747 924 CURVE SMOOTH",
"808 924 OFFCURVE",
"829 893 OFFCURVE",
"829 831 CURVE SMOOTH",
"829 761 OFFCURVE",
"806 745 OFFCURVE",
"743 729 CURVE",
"644 561 OFFCURVE",
"483 402 OFFCURVE",
"360 255 CURVE",
"355 235 LINE",
"421 235 OFFCURVE",
"506 190 OFFCURVE",
"586 190 CURVE SMOOTH",
"715 190 OFFCURVE",
"789 260 OFFCURVE",
"870 308 CURVE SMOOTH",
"894 322 OFFCURVE",
"919 329 OFFCURVE",
"945 329 CURVE SMOOTH",
"981.999 329 OFFCURVE",
"1007 298 OFFCURVE",
"1007 261 CURVE SMOOTH",
"1007 97 OFFCURVE",
"685 -2 OFFCURVE",
"524 -2 CURVE SMOOTH",
"435 -2 OFFCURVE",
"346 38 OFFCURVE",
"272 70 CURVE"
);
}
);
};
layerId = "DE4BB00D-BABA-4D36-9D9A-44FD0E91C3DF";
name = Regular;
paths = (
{
closed = 1;
nodes = (
"190 54 OFFCURVE",
"152 0 OFFCURVE",
"122 0 CURVE",
"64 0 OFFCURVE",
"35 44 OFFCURVE",
"35 80 CURVE",
"35 107 OFFCURVE",
"74 152 OFFCURVE",
"111 206 CURVE",
"566 793 LINE",
"506 809 OFFCURVE",
"415 817 OFFCURVE",
"369 817 CURVE",
"299 817 OFFCURVE",
"262 796 OFFCURVE",
"223 780 CURVE",
"182 764 OFFCURVE",
"182 792 OFFCURVE",
"182 803 CURVE",
"182 919 OFFCURVE",
"202 964 OFFCURVE",
"292 964 CURVE",
"405 964 OFFCURVE",
"453 927 OFFCURVE",
"591 927 CURVE",
"648 927 OFFCURVE",
"701 939 OFFCURVE",
"747 939 CURVE",
"788 939 OFFCURVE",
"799 925 OFFCURVE",
"799 876 CURVE",
"799 822 OFFCURVE",
"788 816 OFFCURVE",
"723 800 CURVE",
"593 608 OFFCURVE",
"391 350 OFFCURVE",
"283 184 CURVE",
"282 185 LINE",
"347 199 OFFCURVE",
"428 124 OFFCURVE",
"540 124 CURVE",
"681 124 OFFCURVE",
"786 208 OFFCURVE",
"864 254 CURVE",
"884 266 OFFCURVE",
"902 276 OFFCURVE",
"924 276 CURVE",
"942 276 OFFCURVE",
"956 255 OFFCURVE",
"956 233 CURVE",
"956 95 OFFCURVE",
"655 0 OFFCURVE",
"503 0 CURVE",
"414 0 OFFCURVE",
"301 43 OFFCURVE",
"223 77 CURVE"
);
}
);
width = 743;
}
);
unicode = 007A;
},
{
glyphname = braceleft;
lastChange = "2013-12-24 01:35:45 -0800";
layers = (
{
layerId = "DE4BB00D-BABA-4D36-9D9A-44FD0E91C3DF";
name = Regular;
paths = (
{
closed = 1;
nodes = (
"491 1656 OFFCURVE",
"609 1827 OFFCURVE",
"877 1827 CURVE",
"1035 1827 OFFCURVE",
"1175 1802 OFFCURVE",
"1263 1736 CURVE",
"1262 1736 LINE",
"1273 1728 OFFCURVE",
"1280 1714 OFFCURVE",
"1280 1697 CURVE",
"1280 1642 OFFCURVE",
"1235 1589 OFFCURVE",
"1183 1589 CURVE",
"1092 1589 OFFCURVE",
"1004 1621 OFFCURVE",
"900 1621 CURVE",
"670 1621 OFFCURVE",
"692.516 1123.95 OFFCURVE",
"636.63 976.879 CURVE",
"596.578 872.503 OFFCURVE",
"530 772 OFFCURVE",
"402 762 CURVE",
"554 745 OFFCURVE",
"602 688 OFFCURVE",
"602 534 CURVE",
"602 381.977 OFFCURVE",
"555 212 OFFCURVE",
"555 60 CURVE",
"555 -25 OFFCURVE",
"577 -107 OFFCURVE",
"675 -107 CURVE",
"793 -107 OFFCURVE",
"839 -33 OFFCURVE",
"926 -33 CURVE",
"970 -33 OFFCURVE",
"994 -64 OFFCURVE",
"994 -113 CURVE",
"994 -258 OFFCURVE",
"727 -313 OFFCURVE",
"570 -313 CURVE",
"406 -313 OFFCURVE",
"337 -178 OFFCURVE",
"337 -3 CURVE",
"337 139 OFFCURVE",
"390 267 OFFCURVE",
"390 439 CURVE",
"390 559.375 OFFCURVE",
"338.916 657 OFFCURVE",
"209 657 CURVE",
"172.14 657 OFFCURVE",
"157 687.534 OFFCURVE",
"157 735 CURVE",
"157 808.746 OFFCURVE",
"196.49 893.517 OFFCURVE",
"254.641 895.008 CURVE",
"446.345 899.415 OFFCURVE",
"512 1011.03 OFFCURVE",
"512 1176 CURVE"
);
}
);
width = 1153;
}
);
unicode = 007B;
},
{
glyphname = bar;
lastChange = "2013-12-24 01:37:38 -0800";
layers = (
{
layerId = "DE4BB00D-BABA-4D36-9D9A-44FD0E91C3DF";
name = Regular;
paths = (
{
closed = 1;
nodes = (
"443 12 OFFCURVE",
"537 402 OFFCURVE",
"606.695 873.106 CURVE",
"649.679 1144.01 OFFCURVE",
"707 1461 OFFCURVE",
"750 1724 CURVE",
"762 1804 OFFCURVE",
"815 1864 OFFCURVE",
"902 1864 CURVE",
"944 1864 OFFCURVE",
"972 1819 OFFCURVE",
"972 1772 CURVE",
"972 1555 OFFCURVE",
"899.52 1304.33 OFFCURVE",
"866.279 1083.73 CURVE",
"818.272 768.678 OFFCURVE",
"771 416 OFFCURVE",
"725 103 CURVE",
"713 15 OFFCURVE",
"632 -60 OFFCURVE",
"535 -29 CURVE"
);
}
);
width = 1248;
}
);
unicode = 007C;
},
{
glyphname = braceright;
lastChange = "2013-12-24 01:36:28 -0800";
layers = (
{
layerId = "DE4BB00D-BABA-4D36-9D9A-44FD0E91C3DF";
name = Regular;
paths = (
{
closed = 1;
nodes = (
"918 1744 OFFCURVE",
"991 1613 OFFCURVE",
"991 1440 CURVE",
"991 1279 OFFCURVE",
"930 1116.31 OFFCURVE",
"930 943 CURVE",
"930 818.981 OFFCURVE",
"1000.69 777.209 OFFCURVE",
"1117.53 775.004 CURVE",
"1152.56 774.356 OFFCURVE",
"1168 737.315 OFFCURVE",
"1168 688 CURVE",
"1168 613.031 OFFCURVE",
"1135.25 537 OFFCURVE",
"1073 537 CURVE",
"950.114 537 OFFCURVE",
"872.944 453.533 OFFCURVE",
"855.354 350.195 CURVE",
"808.26 69.6329 OFFCURVE",
"776.829 -180 OFFCURVE",
"574.408 -286 CURVE",
"533.985 -307 OFFCURVE",
"494.724 -317 OFFCURVE",
"450 -317 CURVE",
"326.56 -317 OFFCURVE",
"89 -265 OFFCURVE",
"89 -163 CURVE",
"89 -100 OFFCURVE",
"131.438 -45 OFFCURVE",
"186.673 -37 CURVE",
"207 -34 OFFCURVE",
"313 -111 OFFCURVE",
"427 -111 CURVE",
"651.921 -111 OFFCURVE",
"635.18 351.468 OFFCURVE",
"693.1 491.441 CURVE",
"733 588 OFFCURVE",
"796 653 OFFCURVE",
"930 668 CURVE",
"786 679 OFFCURVE",
"727 757.696 OFFCURVE",
"727 916 CURVE",
"727 1062.97 OFFCURVE",
"773 1227 OFFCURVE",
"773 1375 CURVE",
"773 1461 OFFCURVE",
"751 1538 OFFCURVE",
"652 1538 CURVE",
"545 1538 OFFCURVE",
"453 1506 OFFCURVE",
"359 1506 CURVE",
"322 1506 OFFCURVE",
"299 1535 OFFCURVE",
"299 1577 CURVE",
"299 1718 OFFCURVE",
"591 1744 OFFCURVE",
"757 1744 CURVE"
);
}
);
width = 1248;
}
);
unicode = 007D;
},
{
glyphname = asciitilde;
lastChange = "2013-12-24 01:39:54 -0800";
layers = (
{
layerId = "DE4BB00D-BABA-4D36-9D9A-44FD0E91C3DF";
name = Regular;
paths = (
{
closed = 1;
nodes = (
"355.985 1517.72 OFFCURVE",
"318.832 1398 OFFCURVE",
"229 1398 CURVE",
"191.618 1398 OFFCURVE",
"166 1417.27 OFFCURVE",
"166 1451 CURVE",
"166 1556.48 OFFCURVE",
"285.141 1693 OFFCURVE",
"392 1693 CURVE",
"487.427 1693 OFFCURVE",
"533.025 1613.66 OFFCURVE",
"593.979 1553.74 CURVE",
"709.895 1438.96 LINE",
"771.793 1491.9 OFFCURVE",
"799.129 1610 OFFCURVE",
"891 1610 CURVE",
"928.382 1610 OFFCURVE",
"953.999 1590.73 OFFCURVE",
"953.999 1557 CURVE",
"953.999 1451.52 OFFCURVE",
"834.859 1315 OFFCURVE",
"728 1315 CURVE",
"632.573 1315 OFFCURVE",
"586.975 1394.34 OFFCURVE",
"526.021 1454.26 CURVE",
"409.116 1570.02 LINE"
);
}
);
width = 864;
}
);
unicode = 007E;
},
{
glyphname = exclamdown;
lastChange = "2013-12-24 01:43:03 -0800";
layers = (
{
layerId = "DE4BB00D-BABA-4D36-9D9A-44FD0E91C3DF";
name = Regular;
paths = (
{
closed = 1;
nodes = (
"732.425 1531 OFFCURVE",
"688 1575.42 OFFCURVE",
"688 1663 CURVE",
"688 1758.65 OFFCURVE",
"741.609 1826 OFFCURVE",
"839 1826 CURVE",
"928.728 1826 OFFCURVE",
"973 1782.42 OFFCURVE",
"973 1692 CURVE",
"973 1592.21 OFFCURVE",
"919.321 1531 OFFCURVE",
"820 1531 CURVE"
);
},
{
closed = 1;
nodes = (
"711 1374 OFFCURVE",
"752 1392 OFFCURVE",
"789 1392 CURVE SMOOTH",
"820 1392 OFFCURVE",
"835 1373 OFFCURVE",
"833 1342 CURVE",
"733 845 OFFCURVE",
"620 550 OFFCURVE",
"515 172 CURVE SMOOTH",
"473 22 OFFCURVE",
"396 -22 OFFCURVE",
"325 -12 CURVE SMOOTH",
"286 -6 OFFCURVE",
"271 45 OFFCURVE",
"271 93 CURVE SMOOTH",
"271 217 OFFCURVE",
"311 320 OFFCURVE",
"347 424 CURVE SMOOTH",
"457 743 OFFCURVE",
"569 1021 OFFCURVE",
"705 1342 CURVE"
);
}
);
width = 1184;
}
);
unicode = 00A1;
},
{
glyphname = cent;
lastChange = "2013-12-24 01:42:31 -0800";
layers = (
{
background = {
paths = (
{
closed = 1;
nodes = (
"459 377 OFFCURVE",
"475 569 OFFCURVE",
"491 750 CURVE",
"375 703 OFFCURVE",
"320 571 OFFCURVE",
"320 414 CURVE SMOOTH",
"320 306 OFFCURVE",
"354 214 OFFCURVE",
"444 195 CURVE"
);
},
{
closed = 1;
nodes = (
"423 -54 OFFCURVE",
"427 -40 OFFCURVE",
"429 0 CURVE",
"196 3 OFFCURVE",
"64 179 OFFCURVE",
"64 413 CURVE SMOOTH",
"64 697 OFFCURVE",
"254 928 OFFCURVE",
"509 956 CURVE",
"515 1023 LINE SMOOTH",
"518 1077 OFFCURVE",
"547 1135 OFFCURVE",
"604 1135 CURVE SMOOTH",
"632 1135 OFFCURVE",
"645 1086 OFFCURVE",
"645 1057 CURVE SMOOTH",
"645 1027 OFFCURVE",
"641 979.999 OFFCURVE",
"638 954 CURVE",
"762 936 OFFCURVE",
"886 866 OFFCURVE",
"886 729 CURVE SMOOTH",
"886 646 OFFCURVE",
"853 544 OFFCURVE",
"772 544 CURVE SMOOTH",
"646 544 OFFCURVE",
"738 741 OFFCURVE",
"624 765 CURVE",
"612 583 OFFCURVE",
"603 394 OFFCURVE",
"586 202 CURVE",
"654 222 OFFCURVE",
"737 269 OFFCURVE",
"785 307 CURVE SMOOTH",
"799 318 OFFCURVE",
"813 320 OFFCURVE",
"820 319 CURVE SMOOTH",
"853 315 OFFCURVE",
"884 262 OFFCURVE",
"884 218 CURVE SMOOTH",
"884 191 OFFCURVE",
"871 175 OFFCURVE",
"854 161 CURVE SMOOTH",
"778 98 OFFCURVE",
"651 5 OFFCURVE",
"568 5 CURVE",
"552 -130 LINE",
"538 -196 OFFCURVE",
"522 -198 OFFCURVE",
"469 -198 CURVE SMOOTH",
"433 -198 OFFCURVE",
"423 -129 OFFCURVE",
"423 -89 CURVE SMOOTH"
);
}
);
};
layerId = "DE4BB00D-BABA-4D36-9D9A-44FD0E91C3DF";
name = Regular;
paths = (
{
closed = 1;
nodes = (
"488.277 367.224 OFFCURVE",
"506.586 587.509 OFFCURVE",
"524.791 791.337 CURVE",
"366.727 759.125 OFFCURVE",
"245 595 OFFCURVE",
"245 414 CURVE",
"245 285 OFFCURVE",
"335.176 168.445 OFFCURVE",
"471.331 161.362 CURVE"
);
},
{
closed = 1;
nodes = (
"453 -52 OFFCURVE",
"458.569 -40 OFFCURVE",
"460.075 30.6609 CURVE",
"226.748 17.888 OFFCURVE",
"94 182.704 OFFCURVE",
"94 413 CURVE",
"94 691.323 OFFCURVE",
"285.685 914.566 OFFCURVE",
"536.628 928.174 CURVE",
"545.885 1031.54 LINE",
"554 1101 OFFCURVE",
"587 1105 OFFCURVE",
"612 1105 CURVE",
"648 1105 OFFCURVE",
"634 1000 OFFCURVE",
"630 928 CURVE",
"754 918 OFFCURVE",
"881 854 OFFCURVE",
"881 729 CURVE",
"881 655 OFFCURVE",
"852 574 OFFCURVE",
"797 574 CURVE",
"700 574 OFFCURVE",
"833 784 OFFCURVE",
"621 799 CURVE",
"607 594 OFFCURVE",
"598 381 OFFCURVE",
"577 164 CURVE",
"652 173 OFFCURVE",
"768 236 OFFCURVE",
"829 283 CURVE",
"851 301 OFFCURVE",
"879 261 OFFCURVE",
"879 218 CURVE",
"879 204 OFFCURVE",
"873 195 OFFCURVE",
"860 184 CURVE",
"776 115 OFFCURVE",
"640 40 OFFCURVE",
"567 40 CURVE",
"547 -125 LINE",
"539 -165 OFFCURVE",
"541 -168 OFFCURVE",
"480 -168 CURVE",
"456.966 -168 OFFCURVE",
"453 -129 OFFCURVE",
"453 -89 CURVE"
);
}
);
width = 896;
}
);
unicode = 00A2;
},
{
glyphname = sterling;
lastChange = "2013-12-24 01:45:16 -0800";
layers = (
{
background = {
paths = (
{
closed = 1;
nodes = (
"1264 991.999 LINE SMOOTH",
"1352 991.999 OFFCURVE",
"1422 958 OFFCURVE",
"1422 868 CURVE SMOOTH",
"1422 787 OFFCURVE",
"1349 768 OFFCURVE",
"1263 768 CURVE SMOOTH",
"1012 768 LINE",
"993 591 OFFCURVE",
"934 217 OFFCURVE",
"936 215 CURVE",
"1132 215 OFFCURVE",
"1253 272 OFFCURVE",
"1433 272 CURVE SMOOTH",
"1503 272 OFFCURVE",
"1589 240 OFFCURVE",
"1589 170 CURVE SMOOTH",
"1589 3 OFFCURVE",
"1345 17 OFFCURVE",
"1191 -2 CURVE SMOOTH",
"1086 -15 OFFCURVE",
"957 -29 OFFCURVE",
"842 -29 CURVE SMOOTH",
"717 -29 OFFCURVE",
"634 15 OFFCURVE",
"634 135 CURVE SMOOTH",
"634 190 OFFCURVE",
"652 249 OFFCURVE",
"666 292 CURVE",
"698 380 OFFCURVE",
"733 610 OFFCURVE",
"748 768 CURVE",
"632 768 LINE SMOOTH",
"565 768 OFFCURVE",
"525 816 OFFCURVE",
"525 879 CURVE SMOOTH",
"525 958 OFFCURVE",
"573 991.999 OFFCURVE",
"656 991.999 CURVE SMOOTH",
"768 991.999 LINE",
"768 1400 OFFCURVE",
"944 1714 OFFCURVE",
"1343 1714 CURVE SMOOTH",
"1563 1714 OFFCURVE",
"1712 1620 OFFCURVE",
"1712 1398 CURVE SMOOTH",
"1712 1323 OFFCURVE",
"1678 1266 OFFCURVE",
"1606 1266 CURVE SMOOTH",
"1551 1266 OFFCURVE",
"1502 1301 OFFCURVE",
"1502 1356 CURVE SMOOTH",
"1502 1455 OFFCURVE",
"1442 1470 OFFCURVE",
"1344 1470 CURVE SMOOTH",
"1090 1470 OFFCURVE",
"1024 1251 OFFCURVE",
"1024 991.999 CURVE"
);
}
);
};
layerId = "DE4BB00D-BABA-4D36-9D9A-44FD0E91C3DF";
name = Regular;
paths = (
{
closed = 1;
nodes = (
"1264 961.999 LINE",
"1341.1 961.999 OFFCURVE",
"1392 935.223 OFFCURVE",
"1392 868 CURVE",
"1392 812.258 OFFCURVE",
"1343.11 798 OFFCURVE",
"1263 798 CURVE",
"984.825 798 LINE",
"968 614 OFFCURVE",
"853 158 OFFCURVE",
"924 170 CURVE",
"1134 167 OFFCURVE",
"1256 227 OFFCURVE",
"1433 227 CURVE",
"1494 227 OFFCURVE",
"1559 200 OFFCURVE",
"1559 155 CURVE",
"1559 20 OFFCURVE",
"1344 32 OFFCURVE",
"1187 13 CURVE",
"1083 0 OFFCURVE",
"955 -14 OFFCURVE",
"842 -14 CURVE",
"728 -14 OFFCURVE",
"685 22 OFFCURVE",
"685 120 CURVE",
"685 170 OFFCURVE",
"701 224 OFFCURVE",
"715 267 CURVE",
"751 365 OFFCURVE",
"789 641 OFFCURVE",
"802 798 CURVE",
"632 798 LINE",
"583.046 798 OFFCURVE",
"555 830.856 OFFCURVE",
"555 879 CURVE",
"555 938.49 OFFCURVE",
"586.545 961.999 OFFCURVE",
"656 961.999 CURVE",
"820 962 LINE",
"811 1428 OFFCURVE",
"956 1739 OFFCURVE",
"1343 1739 CURVE",
"1550 1739 OFFCURVE",
"1682 1655 OFFCURVE",
"1682 1453 CURVE",
"1682 1390 OFFCURVE",
"1657 1351 OFFCURVE",
"1606 1351 CURVE",
"1565 1351 OFFCURVE",
"1532 1376 OFFCURVE",
"1532 1411 CURVE",
"1532 1534 OFFCURVE",
"1446 1575 OFFCURVE",
"1344 1575 CURVE",
"1055 1575 OFFCURVE",
"988.904 1238.85 OFFCURVE",
"994.296 961.999 CURVE"
);
}
);
width = 1505;
}
);
unicode = 00A3;
},
{
glyphname = currency;
lastChange = "2013-12-24 01:44:53 -0800";
layers = (
{
background = {
paths = (
{
closed = 1;
nodes = (
"583 1348 OFFCURVE",
"472 1145 OFFCURVE",
"472 901 CURVE SMOOTH",
"472 750 OFFCURVE",
"547 645 OFFCURVE",
"696 645 CURVE SMOOTH",
"920 645 OFFCURVE",
"1016 900 OFFCURVE",
"1016 1125 CURVE SMOOTH",
"1016 1250 OFFCURVE",
"949 1348 OFFCURVE",
"824 1348 CURVE SMOOTH"
);
},
{
closed = 1;
nodes = (
"1031 347 OFFCURVE",
"948 460 OFFCURVE",
"898 505 CURVE",
"748 430 OFFCURVE",
"546 429 OFFCURVE",
"410 535 CURVE",
"324 473 OFFCURVE",
"202 381 OFFCURVE",
"146 381 CURVE SMOOTH",
"101 381 OFFCURVE",
"64 429 OFFCURVE",
"64 474 CURVE SMOOTH",
"64 522 OFFCURVE",
"104 549 OFFCURVE",
"142 576 CURVE SMOOTH",
"294 681 LINE",
"207 863 OFFCURVE",
"243 1155 OFFCURVE",
"397 1343 CURVE",
"302 1429 LINE SMOOTH",
"274 1455 OFFCURVE",
"243 1480 OFFCURVE",
"243 1521 CURVE SMOOTH",
"243 1569 OFFCURVE",
"296 1623 OFFCURVE",
"344 1623 CURVE SMOOTH",
"370 1623 OFFCURVE",
"400 1608 OFFCURVE",
"433 1579 CURVE SMOOTH",
"553 1473 LINE",
"711 1561 OFFCURVE",
"946 1569 OFFCURVE",
"1089 1462 CURVE",
"1147 1502 OFFCURVE",
"1232 1588 OFFCURVE",
"1314 1588 CURVE SMOOTH",
"1360 1588 OFFCURVE",
"1397 1541 OFFCURVE",
"1397 1495 CURVE SMOOTH",
"1397 1447 OFFCURVE",
"1357 1420 OFFCURVE",
"1319 1394 CURVE SMOOTH",
"1204 1315 LINE",
"1287 1125 OFFCURVE",
"1232 822 OFFCURVE",
"1060 630 CURVE",
"1159 541 LINE SMOOTH",
"1197 506 OFFCURVE",
"1216 476 OFFCURVE",
"1217 451 CURVE",
"1217 402 OFFCURVE",
"1165 347 OFFCURVE",
"1117 347 CURVE SMOOTH"
);
}
);
};
layerId = "DE4BB00D-BABA-4D36-9D9A-44FD0E91C3DF";
name = Regular;
paths = (
{
closed = 1;
nodes = (
"576 1410 OFFCURVE",
"442 1156.68 OFFCURVE",
"442 901 CURVE",
"442 706 OFFCURVE",
"528 585 OFFCURVE",
"696 585 CURVE",
"945 585 OFFCURVE",
"1046 890.523 OFFCURVE",
"1046 1125 CURVE",
"1061 1295 OFFCURVE",
"983 1410 OFFCURVE",
"839 1410 CURVE"
);
},
{
closed = 1;
nodes = (
"1038 347 OFFCURVE",
"953 475 OFFCURVE",
"901 511 CURVE",
"752 428 OFFCURVE",
"542 426 OFFCURVE",
"411 543 CURVE",
"326 482 OFFCURVE",
"193 381 OFFCURVE",
"146 381 CURVE",
"120 381 OFFCURVE",
"94 413 OFFCURVE",
"94 444 CURVE",
"94 476 OFFCURVE",
"121 494 OFFCURVE",
"159 522 CURVE",
"333 641 LINE",
"232 818 OFFCURVE",
"284 1191 OFFCURVE",
"453 1377 CURVE",
"337 1483 LINE",
"308 1509 OFFCURVE",
"288 1526 OFFCURVE",
"288 1553 CURVE",
"288 1584 OFFCURVE",
"327 1625 OFFCURVE",
"359 1625 CURVE",
"375 1625 OFFCURVE",
"399 1613 OFFCURVE",
"428 1588 CURVE",
"564 1468 LINE",
"720 1565 OFFCURVE",
"966 1574 OFFCURVE",
"1102 1457 CURVE",
"1164 1492 OFFCURVE",
"1252 1590 OFFCURVE",
"1329 1590 CURVE",
"1356 1590 OFFCURVE",
"1382 1558 OFFCURVE",
"1382 1527 CURVE",
"1382 1494 OFFCURVE",
"1355 1476 OFFCURVE",
"1317 1450 CURVE",
"1180 1357 LINE",
"1277 1172 OFFCURVE",
"1206 788 OFFCURVE",
"1017 598 CURVE",
"1139 489 LINE",
"1172 458 OFFCURVE",
"1186 435 OFFCURVE",
"1187 420 CURVE",
"1187 387 OFFCURVE",
"1148 347 OFFCURVE",
"1117 347 CURVE"
);
}
);
width = 1472;
}
);
unicode = 00A4;
},
